%
M48
M72
T01C0.02800
T02C0.03150
T03C0.04000
T04C0.11811
%
T01
X196700Y129000
X196700Y136000
X215200Y135900
X215200Y128900
X32800Y149600
X25800Y149600
X24000Y131800
X17000Y131800
T02
X34300Y99600
X44300Y99600
X54300Y99600
X64300Y99600
X74300Y99600
X84300Y99600
X94300Y99600
X104300Y99600
X114300Y99600
X124300Y99600
X134300Y99600
X144300Y99600
X154300Y99600
X164300Y99600
X174300Y99600
X174300Y39600
X164300Y39600
X154300Y39600
X144300Y39600
X134300Y39600
X124300Y39600
X114300Y39600
X104300Y39600
X94300Y39600
X84300Y39600
X74300Y39600
X64300Y39600
X54300Y39600
X44300Y39600
X34300Y39600
T03
X34300Y19600
X44300Y19600
X54300Y19600
X64300Y19600
X74300Y19600
X84300Y19600
X94300Y19600
X104300Y19600
X114300Y19600
X124300Y19600
X134300Y19600
X144300Y19600
X154300Y19600
X164300Y19600
X174300Y19600
X203600Y36900
X213600Y36900
X213600Y54000
X203600Y54000
X203700Y69400
X213700Y69400
X214400Y103600
X204400Y103600
X174300Y119600
X164300Y119600
X154300Y119600
X144300Y119600
X134300Y119600
X124300Y119600
X114300Y119600
X104300Y119600
X94300Y119600
X84300Y119600
X74300Y119600
X64300Y119600
X54300Y119600
X44300Y119600
X34300Y119600
X54300Y139600
X64300Y139600
X74300Y139600
X84300Y139600
X84300Y149600
X74300Y149600
X64300Y149600
X54300Y149600
X114300Y149600
X114300Y139600
X134300Y139600
X134300Y149600
X134300Y159600
X152400Y159600
X152400Y149600
X152400Y139600
X169500Y139500
X169500Y149500
X169500Y159500
X195600Y159600
X195600Y149600
X210200Y149800
X224000Y150000
X224000Y160000
X210200Y159800
X114300Y159600
T04
X9900Y159600
X215500Y10700
M30
