%
M48
M72
T01C0.02800
T02C0.03150
T03C0.04000
T04C0.11800
T05C0.11811
T06C0.12598
%
T01
X17000Y131900
X24000Y131900
X25800Y149700
X32800Y149700
X196700Y136100
X196700Y129100
X215200Y129000
X215200Y136000
T02
X174300Y99700
X164300Y99700
X154300Y99700
X144300Y99700
X134300Y99700
X124300Y99700
X114300Y99700
X104300Y99700
X94300Y99700
X84300Y99700
X74300Y99700
X64300Y99700
X54300Y99700
X44300Y99700
X34300Y99700
X34300Y39700
X44300Y39700
X54300Y39700
X64300Y39700
X74300Y39700
X84300Y39700
X94300Y39700
X104300Y39700
X114300Y39700
X124300Y39700
X134300Y39700
X144300Y39700
X154300Y39700
X164300Y39700
X174300Y39700
T03
X34300Y19700
X44300Y19700
X54300Y19700
X64300Y19700
X74300Y19700
X84300Y19700
X94300Y19700
X104300Y19700
X114300Y19700
X124300Y19700
X134300Y19700
X144300Y19700
X154300Y19700
X164300Y19700
X174300Y19700
X200400Y69000
X210400Y69000
X223700Y69000
X233700Y69000
X174300Y119700
X164300Y119700
X154300Y119700
X144300Y119700
X134300Y119700
X124300Y119700
X114300Y119700
X104300Y119700
X94300Y119700
X84300Y119700
X74300Y119700
X64300Y119700
X54300Y119700
X44300Y119700
X34300Y119700
X54300Y139700
X64300Y139700
X74300Y139700
X84300Y139700
X84300Y149700
X74300Y149700
X64300Y149700
X54300Y149700
X114300Y149700
X114300Y139700
X134300Y139700
X134300Y149700
X134300Y159700
X152400Y159700
X152400Y149700
X152400Y139700
X169500Y139600
X169500Y149600
X169500Y159600
X195600Y159700
X195600Y149700
X210200Y149900
X224000Y150100
X224000Y160100
X210200Y159900
X114300Y159700
T04
X208474Y111709
X224785Y97000
X208574Y53009
X224885Y38300
T05
X227300Y10400
X9900Y159700
T06
X195963Y96900
X196063Y38200
M30
