G75*
%MOIN*%
%OFA0B0*%
%FSLAX25Y25*%
%IPPOS*%
%LPD*%
%AMOC8*
5,1,8,0,0,1.08239X$1,22.5*
%
%ADD10R,0.05150X0.05150*%
%ADD11C,0.05150*%
%ADD12OC8,0.04800*%
%ADD13C,0.04800*%
%ADD14OC8,0.06000*%
%ADD15C,0.06000*%
%ADD16C,0.16598*%
%ADD17C,0.16200*%
%ADD18C,0.02000*%
%ADD19C,0.03200*%
%ADD20C,0.00600*%
D10*
X0034300Y0039700D03*
D11*
X0044300Y0039700D03*
X0054300Y0039700D03*
X0064300Y0039700D03*
X0074300Y0039700D03*
X0084300Y0039700D03*
X0094300Y0039700D03*
X0104300Y0039700D03*
X0114300Y0039700D03*
X0124300Y0039700D03*
X0134300Y0039700D03*
X0144300Y0039700D03*
X0154300Y0039700D03*
X0164300Y0039700D03*
X0174300Y0039700D03*
X0174300Y0099700D03*
X0164300Y0099700D03*
X0154300Y0099700D03*
X0144300Y0099700D03*
X0134300Y0099700D03*
X0124300Y0099700D03*
X0114300Y0099700D03*
X0104300Y0099700D03*
X0094300Y0099700D03*
X0084300Y0099700D03*
X0074300Y0099700D03*
X0064300Y0099700D03*
X0054300Y0099700D03*
X0044300Y0099700D03*
X0034300Y0099700D03*
D12*
X0024000Y0131900D03*
X0032800Y0149700D03*
X0196700Y0129100D03*
X0215200Y0129000D03*
D13*
X0215200Y0136000D03*
X0196700Y0136100D03*
X0025800Y0149700D03*
X0017000Y0131900D03*
D14*
X0054300Y0139700D03*
X0064300Y0139700D03*
X0074300Y0139700D03*
X0084300Y0139700D03*
X0084300Y0149700D03*
X0074300Y0149700D03*
X0064300Y0149700D03*
X0054300Y0149700D03*
D15*
X0054300Y0122700D02*
X0054300Y0116700D01*
X0044300Y0116700D02*
X0044300Y0122700D01*
X0034300Y0122700D02*
X0034300Y0116700D01*
X0064300Y0116700D02*
X0064300Y0122700D01*
X0074300Y0122700D02*
X0074300Y0116700D01*
X0084300Y0116700D02*
X0084300Y0122700D01*
X0094300Y0122700D02*
X0094300Y0116700D01*
X0104300Y0116700D02*
X0104300Y0122700D01*
X0114300Y0122700D02*
X0114300Y0116700D01*
X0124300Y0116700D02*
X0124300Y0122700D01*
X0134300Y0122700D02*
X0134300Y0116700D01*
X0144300Y0116700D02*
X0144300Y0122700D01*
X0154300Y0122700D02*
X0154300Y0116700D01*
X0164300Y0116700D02*
X0164300Y0122700D01*
X0174300Y0122700D02*
X0174300Y0116700D01*
X0172500Y0139600D02*
X0166500Y0139600D01*
X0155400Y0139700D02*
X0149400Y0139700D01*
X0137300Y0139700D02*
X0131300Y0139700D01*
X0131300Y0149700D02*
X0137300Y0149700D01*
X0149400Y0149700D02*
X0155400Y0149700D01*
X0166500Y0149600D02*
X0172500Y0149600D01*
X0172500Y0159600D02*
X0166500Y0159600D01*
X0155400Y0159700D02*
X0149400Y0159700D01*
X0137300Y0159700D02*
X0131300Y0159700D01*
X0117300Y0159700D02*
X0111300Y0159700D01*
X0111300Y0149700D02*
X0117300Y0149700D01*
X0117300Y0139700D02*
X0111300Y0139700D01*
X0192600Y0149700D02*
X0198600Y0149700D01*
X0207200Y0149900D02*
X0213200Y0149900D01*
X0221000Y0150100D02*
X0227000Y0150100D01*
X0227000Y0160100D02*
X0221000Y0160100D01*
X0213200Y0159900D02*
X0207200Y0159900D01*
X0198600Y0159700D02*
X0192600Y0159700D01*
X0200400Y0072000D02*
X0200400Y0066000D01*
X0210400Y0066000D02*
X0210400Y0072000D01*
X0223700Y0072000D02*
X0223700Y0066000D01*
X0233700Y0066000D02*
X0233700Y0072000D01*
X0174300Y0022700D02*
X0174300Y0016700D01*
X0164300Y0016700D02*
X0164300Y0022700D01*
X0154300Y0022700D02*
X0154300Y0016700D01*
X0144300Y0016700D02*
X0144300Y0022700D01*
X0134300Y0022700D02*
X0134300Y0016700D01*
X0124300Y0016700D02*
X0124300Y0022700D01*
X0114300Y0022700D02*
X0114300Y0016700D01*
X0104300Y0016700D02*
X0104300Y0022700D01*
X0094300Y0022700D02*
X0094300Y0016700D01*
X0084300Y0016700D02*
X0084300Y0022700D01*
X0074300Y0022700D02*
X0074300Y0016700D01*
X0064300Y0016700D02*
X0064300Y0022700D01*
X0054300Y0022700D02*
X0054300Y0016700D01*
X0044300Y0016700D02*
X0044300Y0022700D01*
X0034300Y0022700D02*
X0034300Y0016700D01*
D16*
X0196063Y0038200D03*
X0195963Y0096900D03*
D17*
X0208474Y0111709D03*
X0224785Y0097000D03*
X0208574Y0053009D03*
X0224885Y0038300D03*
D18*
X0196063Y0024000D02*
X0196063Y0021563D01*
X0174300Y0019700D02*
X0174300Y0039700D01*
X0154300Y0039700D02*
X0154300Y0019700D01*
X0144300Y0019700D02*
X0144300Y0015400D01*
X0134300Y0019700D02*
X0134300Y0039700D01*
X0124300Y0039700D02*
X0124300Y0019700D01*
X0114300Y0019700D02*
X0114300Y0039700D01*
X0104300Y0039700D02*
X0104300Y0019700D01*
X0094300Y0019700D02*
X0094300Y0039700D01*
X0084300Y0039700D02*
X0084300Y0019700D01*
X0074300Y0019700D02*
X0074300Y0039700D01*
X0064300Y0039700D02*
X0064300Y0019700D01*
X0054300Y0019700D02*
X0054300Y0039700D01*
X0044300Y0039700D02*
X0044300Y0019700D01*
X0034300Y0019700D02*
X0034300Y0039700D01*
X0018200Y0039700D01*
X0010250Y0047650D01*
X0010250Y0140650D01*
X0022900Y0153300D01*
X0022900Y0160300D01*
X0027300Y0164700D01*
X0094300Y0164700D01*
X0094300Y0142200D01*
X0086800Y0134700D01*
X0079300Y0134700D01*
X0074300Y0139700D01*
X0069300Y0142200D02*
X0069300Y0129700D01*
X0074300Y0129700D01*
X0084300Y0119700D01*
X0084300Y0099700D01*
X0089300Y0094700D02*
X0069300Y0094700D01*
X0064300Y0099700D01*
X0064300Y0119700D01*
X0059300Y0124700D02*
X0059300Y0089700D01*
X0104300Y0089700D01*
X0114300Y0099700D01*
X0114300Y0119700D01*
X0104300Y0119700D02*
X0114300Y0129700D01*
X0129300Y0129700D01*
X0134300Y0134700D01*
X0152400Y0134700D01*
X0152400Y0139700D01*
X0169500Y0139600D02*
X0169500Y0129700D01*
X0134300Y0129700D01*
X0124300Y0119700D01*
X0124300Y0099700D01*
X0134300Y0099700D02*
X0134300Y0119700D01*
X0144300Y0119700D02*
X0144300Y0100900D01*
X0144100Y0100700D01*
X0144300Y0100900D02*
X0144300Y0099700D01*
X0154300Y0099700D02*
X0154300Y0119700D01*
X0164300Y0119700D02*
X0164300Y0099700D01*
X0174300Y0099700D02*
X0174300Y0119700D01*
X0196700Y0129100D02*
X0196800Y0129000D01*
X0208474Y0128974D02*
X0208500Y0129000D01*
X0215200Y0129000D02*
X0217200Y0129000D01*
X0215200Y0136000D02*
X0215100Y0136100D01*
X0232700Y0136000D02*
X0232900Y0135800D01*
X0223800Y0149900D02*
X0224000Y0150100D01*
X0210200Y0149900D02*
X0210000Y0149700D01*
X0210200Y0159900D02*
X0210400Y0160100D01*
X0208474Y0111709D02*
X0209300Y0110883D01*
X0199500Y0069900D02*
X0200400Y0069000D01*
X0200800Y0068600D01*
X0223700Y0069000D02*
X0224885Y0067815D01*
X0233700Y0069000D02*
X0236321Y0069000D01*
X0134300Y0139700D02*
X0129300Y0134700D01*
X0109300Y0134700D01*
X0094300Y0119700D01*
X0094300Y0099700D01*
X0089300Y0094700D02*
X0089300Y0124700D01*
X0104300Y0139700D01*
X0114300Y0139700D01*
X0089300Y0144700D02*
X0089300Y0159700D01*
X0066800Y0159700D01*
X0059300Y0152200D01*
X0059300Y0147200D01*
X0056800Y0144700D01*
X0051800Y0144700D01*
X0034300Y0127200D01*
X0034300Y0119700D01*
X0034300Y0099700D01*
X0044300Y0099700D02*
X0044300Y0119700D01*
X0054300Y0129700D01*
X0059300Y0129700D01*
X0059300Y0142200D01*
X0061800Y0144700D01*
X0066800Y0144700D01*
X0071800Y0149700D01*
X0074300Y0149700D01*
X0079300Y0152200D02*
X0079300Y0144700D01*
X0071800Y0144700D01*
X0069300Y0142200D01*
X0064300Y0139700D02*
X0064300Y0129700D01*
X0059300Y0124700D01*
X0054300Y0119700D02*
X0054300Y0099700D01*
X0074300Y0099700D02*
X0074300Y0119700D01*
X0104300Y0119700D02*
X0104300Y0099700D01*
X0084300Y0139700D02*
X0089300Y0144700D01*
X0079300Y0152200D02*
X0076800Y0154700D01*
X0069300Y0154700D01*
X0064300Y0149700D01*
X0054300Y0139700D02*
X0039300Y0124700D01*
X0039300Y0084800D01*
X0039100Y0084800D01*
X0041700Y0084800D02*
X0041800Y0084700D01*
X0034300Y0149700D02*
X0032800Y0149700D01*
X0026800Y0149700D02*
X0025800Y0149700D01*
D19*
X0027400Y0149700D01*
X0027400Y0158300D01*
X0054300Y0158300D01*
X0054300Y0149700D01*
X0032800Y0149700D02*
X0032800Y0140700D01*
X0024000Y0131900D01*
X0024000Y0090800D01*
X0030000Y0084800D01*
X0039100Y0084800D01*
X0041700Y0084800D01*
X0041800Y0084700D02*
X0144300Y0084700D01*
X0207400Y0084700D01*
X0209300Y0086600D01*
X0209300Y0110883D01*
X0208474Y0111709D02*
X0208474Y0128974D01*
X0208500Y0129000D02*
X0215200Y0129000D01*
X0217200Y0129000D02*
X0224300Y0121900D01*
X0224300Y0095800D01*
X0224300Y0069000D01*
X0210400Y0069000D01*
X0199500Y0069900D02*
X0174500Y0069900D01*
X0144300Y0039700D01*
X0144300Y0019700D01*
X0144300Y0015400D02*
X0149100Y0010600D01*
X0185100Y0010600D01*
X0196063Y0021563D01*
X0196063Y0024000D02*
X0234600Y0024000D01*
X0236321Y0025721D01*
X0236321Y0069000D01*
X0236321Y0117279D01*
X0232900Y0120700D01*
X0232900Y0135800D01*
X0232900Y0141200D01*
X0224000Y0150100D01*
X0223800Y0149900D02*
X0210200Y0149900D01*
X0210000Y0149700D02*
X0195600Y0149700D01*
X0195600Y0159700D02*
X0188000Y0159700D01*
X0185701Y0159688D01*
X0185701Y0135499D01*
X0192100Y0129100D01*
X0196700Y0129100D01*
X0196800Y0129000D02*
X0208500Y0129000D01*
X0215200Y0136000D02*
X0232700Y0136000D01*
X0215100Y0136100D02*
X0196700Y0136100D01*
X0184300Y0125800D02*
X0179895Y0130205D01*
X0179895Y0149683D01*
X0169500Y0149600D01*
X0152400Y0149700D01*
X0134300Y0149700D01*
X0114300Y0149700D01*
X0114300Y0159700D02*
X0134300Y0159700D01*
X0152400Y0159700D01*
X0169500Y0159600D01*
X0185701Y0159688D01*
X0195600Y0159700D02*
X0210000Y0159700D01*
X0210400Y0160100D01*
X0224000Y0160100D01*
X0184300Y0125800D02*
X0184300Y0108563D01*
X0195963Y0096900D01*
X0224300Y0095800D02*
X0224785Y0095800D01*
X0224785Y0097000D01*
X0224885Y0082300D02*
X0223700Y0082300D01*
X0224885Y0082300D02*
X0224885Y0067815D01*
X0224885Y0053009D01*
X0224885Y0038300D01*
X0224885Y0053009D02*
X0208574Y0053009D01*
X0177609Y0053009D01*
X0164300Y0039700D01*
X0164300Y0019700D01*
X0196063Y0024000D02*
X0196063Y0029037D01*
X0196063Y0038200D01*
X0144300Y0084700D02*
X0144300Y0099700D01*
X0044300Y0069700D02*
X0044300Y0039700D01*
X0044300Y0069700D02*
X0029400Y0069700D01*
X0017000Y0082100D01*
X0017000Y0131900D01*
X0017000Y0139900D01*
X0026800Y0149700D01*
D20*
X0005323Y0150558D02*
X0005495Y0005398D01*
X0219316Y0005310D01*
X0218190Y0007261D01*
X0217494Y0009856D01*
X0217494Y0012544D01*
X0218190Y0015139D01*
X0219534Y0017466D01*
X0221434Y0019366D01*
X0223397Y0020500D01*
X0199411Y0020500D01*
X0199030Y0019580D01*
X0187083Y0007633D01*
X0185796Y0007100D01*
X0148404Y0007100D01*
X0147117Y0007633D01*
X0146133Y0008617D01*
X0142685Y0012065D01*
X0141524Y0012546D01*
X0140146Y0013924D01*
X0139400Y0015725D01*
X0139400Y0023675D01*
X0140146Y0025476D01*
X0140800Y0026130D01*
X0140800Y0036872D01*
X0140506Y0037165D01*
X0139825Y0038810D01*
X0139825Y0040590D01*
X0140506Y0042235D01*
X0141765Y0043494D01*
X0143410Y0044175D01*
X0143825Y0044175D01*
X0172517Y0072867D01*
X0173804Y0073400D01*
X0195676Y0073400D01*
X0196246Y0074776D01*
X0197624Y0076154D01*
X0199425Y0076900D01*
X0201375Y0076900D01*
X0203176Y0076154D01*
X0204554Y0074776D01*
X0205300Y0072975D01*
X0205300Y0065025D01*
X0204554Y0063224D01*
X0203176Y0061846D01*
X0201375Y0061100D01*
X0199425Y0061100D01*
X0197624Y0061846D01*
X0196246Y0063224D01*
X0195500Y0065025D01*
X0195500Y0066400D01*
X0175950Y0066400D01*
X0153725Y0044175D01*
X0155190Y0044175D01*
X0156835Y0043494D01*
X0158094Y0042235D01*
X0158775Y0040590D01*
X0158775Y0038810D01*
X0158094Y0037165D01*
X0157200Y0036272D01*
X0157200Y0026730D01*
X0158454Y0025476D01*
X0159200Y0023675D01*
X0159200Y0015725D01*
X0158527Y0014100D01*
X0160874Y0014100D01*
X0160622Y0014446D01*
X0160315Y0015049D01*
X0160106Y0015693D01*
X0160000Y0016362D01*
X0160000Y0019400D01*
X0164000Y0019400D01*
X0164000Y0020000D01*
X0164000Y0027000D01*
X0163962Y0027000D01*
X0163293Y0026894D01*
X0162649Y0026685D01*
X0162046Y0026378D01*
X0161499Y0025980D01*
X0161020Y0025501D01*
X0160622Y0024954D01*
X0160315Y0024351D01*
X0160106Y0023707D01*
X0160000Y0023038D01*
X0160000Y0020000D01*
X0164000Y0020000D01*
X0164600Y0020000D01*
X0164600Y0027000D01*
X0164638Y0027000D01*
X0165307Y0026894D01*
X0165951Y0026685D01*
X0166554Y0026378D01*
X0167101Y0025980D01*
X0167580Y0025501D01*
X0167978Y0024954D01*
X0168285Y0024351D01*
X0168494Y0023707D01*
X0168600Y0023038D01*
X0168600Y0020000D01*
X0164600Y0020000D01*
X0164600Y0019400D01*
X0168600Y0019400D01*
X0168600Y0016362D01*
X0168494Y0015693D01*
X0168285Y0015049D01*
X0167978Y0014446D01*
X0167726Y0014100D01*
X0170073Y0014100D01*
X0169400Y0015725D01*
X0169400Y0023675D01*
X0170146Y0025476D01*
X0171400Y0026730D01*
X0171400Y0036272D01*
X0170506Y0037165D01*
X0169825Y0038810D01*
X0169825Y0040590D01*
X0170506Y0042235D01*
X0171765Y0043494D01*
X0173410Y0044175D01*
X0175190Y0044175D01*
X0176835Y0043494D01*
X0178094Y0042235D01*
X0178775Y0040590D01*
X0178775Y0038810D01*
X0178094Y0037165D01*
X0177200Y0036272D01*
X0177200Y0026730D01*
X0178454Y0025476D01*
X0179200Y0023675D01*
X0179200Y0015725D01*
X0178527Y0014100D01*
X0183650Y0014100D01*
X0192648Y0023098D01*
X0192563Y0023304D01*
X0192563Y0028579D01*
X0192126Y0028696D01*
X0189801Y0030039D01*
X0187902Y0031938D01*
X0186559Y0034263D01*
X0185864Y0036857D01*
X0185864Y0039543D01*
X0186559Y0042137D01*
X0187902Y0044462D01*
X0189801Y0046361D01*
X0192126Y0047704D01*
X0194720Y0048399D01*
X0197406Y0048399D01*
X0200000Y0047704D01*
X0201449Y0046867D01*
X0200896Y0047561D01*
X0200334Y0048455D01*
X0199876Y0049407D01*
X0199527Y0050403D01*
X0199292Y0051432D01*
X0199174Y0052482D01*
X0199174Y0052709D01*
X0208274Y0052709D01*
X0208874Y0052709D01*
X0208874Y0043609D01*
X0209102Y0043609D01*
X0210151Y0043728D01*
X0211180Y0043963D01*
X0212177Y0044311D01*
X0213128Y0044769D01*
X0214022Y0045331D01*
X0214848Y0045989D01*
X0215594Y0046736D01*
X0216252Y0047561D01*
X0216814Y0048455D01*
X0217272Y0049407D01*
X0217621Y0050403D01*
X0217856Y0051432D01*
X0217974Y0052482D01*
X0217974Y0052709D01*
X0208874Y0052709D01*
X0208874Y0053309D01*
X0217974Y0053309D01*
X0217974Y0053537D01*
X0217856Y0054586D01*
X0217621Y0055616D01*
X0217272Y0056612D01*
X0216814Y0057564D01*
X0216252Y0058458D01*
X0215594Y0059283D01*
X0214848Y0060030D01*
X0214022Y0060688D01*
X0213128Y0061249D01*
X0212177Y0061708D01*
X0211660Y0061888D01*
X0212051Y0062015D01*
X0212654Y0062322D01*
X0213201Y0062720D01*
X0213680Y0063199D01*
X0214078Y0063746D01*
X0214385Y0064349D01*
X0214594Y0064993D01*
X0214700Y0065662D01*
X0214700Y0068700D01*
X0210700Y0068700D01*
X0210700Y0069300D01*
X0210100Y0069300D01*
X0210100Y0076300D01*
X0210062Y0076300D01*
X0209393Y0076194D01*
X0208749Y0075985D01*
X0208146Y0075678D01*
X0207599Y0075280D01*
X0207120Y0074801D01*
X0206722Y0074254D01*
X0206415Y0073651D01*
X0206206Y0073007D01*
X0206100Y0072338D01*
X0206100Y0069300D01*
X0210100Y0069300D01*
X0210100Y0068700D01*
X0206100Y0068700D01*
X0206100Y0065662D01*
X0206206Y0064993D01*
X0206415Y0064349D01*
X0206722Y0063746D01*
X0207120Y0063199D01*
X0207599Y0062720D01*
X0208029Y0062408D01*
X0206997Y0062291D01*
X0205968Y0062056D01*
X0204971Y0061708D01*
X0204020Y0061249D01*
X0203126Y0060688D01*
X0202300Y0060030D01*
X0201554Y0059283D01*
X0200896Y0058458D01*
X0200334Y0057564D01*
X0199876Y0056612D01*
X0199527Y0055616D01*
X0199292Y0054586D01*
X0199174Y0053537D01*
X0199174Y0053309D01*
X0208274Y0053309D01*
X0208274Y0052709D01*
X0208274Y0043609D01*
X0208046Y0043609D01*
X0206997Y0043728D01*
X0205968Y0043963D01*
X0204971Y0044311D01*
X0204020Y0044769D01*
X0203744Y0044943D01*
X0204224Y0044462D01*
X0205567Y0042137D01*
X0206262Y0039543D01*
X0206262Y0036857D01*
X0205567Y0034263D01*
X0204224Y0031938D01*
X0202325Y0030039D01*
X0200000Y0028696D01*
X0199563Y0028579D01*
X0199563Y0027500D01*
X0232821Y0027500D01*
X0232821Y0033262D01*
X0232563Y0032852D01*
X0231905Y0032026D01*
X0231159Y0031280D01*
X0230333Y0030622D01*
X0229439Y0030060D01*
X0228488Y0029602D01*
X0227491Y0029253D01*
X0226462Y0029018D01*
X0225413Y0028900D01*
X0225185Y0028900D01*
X0225185Y0038000D01*
X0224585Y0038000D01*
X0215485Y0038000D01*
X0215485Y0037772D01*
X0215603Y0036723D01*
X0215838Y0035694D01*
X0216187Y0034697D01*
X0216645Y0033746D01*
X0217207Y0032852D01*
X0217865Y0032026D01*
X0218612Y0031280D01*
X0219437Y0030622D01*
X0220331Y0030060D01*
X0221282Y0029602D01*
X0222279Y0029253D01*
X0223308Y0029018D01*
X0224357Y0028900D01*
X0224585Y0028900D01*
X0224585Y0038000D01*
X0224585Y0038600D01*
X0215485Y0038600D01*
X0215485Y0038828D01*
X0215603Y0039877D01*
X0215838Y0040906D01*
X0216187Y0041903D01*
X0216645Y0042854D01*
X0217207Y0043748D01*
X0217865Y0044574D01*
X0218612Y0045320D01*
X0219437Y0045978D01*
X0220331Y0046540D01*
X0221282Y0046998D01*
X0222279Y0047347D01*
X0223308Y0047582D01*
X0224357Y0047700D01*
X0224585Y0047700D01*
X0224585Y0038600D01*
X0225185Y0038600D01*
X0225185Y0047700D01*
X0225413Y0047700D01*
X0226462Y0047582D01*
X0227491Y0047347D01*
X0228488Y0046998D01*
X0229439Y0046540D01*
X0230333Y0045978D01*
X0231159Y0045320D01*
X0231905Y0044574D01*
X0232563Y0043748D01*
X0232821Y0043338D01*
X0232821Y0061100D01*
X0232725Y0061100D01*
X0230924Y0061846D01*
X0229546Y0063224D01*
X0228800Y0065025D01*
X0228800Y0072975D01*
X0229546Y0074776D01*
X0230924Y0076154D01*
X0232725Y0076900D01*
X0232821Y0076900D01*
X0232821Y0092121D01*
X0232463Y0091552D01*
X0231805Y0090726D01*
X0231059Y0089980D01*
X0230233Y0089322D01*
X0229339Y0088760D01*
X0228388Y0088302D01*
X0227391Y0087953D01*
X0226362Y0087718D01*
X0225313Y0087600D01*
X0225085Y0087600D01*
X0225085Y0096700D01*
X0224485Y0096700D01*
X0215385Y0096700D01*
X0215385Y0096472D01*
X0215503Y0095423D01*
X0215738Y0094394D01*
X0216087Y0093397D01*
X0216545Y0092446D01*
X0217107Y0091552D01*
X0217765Y0090726D01*
X0218512Y0089980D01*
X0219337Y0089322D01*
X0220231Y0088760D01*
X0221182Y0088302D01*
X0222179Y0087953D01*
X0223208Y0087718D01*
X0224257Y0087600D01*
X0224485Y0087600D01*
X0224485Y0096700D01*
X0224485Y0097300D01*
X0215385Y0097300D01*
X0215385Y0097528D01*
X0215503Y0098577D01*
X0215738Y0099606D01*
X0216087Y0100603D01*
X0216545Y0101554D01*
X0217107Y0102448D01*
X0217765Y0103274D01*
X0218512Y0104020D01*
X0219337Y0104678D01*
X0220231Y0105240D01*
X0221182Y0105698D01*
X0222179Y0106047D01*
X0223208Y0106282D01*
X0224257Y0106400D01*
X0224485Y0106400D01*
X0224485Y0097300D01*
X0225085Y0097300D01*
X0225085Y0106400D01*
X0225313Y0106400D01*
X0226362Y0106282D01*
X0227391Y0106047D01*
X0228388Y0105698D01*
X0229339Y0105240D01*
X0230233Y0104678D01*
X0231059Y0104020D01*
X0231805Y0103274D01*
X0232463Y0102448D01*
X0232821Y0101878D01*
X0232821Y0115829D01*
X0229933Y0118717D01*
X0229400Y0120004D01*
X0229400Y0132500D01*
X0217781Y0132500D01*
X0217636Y0132355D01*
X0217241Y0132191D01*
X0218900Y0130533D01*
X0218900Y0129300D01*
X0215500Y0129300D01*
X0215500Y0128700D01*
X0218900Y0128700D01*
X0218900Y0127467D01*
X0216733Y0125300D01*
X0215500Y0125300D01*
X0215500Y0128700D01*
X0214900Y0128700D01*
X0214900Y0125300D01*
X0213667Y0125300D01*
X0211500Y0127467D01*
X0211500Y0128700D01*
X0214900Y0128700D01*
X0214900Y0129300D01*
X0211500Y0129300D01*
X0211500Y0130533D01*
X0213159Y0132191D01*
X0212764Y0132355D01*
X0212519Y0132600D01*
X0199281Y0132600D01*
X0199136Y0132455D01*
X0198741Y0132291D01*
X0200400Y0130633D01*
X0200400Y0129400D01*
X0197000Y0129400D01*
X0197000Y0128800D01*
X0200400Y0128800D01*
X0200400Y0127567D01*
X0198233Y0125400D01*
X0197000Y0125400D01*
X0197000Y0128800D01*
X0196400Y0128800D01*
X0196400Y0125400D01*
X0195167Y0125400D01*
X0193000Y0127567D01*
X0193000Y0128800D01*
X0196400Y0128800D01*
X0196400Y0129400D01*
X0193000Y0129400D01*
X0193000Y0130633D01*
X0194659Y0132291D01*
X0194264Y0132455D01*
X0193055Y0133664D01*
X0192400Y0135245D01*
X0192400Y0136955D01*
X0193055Y0138536D01*
X0194264Y0139745D01*
X0195845Y0140400D01*
X0197555Y0140400D01*
X0199136Y0139745D01*
X0199281Y0139600D01*
X0212719Y0139600D01*
X0212764Y0139645D01*
X0214345Y0140300D01*
X0216055Y0140300D01*
X0217636Y0139645D01*
X0217781Y0139500D01*
X0229400Y0139500D01*
X0229400Y0139750D01*
X0223950Y0145200D01*
X0220025Y0145200D01*
X0218224Y0145946D01*
X0217770Y0146400D01*
X0216630Y0146400D01*
X0215976Y0145746D01*
X0214175Y0145000D01*
X0206225Y0145000D01*
X0204424Y0145746D01*
X0203970Y0146200D01*
X0202030Y0146200D01*
X0201376Y0145546D01*
X0199575Y0144800D01*
X0191625Y0144800D01*
X0189824Y0145546D01*
X0188446Y0146924D01*
X0187700Y0148725D01*
X0187700Y0150675D01*
X0188446Y0152476D01*
X0189824Y0153854D01*
X0191625Y0154600D01*
X0199575Y0154600D01*
X0201376Y0153854D01*
X0202030Y0153200D01*
X0203570Y0153200D01*
X0204424Y0154054D01*
X0206225Y0154800D01*
X0214175Y0154800D01*
X0215976Y0154054D01*
X0216630Y0153400D01*
X0217370Y0153400D01*
X0218224Y0154254D01*
X0220025Y0155000D01*
X0227975Y0155000D01*
X0229776Y0154254D01*
X0231154Y0152876D01*
X0231900Y0151075D01*
X0239244Y0151075D01*
X0239244Y0151673D02*
X0231652Y0151673D01*
X0231900Y0151075D02*
X0231900Y0149125D01*
X0231321Y0147728D01*
X0234883Y0144167D01*
X0235867Y0143183D01*
X0236400Y0141896D01*
X0236400Y0122150D01*
X0238304Y0120246D01*
X0239282Y0119268D01*
X0239226Y0166297D01*
X0096826Y0166180D01*
X0097200Y0165277D01*
X0097200Y0141623D01*
X0096758Y0140557D01*
X0095943Y0139741D01*
X0088443Y0132241D01*
X0087377Y0131800D01*
X0078723Y0131800D01*
X0077657Y0132241D01*
X0076841Y0133057D01*
X0075099Y0134800D01*
X0072270Y0134800D01*
X0072200Y0134870D01*
X0072200Y0132600D01*
X0074877Y0132600D01*
X0075943Y0132158D01*
X0081386Y0126715D01*
X0081524Y0126854D01*
X0083325Y0127600D01*
X0085275Y0127600D01*
X0087076Y0126854D01*
X0087214Y0126715D01*
X0102657Y0142158D01*
X0103723Y0142600D01*
X0107270Y0142600D01*
X0108524Y0143854D01*
X0110325Y0144600D01*
X0118275Y0144600D01*
X0120076Y0143854D01*
X0121454Y0142476D01*
X0122200Y0140675D01*
X0122200Y0138725D01*
X0121734Y0137600D01*
X0126866Y0137600D01*
X0126400Y0138725D01*
X0126400Y0140675D01*
X0127146Y0142476D01*
X0128524Y0143854D01*
X0130325Y0144600D01*
X0138275Y0144600D01*
X0140076Y0143854D01*
X0141454Y0142476D01*
X0142200Y0140675D01*
X0142200Y0138725D01*
X0141734Y0137600D01*
X0144966Y0137600D01*
X0144500Y0138725D01*
X0144500Y0140675D01*
X0145246Y0142476D01*
X0146624Y0143854D01*
X0148425Y0144600D01*
X0156375Y0144600D01*
X0158176Y0143854D01*
X0159554Y0142476D01*
X0160300Y0140675D01*
X0160300Y0138725D01*
X0159554Y0136924D01*
X0158176Y0135546D01*
X0156375Y0134800D01*
X0155300Y0134800D01*
X0155300Y0134123D01*
X0154858Y0133057D01*
X0154401Y0132600D01*
X0166600Y0132600D01*
X0166600Y0134700D01*
X0165525Y0134700D01*
X0163724Y0135446D01*
X0162346Y0136824D01*
X0161600Y0138625D01*
X0161600Y0140575D01*
X0162346Y0142376D01*
X0163724Y0143754D01*
X0165525Y0144500D01*
X0173475Y0144500D01*
X0175276Y0143754D01*
X0176395Y0142634D01*
X0176395Y0146155D01*
X0175981Y0146152D01*
X0175276Y0145446D01*
X0173475Y0144700D01*
X0165525Y0144700D01*
X0163724Y0145446D01*
X0163033Y0146138D01*
X0158792Y0146163D01*
X0158176Y0145546D01*
X0156375Y0144800D01*
X0148425Y0144800D01*
X0146624Y0145546D01*
X0145970Y0146200D01*
X0140730Y0146200D01*
X0140076Y0145546D01*
X0138275Y0144800D01*
X0130325Y0144800D01*
X0128524Y0145546D01*
X0127870Y0146200D01*
X0120730Y0146200D01*
X0120076Y0145546D01*
X0118275Y0144800D01*
X0110325Y0144800D01*
X0108524Y0145546D01*
X0107146Y0146924D01*
X0106400Y0148725D01*
X0106400Y0150675D01*
X0107146Y0152476D01*
X0108524Y0153854D01*
X0110325Y0154600D01*
X0118275Y0154600D01*
X0120076Y0153854D01*
X0120730Y0153200D01*
X0127870Y0153200D01*
X0128524Y0153854D01*
X0130325Y0154600D01*
X0138275Y0154600D01*
X0140076Y0153854D01*
X0140730Y0153200D01*
X0145970Y0153200D01*
X0146624Y0153854D01*
X0148425Y0154600D01*
X0156375Y0154600D01*
X0158176Y0153854D01*
X0158867Y0153162D01*
X0163108Y0153137D01*
X0163724Y0153754D01*
X0165525Y0154500D01*
X0173475Y0154500D01*
X0175276Y0153754D01*
X0175878Y0153151D01*
X0179186Y0153178D01*
X0179199Y0153183D01*
X0179881Y0153183D01*
X0180564Y0153189D01*
X0180577Y0153183D01*
X0180592Y0153183D01*
X0181222Y0152922D01*
X0181854Y0152666D01*
X0181864Y0152656D01*
X0181878Y0152650D01*
X0182360Y0152168D01*
X0182847Y0151689D01*
X0182852Y0151676D01*
X0182862Y0151666D01*
X0183124Y0151035D01*
X0183390Y0150407D01*
X0183390Y0150393D01*
X0183395Y0150379D01*
X0183395Y0149697D01*
X0183401Y0149015D01*
X0183395Y0149001D01*
X0183395Y0131654D01*
X0187267Y0127783D01*
X0187800Y0126496D01*
X0187800Y0110013D01*
X0191635Y0106178D01*
X0192026Y0106404D01*
X0194620Y0107099D01*
X0197306Y0107099D01*
X0199900Y0106404D01*
X0201349Y0105567D01*
X0200796Y0106261D01*
X0200234Y0107155D01*
X0199776Y0108107D01*
X0199427Y0109103D01*
X0199192Y0110132D01*
X0199074Y0111182D01*
X0199074Y0111409D01*
X0208174Y0111409D01*
X0208774Y0111409D01*
X0208774Y0102309D01*
X0209002Y0102309D01*
X0210051Y0102428D01*
X0211080Y0102663D01*
X0212077Y0103011D01*
X0213028Y0103469D01*
X0213922Y0104031D01*
X0214748Y0104689D01*
X0215494Y0105436D01*
X0216152Y0106261D01*
X0216714Y0107155D01*
X0217172Y0108107D01*
X0217521Y0109103D01*
X0217756Y0110132D01*
X0217874Y0111182D01*
X0217874Y0111409D01*
X0208774Y0111409D01*
X0208774Y0112009D01*
X0217874Y0112009D01*
X0217874Y0112237D01*
X0217756Y0113286D01*
X0217521Y0114316D01*
X0217172Y0115312D01*
X0216714Y0116264D01*
X0216152Y0117158D01*
X0215494Y0117983D01*
X0214748Y0118730D01*
X0213922Y0119388D01*
X0213028Y0119949D01*
X0212077Y0120408D01*
X0211080Y0120756D01*
X0210051Y0120991D01*
X0209002Y0121109D01*
X0208774Y0121109D01*
X0208774Y0112009D01*
X0208174Y0112009D01*
X0208174Y0111409D01*
X0208174Y0102309D01*
X0207946Y0102309D01*
X0206897Y0102428D01*
X0205868Y0102663D01*
X0204871Y0103011D01*
X0203920Y0103469D01*
X0203644Y0103643D01*
X0204124Y0103162D01*
X0205467Y0100837D01*
X0206162Y0098243D01*
X0206162Y0095557D01*
X0205467Y0092963D01*
X0204124Y0090638D01*
X0202225Y0088739D01*
X0199900Y0087396D01*
X0197306Y0086701D01*
X0194620Y0086701D01*
X0192026Y0087396D01*
X0189701Y0088739D01*
X0187802Y0090638D01*
X0186459Y0092963D01*
X0185764Y0095557D01*
X0185764Y0098243D01*
X0186459Y0100837D01*
X0186685Y0101228D01*
X0182317Y0105596D01*
X0182317Y0105596D01*
X0181333Y0106580D01*
X0180800Y0107867D01*
X0180800Y0124350D01*
X0176928Y0128222D01*
X0176395Y0129508D01*
X0176395Y0136566D01*
X0175276Y0135446D01*
X0173475Y0134700D01*
X0172400Y0134700D01*
X0172400Y0129123D01*
X0171958Y0128057D01*
X0171143Y0127241D01*
X0170077Y0126800D01*
X0167130Y0126800D01*
X0168454Y0125476D01*
X0169200Y0123675D01*
X0169200Y0115725D01*
X0168454Y0113924D01*
X0167200Y0112670D01*
X0167200Y0103128D01*
X0168094Y0102235D01*
X0168775Y0100590D01*
X0168775Y0098810D01*
X0168094Y0097165D01*
X0166835Y0095906D01*
X0165190Y0095225D01*
X0163410Y0095225D01*
X0161765Y0095906D01*
X0160506Y0097165D01*
X0159825Y0098810D01*
X0159825Y0100590D01*
X0160506Y0102235D01*
X0161400Y0103128D01*
X0161400Y0112670D01*
X0160146Y0113924D01*
X0159400Y0115725D01*
X0159400Y0123675D01*
X0160146Y0125476D01*
X0161470Y0126800D01*
X0157130Y0126800D01*
X0158454Y0125476D01*
X0159200Y0123675D01*
X0159200Y0115725D01*
X0158454Y0113924D01*
X0157200Y0112670D01*
X0157200Y0103128D01*
X0158094Y0102235D01*
X0158775Y0100590D01*
X0158775Y0098810D01*
X0158094Y0097165D01*
X0156835Y0095906D01*
X0155190Y0095225D01*
X0153410Y0095225D01*
X0151765Y0095906D01*
X0150506Y0097165D01*
X0149825Y0098810D01*
X0149825Y0100590D01*
X0150506Y0102235D01*
X0151400Y0103128D01*
X0151400Y0112670D01*
X0150146Y0113924D01*
X0149400Y0115725D01*
X0149400Y0123675D01*
X0150146Y0125476D01*
X0151470Y0126800D01*
X0145597Y0126800D01*
X0145951Y0126685D01*
X0146554Y0126378D01*
X0147101Y0125980D01*
X0147580Y0125501D01*
X0147978Y0124954D01*
X0148285Y0124351D01*
X0148494Y0123707D01*
X0148600Y0123038D01*
X0148600Y0120000D01*
X0144600Y0120000D01*
X0144600Y0119400D01*
X0148600Y0119400D01*
X0148600Y0116362D01*
X0148494Y0115693D01*
X0148285Y0115049D01*
X0147978Y0114446D01*
X0147580Y0113899D01*
X0147101Y0113420D01*
X0146554Y0113022D01*
X0145951Y0112715D01*
X0145307Y0112506D01*
X0144638Y0112400D01*
X0144600Y0112400D01*
X0144600Y0119400D01*
X0144000Y0119400D01*
X0144000Y0112400D01*
X0143962Y0112400D01*
X0143293Y0112506D01*
X0142649Y0112715D01*
X0142046Y0113022D01*
X0141499Y0113420D01*
X0141020Y0113899D01*
X0140622Y0114446D01*
X0140315Y0115049D01*
X0140106Y0115693D01*
X0140000Y0116362D01*
X0140000Y0119400D01*
X0144000Y0119400D01*
X0144000Y0120000D01*
X0140000Y0120000D01*
X0140000Y0123038D01*
X0140106Y0123707D01*
X0140315Y0124351D01*
X0140622Y0124954D01*
X0141020Y0125501D01*
X0141499Y0125980D01*
X0142046Y0126378D01*
X0142649Y0126685D01*
X0143003Y0126800D01*
X0137130Y0126800D01*
X0138454Y0125476D01*
X0139200Y0123675D01*
X0139200Y0115725D01*
X0138454Y0113924D01*
X0137200Y0112670D01*
X0137200Y0103128D01*
X0138094Y0102235D01*
X0138775Y0100590D01*
X0138775Y0098810D01*
X0138094Y0097165D01*
X0136835Y0095906D01*
X0135190Y0095225D01*
X0133410Y0095225D01*
X0131765Y0095906D01*
X0130506Y0097165D01*
X0129825Y0098810D01*
X0129825Y0100590D01*
X0130506Y0102235D01*
X0131400Y0103128D01*
X0131400Y0112670D01*
X0130146Y0113924D01*
X0129400Y0115725D01*
X0129400Y0120699D01*
X0129200Y0120499D01*
X0129200Y0115725D01*
X0128454Y0113924D01*
X0127200Y0112670D01*
X0127200Y0103128D01*
X0128094Y0102235D01*
X0128775Y0100590D01*
X0128775Y0098810D01*
X0128094Y0097165D01*
X0126835Y0095906D01*
X0125190Y0095225D01*
X0123410Y0095225D01*
X0121765Y0095906D01*
X0120506Y0097165D01*
X0119825Y0098810D01*
X0119825Y0100590D01*
X0120506Y0102235D01*
X0121400Y0103128D01*
X0121400Y0112670D01*
X0120146Y0113924D01*
X0119400Y0115725D01*
X0119400Y0123675D01*
X0120146Y0125476D01*
X0121470Y0126800D01*
X0117130Y0126800D01*
X0118454Y0125476D01*
X0119200Y0123675D01*
X0119200Y0115725D01*
X0118454Y0113924D01*
X0117200Y0112670D01*
X0117200Y0103128D01*
X0118094Y0102235D01*
X0118775Y0100590D01*
X0118775Y0098810D01*
X0118094Y0097165D01*
X0116835Y0095906D01*
X0115190Y0095225D01*
X0113926Y0095225D01*
X0105943Y0087241D01*
X0104877Y0086800D01*
X0058723Y0086800D01*
X0057657Y0087241D01*
X0056841Y0088057D01*
X0056400Y0089123D01*
X0056400Y0095726D01*
X0055190Y0095225D01*
X0053410Y0095225D01*
X0051765Y0095906D01*
X0050506Y0097165D01*
X0049825Y0098810D01*
X0049825Y0100590D01*
X0050506Y0102235D01*
X0051400Y0103128D01*
X0051400Y0112670D01*
X0050146Y0113924D01*
X0049400Y0115725D01*
X0049400Y0120699D01*
X0049200Y0120499D01*
X0049200Y0115725D01*
X0048454Y0113924D01*
X0047200Y0112670D01*
X0047200Y0103128D01*
X0048094Y0102235D01*
X0048775Y0100590D01*
X0048775Y0098810D01*
X0048094Y0097165D01*
X0046835Y0095906D01*
X0045190Y0095225D01*
X0043410Y0095225D01*
X0041765Y0095906D01*
X0040506Y0097165D01*
X0039825Y0098810D01*
X0039825Y0100590D01*
X0040506Y0102235D01*
X0041400Y0103128D01*
X0041400Y0112670D01*
X0040146Y0113924D01*
X0039400Y0115725D01*
X0039400Y0123675D01*
X0040146Y0125476D01*
X0041524Y0126854D01*
X0043325Y0127600D01*
X0045275Y0127600D01*
X0047076Y0126854D01*
X0047214Y0126715D01*
X0052657Y0132158D01*
X0053723Y0132600D01*
X0056400Y0132600D01*
X0056400Y0135719D01*
X0056081Y0135400D01*
X0054600Y0135400D01*
X0054600Y0139400D01*
X0054000Y0139400D01*
X0054000Y0135400D01*
X0052519Y0135400D01*
X0050000Y0137919D01*
X0050000Y0138799D01*
X0037565Y0126364D01*
X0038454Y0125476D01*
X0039200Y0123675D01*
X0039200Y0115725D01*
X0038454Y0113924D01*
X0037200Y0112670D01*
X0037200Y0103128D01*
X0038094Y0102235D01*
X0038775Y0100590D01*
X0038775Y0098810D01*
X0038094Y0097165D01*
X0036835Y0095906D01*
X0035190Y0095225D01*
X0033410Y0095225D01*
X0031765Y0095906D01*
X0030506Y0097165D01*
X0029825Y0098810D01*
X0029825Y0100590D01*
X0030506Y0102235D01*
X0031400Y0103128D01*
X0031400Y0112670D01*
X0030146Y0113924D01*
X0029400Y0115725D01*
X0029400Y0123675D01*
X0030146Y0125476D01*
X0031400Y0126730D01*
X0031400Y0127777D01*
X0031841Y0128843D01*
X0032657Y0129658D01*
X0032657Y0129658D01*
X0050035Y0147036D01*
X0049400Y0147670D01*
X0049400Y0151730D01*
X0050800Y0153130D01*
X0050800Y0154800D01*
X0030900Y0154800D01*
X0030900Y0153033D01*
X0031267Y0153400D01*
X0032500Y0153400D01*
X0032500Y0150000D01*
X0033100Y0150000D01*
X0033100Y0153400D01*
X0034333Y0153400D01*
X0036500Y0151233D01*
X0036500Y0150000D01*
X0033100Y0150000D01*
X0033100Y0149400D01*
X0036500Y0149400D01*
X0036500Y0148167D01*
X0034333Y0146000D01*
X0033100Y0146000D01*
X0033100Y0149400D01*
X0032500Y0149400D01*
X0032500Y0146000D01*
X0031267Y0146000D01*
X0029959Y0147309D01*
X0029383Y0146733D01*
X0028583Y0146401D01*
X0028236Y0146055D01*
X0028011Y0145962D01*
X0020500Y0138450D01*
X0020500Y0134481D01*
X0020645Y0134336D01*
X0020809Y0133941D01*
X0022467Y0135600D01*
X0023700Y0135600D01*
X0023700Y0132200D01*
X0024300Y0132200D01*
X0024300Y0135600D01*
X0025533Y0135600D01*
X0027700Y0133433D01*
X0027700Y0132200D01*
X0024300Y0132200D01*
X0024300Y0131600D01*
X0027700Y0131600D01*
X0027700Y0130367D01*
X0025533Y0128200D01*
X0024300Y0128200D01*
X0024300Y0131600D01*
X0023700Y0131600D01*
X0023700Y0128200D01*
X0022467Y0128200D01*
X0020809Y0129859D01*
X0020645Y0129464D01*
X0020500Y0129319D01*
X0020500Y0083550D01*
X0030850Y0073200D01*
X0044996Y0073200D01*
X0046283Y0072667D01*
X0047267Y0071683D01*
X0047800Y0070396D01*
X0047800Y0042528D01*
X0048094Y0042235D01*
X0048775Y0040590D01*
X0048775Y0038810D01*
X0048094Y0037165D01*
X0047200Y0036272D01*
X0047200Y0026730D01*
X0048454Y0025476D01*
X0049200Y0023675D01*
X0049200Y0015725D01*
X0048454Y0013924D01*
X0047076Y0012546D01*
X0045275Y0011800D01*
X0043325Y0011800D01*
X0041524Y0012546D01*
X0040146Y0013924D01*
X0039400Y0015725D01*
X0039400Y0023675D01*
X0040146Y0025476D01*
X0041400Y0026730D01*
X0041400Y0036272D01*
X0040506Y0037165D01*
X0039825Y0038810D01*
X0039825Y0040590D01*
X0040506Y0042235D01*
X0040800Y0042528D01*
X0040800Y0066200D01*
X0028704Y0066200D01*
X0027417Y0066733D01*
X0014033Y0080117D01*
X0013500Y0081404D01*
X0013500Y0129319D01*
X0013355Y0129464D01*
X0013150Y0129958D01*
X0013150Y0048851D01*
X0019401Y0042600D01*
X0029825Y0042600D01*
X0029825Y0043062D01*
X0030938Y0044175D01*
X0037662Y0044175D01*
X0038775Y0043062D01*
X0038775Y0036338D01*
X0037662Y0035225D01*
X0037200Y0035225D01*
X0037200Y0026730D01*
X0038454Y0025476D01*
X0039200Y0023675D01*
X0039200Y0015725D01*
X0038454Y0013924D01*
X0037076Y0012546D01*
X0035275Y0011800D01*
X0033325Y0011800D01*
X0031524Y0012546D01*
X0030146Y0013924D01*
X0029400Y0015725D01*
X0029400Y0023675D01*
X0030146Y0025476D01*
X0031400Y0026730D01*
X0031400Y0035225D01*
X0030938Y0035225D01*
X0029825Y0036338D01*
X0029825Y0036800D01*
X0017623Y0036800D01*
X0016557Y0037241D01*
X0007791Y0046007D01*
X0007350Y0047073D01*
X0007350Y0141227D01*
X0007791Y0142293D01*
X0020000Y0154501D01*
X0020000Y0157963D01*
X0019410Y0155761D01*
X0018066Y0153434D01*
X0016166Y0151534D01*
X0013839Y0150190D01*
X0011244Y0149494D01*
X0008556Y0149494D01*
X0005961Y0150190D01*
X0005323Y0150558D01*
X0005324Y0150476D02*
X0005465Y0150476D01*
X0005324Y0149878D02*
X0007126Y0149878D01*
X0005325Y0149279D02*
X0014778Y0149279D01*
X0014179Y0148681D02*
X0005326Y0148681D01*
X0005326Y0148082D02*
X0013581Y0148082D01*
X0012982Y0147484D02*
X0005327Y0147484D01*
X0005328Y0146885D02*
X0012384Y0146885D01*
X0011785Y0146287D02*
X0005328Y0146287D01*
X0005329Y0145688D02*
X0011187Y0145688D01*
X0010588Y0145090D02*
X0005330Y0145090D01*
X0005331Y0144491D02*
X0009990Y0144491D01*
X0009391Y0143893D02*
X0005331Y0143893D01*
X0005332Y0143294D02*
X0008793Y0143294D01*
X0008194Y0142696D02*
X0005333Y0142696D01*
X0005333Y0142097D02*
X0007710Y0142097D01*
X0007463Y0141499D02*
X0005334Y0141499D01*
X0005335Y0140900D02*
X0007350Y0140900D01*
X0007350Y0140302D02*
X0005336Y0140302D01*
X0005336Y0139703D02*
X0007350Y0139703D01*
X0007350Y0139105D02*
X0005337Y0139105D01*
X0005338Y0138506D02*
X0007350Y0138506D01*
X0007350Y0137908D02*
X0005338Y0137908D01*
X0005339Y0137309D02*
X0007350Y0137309D01*
X0007350Y0136710D02*
X0005340Y0136710D01*
X0005341Y0136112D02*
X0007350Y0136112D01*
X0007350Y0135513D02*
X0005341Y0135513D01*
X0005342Y0134915D02*
X0007350Y0134915D01*
X0007350Y0134316D02*
X0005343Y0134316D01*
X0005343Y0133718D02*
X0007350Y0133718D01*
X0007350Y0133119D02*
X0005344Y0133119D01*
X0005345Y0132521D02*
X0007350Y0132521D01*
X0007350Y0131922D02*
X0005345Y0131922D01*
X0005346Y0131324D02*
X0007350Y0131324D01*
X0007350Y0130725D02*
X0005347Y0130725D01*
X0005348Y0130127D02*
X0007350Y0130127D01*
X0007350Y0129528D02*
X0005348Y0129528D01*
X0005349Y0128930D02*
X0007350Y0128930D01*
X0007350Y0128331D02*
X0005350Y0128331D01*
X0005350Y0127733D02*
X0007350Y0127733D01*
X0007350Y0127134D02*
X0005351Y0127134D01*
X0005352Y0126536D02*
X0007350Y0126536D01*
X0007350Y0125937D02*
X0005353Y0125937D01*
X0005353Y0125339D02*
X0007350Y0125339D01*
X0007350Y0124740D02*
X0005354Y0124740D01*
X0005355Y0124142D02*
X0007350Y0124142D01*
X0007350Y0123543D02*
X0005355Y0123543D01*
X0005356Y0122945D02*
X0007350Y0122945D01*
X0007350Y0122346D02*
X0005357Y0122346D01*
X0005357Y0121748D02*
X0007350Y0121748D01*
X0007350Y0121149D02*
X0005358Y0121149D01*
X0005359Y0120551D02*
X0007350Y0120551D01*
X0007350Y0119952D02*
X0005360Y0119952D01*
X0005360Y0119354D02*
X0007350Y0119354D01*
X0007350Y0118755D02*
X0005361Y0118755D01*
X0005362Y0118157D02*
X0007350Y0118157D01*
X0007350Y0117558D02*
X0005362Y0117558D01*
X0005363Y0116960D02*
X0007350Y0116960D01*
X0007350Y0116361D02*
X0005364Y0116361D01*
X0005365Y0115763D02*
X0007350Y0115763D01*
X0007350Y0115164D02*
X0005365Y0115164D01*
X0005366Y0114566D02*
X0007350Y0114566D01*
X0007350Y0113967D02*
X0005367Y0113967D01*
X0005367Y0113369D02*
X0007350Y0113369D01*
X0007350Y0112770D02*
X0005368Y0112770D01*
X0005369Y0112172D02*
X0007350Y0112172D01*
X0007350Y0111573D02*
X0005369Y0111573D01*
X0005370Y0110974D02*
X0007350Y0110974D01*
X0007350Y0110376D02*
X0005371Y0110376D01*
X0005372Y0109777D02*
X0007350Y0109777D01*
X0007350Y0109179D02*
X0005372Y0109179D01*
X0005373Y0108580D02*
X0007350Y0108580D01*
X0007350Y0107982D02*
X0005374Y0107982D01*
X0005374Y0107383D02*
X0007350Y0107383D01*
X0007350Y0106785D02*
X0005375Y0106785D01*
X0005376Y0106186D02*
X0007350Y0106186D01*
X0007350Y0105588D02*
X0005377Y0105588D01*
X0005377Y0104989D02*
X0007350Y0104989D01*
X0007350Y0104391D02*
X0005378Y0104391D01*
X0005379Y0103792D02*
X0007350Y0103792D01*
X0007350Y0103194D02*
X0005379Y0103194D01*
X0005380Y0102595D02*
X0007350Y0102595D01*
X0007350Y0101997D02*
X0005381Y0101997D01*
X0005382Y0101398D02*
X0007350Y0101398D01*
X0007350Y0100800D02*
X0005382Y0100800D01*
X0005383Y0100201D02*
X0007350Y0100201D01*
X0007350Y0099603D02*
X0005384Y0099603D01*
X0005384Y0099004D02*
X0007350Y0099004D01*
X0007350Y0098406D02*
X0005385Y0098406D01*
X0005386Y0097807D02*
X0007350Y0097807D01*
X0007350Y0097209D02*
X0005386Y0097209D01*
X0005387Y0096610D02*
X0007350Y0096610D01*
X0007350Y0096012D02*
X0005388Y0096012D01*
X0005389Y0095413D02*
X0007350Y0095413D01*
X0007350Y0094815D02*
X0005389Y0094815D01*
X0005390Y0094216D02*
X0007350Y0094216D01*
X0007350Y0093618D02*
X0005391Y0093618D01*
X0005391Y0093019D02*
X0007350Y0093019D01*
X0007350Y0092421D02*
X0005392Y0092421D01*
X0005393Y0091822D02*
X0007350Y0091822D01*
X0007350Y0091224D02*
X0005394Y0091224D01*
X0005394Y0090625D02*
X0007350Y0090625D01*
X0007350Y0090027D02*
X0005395Y0090027D01*
X0005396Y0089428D02*
X0007350Y0089428D01*
X0007350Y0088830D02*
X0005396Y0088830D01*
X0005397Y0088231D02*
X0007350Y0088231D01*
X0007350Y0087633D02*
X0005398Y0087633D01*
X0005398Y0087034D02*
X0007350Y0087034D01*
X0007350Y0086436D02*
X0005399Y0086436D01*
X0005400Y0085837D02*
X0007350Y0085837D01*
X0007350Y0085239D02*
X0005401Y0085239D01*
X0005401Y0084640D02*
X0007350Y0084640D01*
X0007350Y0084041D02*
X0005402Y0084041D01*
X0005403Y0083443D02*
X0007350Y0083443D01*
X0007350Y0082844D02*
X0005403Y0082844D01*
X0005404Y0082246D02*
X0007350Y0082246D01*
X0007350Y0081647D02*
X0005405Y0081647D01*
X0005406Y0081049D02*
X0007350Y0081049D01*
X0007350Y0080450D02*
X0005406Y0080450D01*
X0005407Y0079852D02*
X0007350Y0079852D01*
X0007350Y0079253D02*
X0005408Y0079253D01*
X0005408Y0078655D02*
X0007350Y0078655D01*
X0007350Y0078056D02*
X0005409Y0078056D01*
X0005410Y0077458D02*
X0007350Y0077458D01*
X0007350Y0076859D02*
X0005410Y0076859D01*
X0005411Y0076261D02*
X0007350Y0076261D01*
X0007350Y0075662D02*
X0005412Y0075662D01*
X0005413Y0075064D02*
X0007350Y0075064D01*
X0007350Y0074465D02*
X0005413Y0074465D01*
X0005414Y0073867D02*
X0007350Y0073867D01*
X0007350Y0073268D02*
X0005415Y0073268D01*
X0005415Y0072670D02*
X0007350Y0072670D01*
X0007350Y0072071D02*
X0005416Y0072071D01*
X0005417Y0071473D02*
X0007350Y0071473D01*
X0007350Y0070874D02*
X0005418Y0070874D01*
X0005418Y0070276D02*
X0007350Y0070276D01*
X0007350Y0069677D02*
X0005419Y0069677D01*
X0005420Y0069079D02*
X0007350Y0069079D01*
X0007350Y0068480D02*
X0005420Y0068480D01*
X0005421Y0067882D02*
X0007350Y0067882D01*
X0007350Y0067283D02*
X0005422Y0067283D01*
X0005423Y0066685D02*
X0007350Y0066685D01*
X0007350Y0066086D02*
X0005423Y0066086D01*
X0005424Y0065488D02*
X0007350Y0065488D01*
X0007350Y0064889D02*
X0005425Y0064889D01*
X0005425Y0064291D02*
X0007350Y0064291D01*
X0007350Y0063692D02*
X0005426Y0063692D01*
X0005427Y0063094D02*
X0007350Y0063094D01*
X0007350Y0062495D02*
X0005427Y0062495D01*
X0005428Y0061897D02*
X0007350Y0061897D01*
X0007350Y0061298D02*
X0005429Y0061298D01*
X0005430Y0060700D02*
X0007350Y0060700D01*
X0007350Y0060101D02*
X0005430Y0060101D01*
X0005431Y0059503D02*
X0007350Y0059503D01*
X0007350Y0058904D02*
X0005432Y0058904D01*
X0005432Y0058305D02*
X0007350Y0058305D01*
X0007350Y0057707D02*
X0005433Y0057707D01*
X0005434Y0057108D02*
X0007350Y0057108D01*
X0007350Y0056510D02*
X0005435Y0056510D01*
X0005435Y0055911D02*
X0007350Y0055911D01*
X0007350Y0055313D02*
X0005436Y0055313D01*
X0005437Y0054714D02*
X0007350Y0054714D01*
X0007350Y0054116D02*
X0005437Y0054116D01*
X0005438Y0053517D02*
X0007350Y0053517D01*
X0007350Y0052919D02*
X0005439Y0052919D01*
X0005439Y0052320D02*
X0007350Y0052320D01*
X0007350Y0051722D02*
X0005440Y0051722D01*
X0005441Y0051123D02*
X0007350Y0051123D01*
X0007350Y0050525D02*
X0005442Y0050525D01*
X0005442Y0049926D02*
X0007350Y0049926D01*
X0007350Y0049328D02*
X0005443Y0049328D01*
X0005444Y0048729D02*
X0007350Y0048729D01*
X0007350Y0048131D02*
X0005444Y0048131D01*
X0005445Y0047532D02*
X0007350Y0047532D01*
X0007408Y0046934D02*
X0005446Y0046934D01*
X0005447Y0046335D02*
X0007656Y0046335D01*
X0008062Y0045737D02*
X0005447Y0045737D01*
X0005448Y0045138D02*
X0008661Y0045138D01*
X0009259Y0044540D02*
X0005449Y0044540D01*
X0005449Y0043941D02*
X0009858Y0043941D01*
X0010456Y0043343D02*
X0005450Y0043343D01*
X0005451Y0042744D02*
X0011055Y0042744D01*
X0011653Y0042146D02*
X0005452Y0042146D01*
X0005452Y0041547D02*
X0012252Y0041547D01*
X0012850Y0040949D02*
X0005453Y0040949D01*
X0005454Y0040350D02*
X0013449Y0040350D01*
X0014047Y0039752D02*
X0005454Y0039752D01*
X0005455Y0039153D02*
X0014646Y0039153D01*
X0015244Y0038555D02*
X0005456Y0038555D01*
X0005456Y0037956D02*
X0015843Y0037956D01*
X0016441Y0037358D02*
X0005457Y0037358D01*
X0005458Y0036759D02*
X0029825Y0036759D01*
X0030003Y0036161D02*
X0005459Y0036161D01*
X0005459Y0035562D02*
X0030601Y0035562D01*
X0031400Y0034964D02*
X0005460Y0034964D01*
X0005461Y0034365D02*
X0031400Y0034365D01*
X0031400Y0033767D02*
X0005461Y0033767D01*
X0005462Y0033168D02*
X0031400Y0033168D01*
X0031400Y0032570D02*
X0005463Y0032570D01*
X0005464Y0031971D02*
X0031400Y0031971D01*
X0031400Y0031372D02*
X0005464Y0031372D01*
X0005465Y0030774D02*
X0031400Y0030774D01*
X0031400Y0030175D02*
X0005466Y0030175D01*
X0005466Y0029577D02*
X0031400Y0029577D01*
X0031400Y0028978D02*
X0005467Y0028978D01*
X0005468Y0028380D02*
X0031400Y0028380D01*
X0031400Y0027781D02*
X0005468Y0027781D01*
X0005469Y0027183D02*
X0031400Y0027183D01*
X0031255Y0026584D02*
X0005470Y0026584D01*
X0005471Y0025986D02*
X0030656Y0025986D01*
X0030109Y0025387D02*
X0005471Y0025387D01*
X0005472Y0024789D02*
X0029862Y0024789D01*
X0029614Y0024190D02*
X0005473Y0024190D01*
X0005473Y0023592D02*
X0029400Y0023592D01*
X0029400Y0022993D02*
X0005474Y0022993D01*
X0005475Y0022395D02*
X0029400Y0022395D01*
X0029400Y0021796D02*
X0005476Y0021796D01*
X0005476Y0021198D02*
X0029400Y0021198D01*
X0029400Y0020599D02*
X0005477Y0020599D01*
X0005478Y0020001D02*
X0029400Y0020001D01*
X0029400Y0019402D02*
X0005478Y0019402D01*
X0005479Y0018804D02*
X0029400Y0018804D01*
X0029400Y0018205D02*
X0005480Y0018205D01*
X0005480Y0017607D02*
X0029400Y0017607D01*
X0029400Y0017008D02*
X0005481Y0017008D01*
X0005482Y0016410D02*
X0029400Y0016410D01*
X0029400Y0015811D02*
X0005483Y0015811D01*
X0005483Y0015213D02*
X0029612Y0015213D01*
X0029860Y0014614D02*
X0005484Y0014614D01*
X0005485Y0014016D02*
X0030108Y0014016D01*
X0030653Y0013417D02*
X0005485Y0013417D01*
X0005486Y0012819D02*
X0031252Y0012819D01*
X0032311Y0012220D02*
X0005487Y0012220D01*
X0005488Y0011622D02*
X0143129Y0011622D01*
X0143727Y0011023D02*
X0005488Y0011023D01*
X0005489Y0010425D02*
X0144326Y0010425D01*
X0144924Y0009826D02*
X0005490Y0009826D01*
X0005490Y0009228D02*
X0145523Y0009228D01*
X0146121Y0008629D02*
X0005491Y0008629D01*
X0005492Y0008031D02*
X0146720Y0008031D01*
X0147602Y0007432D02*
X0005493Y0007432D01*
X0005493Y0006834D02*
X0218437Y0006834D01*
X0218144Y0007432D02*
X0186598Y0007432D01*
X0187480Y0008031D02*
X0217984Y0008031D01*
X0217823Y0008629D02*
X0188079Y0008629D01*
X0188677Y0009228D02*
X0217663Y0009228D01*
X0217503Y0009826D02*
X0189276Y0009826D01*
X0189874Y0010425D02*
X0217494Y0010425D01*
X0217494Y0011023D02*
X0190473Y0011023D01*
X0191071Y0011622D02*
X0217494Y0011622D01*
X0217494Y0012220D02*
X0191670Y0012220D01*
X0192268Y0012819D02*
X0217568Y0012819D01*
X0217729Y0013417D02*
X0192867Y0013417D01*
X0193465Y0014016D02*
X0217889Y0014016D01*
X0218049Y0014614D02*
X0194064Y0014614D01*
X0194662Y0015213D02*
X0218232Y0015213D01*
X0218578Y0015811D02*
X0195261Y0015811D01*
X0195859Y0016410D02*
X0218924Y0016410D01*
X0219269Y0017008D02*
X0196458Y0017008D01*
X0197056Y0017607D02*
X0219674Y0017607D01*
X0220272Y0018205D02*
X0197655Y0018205D01*
X0198253Y0018804D02*
X0220871Y0018804D01*
X0221496Y0019402D02*
X0198852Y0019402D01*
X0199204Y0020001D02*
X0222532Y0020001D01*
X0223661Y0028978D02*
X0200489Y0028978D01*
X0199563Y0028380D02*
X0232821Y0028380D01*
X0232821Y0028978D02*
X0226109Y0028978D01*
X0225185Y0028978D02*
X0224585Y0028978D01*
X0224585Y0029577D02*
X0225185Y0029577D01*
X0225185Y0030175D02*
X0224585Y0030175D01*
X0224585Y0030774D02*
X0225185Y0030774D01*
X0225185Y0031372D02*
X0224585Y0031372D01*
X0224585Y0031971D02*
X0225185Y0031971D01*
X0225185Y0032570D02*
X0224585Y0032570D01*
X0224585Y0033168D02*
X0225185Y0033168D01*
X0225185Y0033767D02*
X0224585Y0033767D01*
X0224585Y0034365D02*
X0225185Y0034365D01*
X0225185Y0034964D02*
X0224585Y0034964D01*
X0224585Y0035562D02*
X0225185Y0035562D01*
X0225185Y0036161D02*
X0224585Y0036161D01*
X0224585Y0036759D02*
X0225185Y0036759D01*
X0225185Y0037358D02*
X0224585Y0037358D01*
X0224585Y0037956D02*
X0225185Y0037956D01*
X0224585Y0038555D02*
X0206262Y0038555D01*
X0206262Y0039153D02*
X0215522Y0039153D01*
X0215589Y0039752D02*
X0206206Y0039752D01*
X0206046Y0040350D02*
X0215711Y0040350D01*
X0215853Y0040949D02*
X0205885Y0040949D01*
X0205725Y0041547D02*
X0216062Y0041547D01*
X0216304Y0042146D02*
X0205562Y0042146D01*
X0205216Y0042744D02*
X0216592Y0042744D01*
X0216952Y0043343D02*
X0204871Y0043343D01*
X0204525Y0043941D02*
X0206061Y0043941D01*
X0204497Y0044540D02*
X0204147Y0044540D01*
X0201396Y0046934D02*
X0201334Y0046934D01*
X0200919Y0047532D02*
X0200297Y0047532D01*
X0200538Y0048131D02*
X0198407Y0048131D01*
X0200202Y0048729D02*
X0158279Y0048729D01*
X0157681Y0048131D02*
X0193719Y0048131D01*
X0191829Y0047532D02*
X0157082Y0047532D01*
X0156484Y0046934D02*
X0190792Y0046934D01*
X0189774Y0046335D02*
X0155885Y0046335D01*
X0155286Y0045737D02*
X0189176Y0045737D01*
X0188577Y0045138D02*
X0154688Y0045138D01*
X0154089Y0044540D02*
X0187979Y0044540D01*
X0187601Y0043941D02*
X0175754Y0043941D01*
X0176986Y0043343D02*
X0187255Y0043343D01*
X0186910Y0042744D02*
X0177584Y0042744D01*
X0178130Y0042146D02*
X0186564Y0042146D01*
X0186401Y0041547D02*
X0178378Y0041547D01*
X0178626Y0040949D02*
X0186241Y0040949D01*
X0186080Y0040350D02*
X0178775Y0040350D01*
X0178775Y0039752D02*
X0185920Y0039752D01*
X0185864Y0039153D02*
X0178775Y0039153D01*
X0178669Y0038555D02*
X0185864Y0038555D01*
X0185864Y0037956D02*
X0178421Y0037956D01*
X0178173Y0037358D02*
X0185864Y0037358D01*
X0185890Y0036759D02*
X0177687Y0036759D01*
X0177200Y0036161D02*
X0186050Y0036161D01*
X0186211Y0035562D02*
X0177200Y0035562D01*
X0177200Y0034964D02*
X0186371Y0034964D01*
X0186532Y0034365D02*
X0177200Y0034365D01*
X0177200Y0033767D02*
X0186846Y0033767D01*
X0187191Y0033168D02*
X0177200Y0033168D01*
X0177200Y0032570D02*
X0187537Y0032570D01*
X0187882Y0031971D02*
X0177200Y0031971D01*
X0177200Y0031372D02*
X0188467Y0031372D01*
X0189065Y0030774D02*
X0177200Y0030774D01*
X0177200Y0030175D02*
X0189664Y0030175D01*
X0190600Y0029577D02*
X0177200Y0029577D01*
X0177200Y0028978D02*
X0191637Y0028978D01*
X0192563Y0028380D02*
X0177200Y0028380D01*
X0177200Y0027781D02*
X0192563Y0027781D01*
X0192563Y0027183D02*
X0177200Y0027183D01*
X0177345Y0026584D02*
X0192563Y0026584D01*
X0192563Y0025986D02*
X0177944Y0025986D01*
X0178491Y0025387D02*
X0192563Y0025387D01*
X0192563Y0024789D02*
X0178738Y0024789D01*
X0178986Y0024190D02*
X0192563Y0024190D01*
X0192563Y0023592D02*
X0179200Y0023592D01*
X0179200Y0022993D02*
X0192544Y0022993D01*
X0191945Y0022395D02*
X0179200Y0022395D01*
X0179200Y0021796D02*
X0191347Y0021796D01*
X0190748Y0021198D02*
X0179200Y0021198D01*
X0179200Y0020599D02*
X0190150Y0020599D01*
X0189551Y0020001D02*
X0179200Y0020001D01*
X0179200Y0019402D02*
X0188953Y0019402D01*
X0188354Y0018804D02*
X0179200Y0018804D01*
X0179200Y0018205D02*
X0187756Y0018205D01*
X0187157Y0017607D02*
X0179200Y0017607D01*
X0179200Y0017008D02*
X0186558Y0017008D01*
X0185960Y0016410D02*
X0179200Y0016410D01*
X0179200Y0015811D02*
X0185361Y0015811D01*
X0184763Y0015213D02*
X0178988Y0015213D01*
X0178740Y0014614D02*
X0184164Y0014614D01*
X0169860Y0014614D02*
X0168063Y0014614D01*
X0168338Y0015213D02*
X0169612Y0015213D01*
X0169400Y0015811D02*
X0168513Y0015811D01*
X0168600Y0016410D02*
X0169400Y0016410D01*
X0169400Y0017008D02*
X0168600Y0017008D01*
X0168600Y0017607D02*
X0169400Y0017607D01*
X0169400Y0018205D02*
X0168600Y0018205D01*
X0168600Y0018804D02*
X0169400Y0018804D01*
X0169400Y0019402D02*
X0164600Y0019402D01*
X0164600Y0020001D02*
X0164000Y0020001D01*
X0164000Y0020599D02*
X0164600Y0020599D01*
X0164600Y0021198D02*
X0164000Y0021198D01*
X0164000Y0021796D02*
X0164600Y0021796D01*
X0164600Y0022395D02*
X0164000Y0022395D01*
X0164000Y0022993D02*
X0164600Y0022993D01*
X0164600Y0023592D02*
X0164000Y0023592D01*
X0164000Y0024190D02*
X0164600Y0024190D01*
X0164600Y0024789D02*
X0164000Y0024789D01*
X0164000Y0025387D02*
X0164600Y0025387D01*
X0164600Y0025986D02*
X0164000Y0025986D01*
X0164000Y0026584D02*
X0164600Y0026584D01*
X0166148Y0026584D02*
X0171255Y0026584D01*
X0171400Y0027183D02*
X0157200Y0027183D01*
X0157200Y0027781D02*
X0171400Y0027781D01*
X0171400Y0028380D02*
X0157200Y0028380D01*
X0157200Y0028978D02*
X0171400Y0028978D01*
X0171400Y0029577D02*
X0157200Y0029577D01*
X0157200Y0030175D02*
X0171400Y0030175D01*
X0171400Y0030774D02*
X0157200Y0030774D01*
X0157200Y0031372D02*
X0171400Y0031372D01*
X0171400Y0031971D02*
X0157200Y0031971D01*
X0157200Y0032570D02*
X0171400Y0032570D01*
X0171400Y0033168D02*
X0157200Y0033168D01*
X0157200Y0033767D02*
X0171400Y0033767D01*
X0171400Y0034365D02*
X0157200Y0034365D01*
X0157200Y0034964D02*
X0171400Y0034964D01*
X0171400Y0035562D02*
X0157200Y0035562D01*
X0157200Y0036161D02*
X0162720Y0036161D01*
X0162465Y0036266D02*
X0163170Y0035974D01*
X0163918Y0035825D01*
X0164000Y0035825D01*
X0164000Y0039400D01*
X0164600Y0039400D01*
X0164600Y0040000D01*
X0168175Y0040000D01*
X0168175Y0040082D01*
X0168026Y0040830D01*
X0167734Y0041535D01*
X0167310Y0042170D01*
X0166770Y0042710D01*
X0166135Y0043134D01*
X0165430Y0043426D01*
X0164682Y0043575D01*
X0164600Y0043575D01*
X0164600Y0040000D01*
X0164000Y0040000D01*
X0164000Y0043575D01*
X0163918Y0043575D01*
X0163170Y0043426D01*
X0162465Y0043134D01*
X0161830Y0042710D01*
X0161290Y0042170D01*
X0160866Y0041535D01*
X0160574Y0040830D01*
X0160425Y0040082D01*
X0160425Y0040000D01*
X0164000Y0040000D01*
X0164000Y0039400D01*
X0160425Y0039400D01*
X0160425Y0039318D01*
X0160574Y0038570D01*
X0160866Y0037865D01*
X0161290Y0037230D01*
X0161830Y0036690D01*
X0162465Y0036266D01*
X0161761Y0036759D02*
X0157687Y0036759D01*
X0158173Y0037358D02*
X0161205Y0037358D01*
X0160828Y0037956D02*
X0158421Y0037956D01*
X0158669Y0038555D02*
X0160580Y0038555D01*
X0160458Y0039153D02*
X0158775Y0039153D01*
X0158775Y0039752D02*
X0164000Y0039752D01*
X0164000Y0040350D02*
X0164600Y0040350D01*
X0164600Y0039752D02*
X0169825Y0039752D01*
X0169825Y0040350D02*
X0168121Y0040350D01*
X0167977Y0040949D02*
X0169974Y0040949D01*
X0170222Y0041547D02*
X0167726Y0041547D01*
X0167326Y0042146D02*
X0170470Y0042146D01*
X0171016Y0042744D02*
X0166718Y0042744D01*
X0165631Y0043343D02*
X0171614Y0043343D01*
X0172846Y0043941D02*
X0155754Y0043941D01*
X0156986Y0043343D02*
X0162969Y0043343D01*
X0164000Y0043343D02*
X0164600Y0043343D01*
X0164600Y0042744D02*
X0164000Y0042744D01*
X0164000Y0042146D02*
X0164600Y0042146D01*
X0164600Y0041547D02*
X0164000Y0041547D01*
X0164000Y0040949D02*
X0164600Y0040949D01*
X0164600Y0039400D02*
X0168175Y0039400D01*
X0168175Y0039318D01*
X0168026Y0038570D01*
X0167734Y0037865D01*
X0167310Y0037230D01*
X0166770Y0036690D01*
X0166135Y0036266D01*
X0165430Y0035974D01*
X0164682Y0035825D01*
X0164600Y0035825D01*
X0164600Y0039400D01*
X0164600Y0039153D02*
X0164000Y0039153D01*
X0164000Y0038555D02*
X0164600Y0038555D01*
X0164600Y0037956D02*
X0164000Y0037956D01*
X0164000Y0037358D02*
X0164600Y0037358D01*
X0164600Y0036759D02*
X0164000Y0036759D01*
X0164000Y0036161D02*
X0164600Y0036161D01*
X0165880Y0036161D02*
X0171400Y0036161D01*
X0170913Y0036759D02*
X0166839Y0036759D01*
X0167395Y0037358D02*
X0170427Y0037358D01*
X0170179Y0037956D02*
X0167772Y0037956D01*
X0168020Y0038555D02*
X0169931Y0038555D01*
X0169825Y0039153D02*
X0168142Y0039153D01*
X0161882Y0042744D02*
X0157584Y0042744D01*
X0158130Y0042146D02*
X0161274Y0042146D01*
X0160874Y0041547D02*
X0158378Y0041547D01*
X0158626Y0040949D02*
X0160623Y0040949D01*
X0160479Y0040350D02*
X0158775Y0040350D01*
X0158878Y0049328D02*
X0199914Y0049328D01*
X0199694Y0049926D02*
X0159476Y0049926D01*
X0160075Y0050525D02*
X0199499Y0050525D01*
X0199363Y0051123D02*
X0160673Y0051123D01*
X0161272Y0051722D02*
X0199260Y0051722D01*
X0199192Y0052320D02*
X0161870Y0052320D01*
X0162469Y0052919D02*
X0208274Y0052919D01*
X0208274Y0052320D02*
X0208874Y0052320D01*
X0208874Y0051722D02*
X0208274Y0051722D01*
X0208274Y0051123D02*
X0208874Y0051123D01*
X0208874Y0050525D02*
X0208274Y0050525D01*
X0208274Y0049926D02*
X0208874Y0049926D01*
X0208874Y0049328D02*
X0208274Y0049328D01*
X0208274Y0048729D02*
X0208874Y0048729D01*
X0208874Y0048131D02*
X0208274Y0048131D01*
X0208274Y0047532D02*
X0208874Y0047532D01*
X0208874Y0046934D02*
X0208274Y0046934D01*
X0208274Y0046335D02*
X0208874Y0046335D01*
X0208874Y0045737D02*
X0208274Y0045737D01*
X0208274Y0045138D02*
X0208874Y0045138D01*
X0208874Y0044540D02*
X0208274Y0044540D01*
X0208274Y0043941D02*
X0208874Y0043941D01*
X0211087Y0043941D02*
X0217361Y0043941D01*
X0217838Y0044540D02*
X0212651Y0044540D01*
X0213715Y0045138D02*
X0218430Y0045138D01*
X0219134Y0045737D02*
X0214531Y0045737D01*
X0215193Y0046335D02*
X0220005Y0046335D01*
X0221148Y0046934D02*
X0215752Y0046934D01*
X0216229Y0047532D02*
X0223091Y0047532D01*
X0224585Y0047532D02*
X0225185Y0047532D01*
X0225185Y0046934D02*
X0224585Y0046934D01*
X0224585Y0046335D02*
X0225185Y0046335D01*
X0225185Y0045737D02*
X0224585Y0045737D01*
X0224585Y0045138D02*
X0225185Y0045138D01*
X0225185Y0044540D02*
X0224585Y0044540D01*
X0224585Y0043941D02*
X0225185Y0043941D01*
X0225185Y0043343D02*
X0224585Y0043343D01*
X0224585Y0042744D02*
X0225185Y0042744D01*
X0225185Y0042146D02*
X0224585Y0042146D01*
X0224585Y0041547D02*
X0225185Y0041547D01*
X0225185Y0040949D02*
X0224585Y0040949D01*
X0224585Y0040350D02*
X0225185Y0040350D01*
X0225185Y0039752D02*
X0224585Y0039752D01*
X0224585Y0039153D02*
X0225185Y0039153D01*
X0231932Y0044540D02*
X0232821Y0044540D01*
X0232821Y0045138D02*
X0231340Y0045138D01*
X0230636Y0045737D02*
X0232821Y0045737D01*
X0232821Y0046335D02*
X0229765Y0046335D01*
X0228622Y0046934D02*
X0232821Y0046934D01*
X0232821Y0047532D02*
X0226679Y0047532D01*
X0232409Y0043941D02*
X0232821Y0043941D01*
X0232818Y0043343D02*
X0232821Y0043343D01*
X0232821Y0048131D02*
X0216610Y0048131D01*
X0216946Y0048729D02*
X0232821Y0048729D01*
X0232821Y0049328D02*
X0217234Y0049328D01*
X0217454Y0049926D02*
X0232821Y0049926D01*
X0232821Y0050525D02*
X0217649Y0050525D01*
X0217785Y0051123D02*
X0232821Y0051123D01*
X0232821Y0051722D02*
X0217888Y0051722D01*
X0217956Y0052320D02*
X0232821Y0052320D01*
X0232821Y0052919D02*
X0208874Y0052919D01*
X0217308Y0056510D02*
X0232821Y0056510D01*
X0232821Y0057108D02*
X0217033Y0057108D01*
X0216724Y0057707D02*
X0232821Y0057707D01*
X0232821Y0058305D02*
X0216348Y0058305D01*
X0215896Y0058904D02*
X0232821Y0058904D01*
X0232821Y0059503D02*
X0215375Y0059503D01*
X0214758Y0060101D02*
X0232821Y0060101D01*
X0232821Y0060700D02*
X0214003Y0060700D01*
X0213027Y0061298D02*
X0232247Y0061298D01*
X0230874Y0061897D02*
X0224986Y0061897D01*
X0224707Y0061806D02*
X0225351Y0062015D01*
X0225954Y0062322D01*
X0226501Y0062720D01*
X0226980Y0063199D01*
X0227378Y0063746D01*
X0227685Y0064349D01*
X0227894Y0064993D01*
X0228000Y0065662D01*
X0228000Y0068700D01*
X0224000Y0068700D01*
X0224000Y0069300D01*
X0223400Y0069300D01*
X0223400Y0076300D01*
X0223362Y0076300D01*
X0222693Y0076194D01*
X0222049Y0075985D01*
X0221446Y0075678D01*
X0220899Y0075280D01*
X0220420Y0074801D01*
X0220022Y0074254D01*
X0219715Y0073651D01*
X0219506Y0073007D01*
X0219400Y0072338D01*
X0219400Y0069300D01*
X0223400Y0069300D01*
X0223400Y0068700D01*
X0219400Y0068700D01*
X0219400Y0065662D01*
X0219506Y0064993D01*
X0219715Y0064349D01*
X0220022Y0063746D01*
X0220420Y0063199D01*
X0220899Y0062720D01*
X0221446Y0062322D01*
X0222049Y0062015D01*
X0222693Y0061806D01*
X0223362Y0061700D01*
X0223400Y0061700D01*
X0223400Y0068700D01*
X0224000Y0068700D01*
X0224000Y0061700D01*
X0224038Y0061700D01*
X0224707Y0061806D01*
X0224000Y0061897D02*
X0223400Y0061897D01*
X0223400Y0062495D02*
X0224000Y0062495D01*
X0224000Y0063094D02*
X0223400Y0063094D01*
X0223400Y0063692D02*
X0224000Y0063692D01*
X0224000Y0064291D02*
X0223400Y0064291D01*
X0223400Y0064889D02*
X0224000Y0064889D01*
X0224000Y0065488D02*
X0223400Y0065488D01*
X0223400Y0066086D02*
X0224000Y0066086D01*
X0224000Y0066685D02*
X0223400Y0066685D01*
X0223400Y0067283D02*
X0224000Y0067283D01*
X0224000Y0067882D02*
X0223400Y0067882D01*
X0223400Y0068480D02*
X0224000Y0068480D01*
X0224000Y0069079D02*
X0228800Y0069079D01*
X0228800Y0069677D02*
X0228000Y0069677D01*
X0228000Y0069300D02*
X0228000Y0072338D01*
X0227894Y0073007D01*
X0227685Y0073651D01*
X0227378Y0074254D01*
X0226980Y0074801D01*
X0226501Y0075280D01*
X0225954Y0075678D01*
X0225351Y0075985D01*
X0224707Y0076194D01*
X0224038Y0076300D01*
X0224000Y0076300D01*
X0224000Y0069300D01*
X0228000Y0069300D01*
X0228000Y0068480D02*
X0228800Y0068480D01*
X0228800Y0067882D02*
X0228000Y0067882D01*
X0228000Y0067283D02*
X0228800Y0067283D01*
X0228800Y0066685D02*
X0228000Y0066685D01*
X0228000Y0066086D02*
X0228800Y0066086D01*
X0228800Y0065488D02*
X0227972Y0065488D01*
X0227860Y0064889D02*
X0228856Y0064889D01*
X0229104Y0064291D02*
X0227655Y0064291D01*
X0227338Y0063692D02*
X0229352Y0063692D01*
X0229677Y0063094D02*
X0226875Y0063094D01*
X0226191Y0062495D02*
X0230275Y0062495D01*
X0232821Y0055911D02*
X0217517Y0055911D01*
X0217690Y0055313D02*
X0232821Y0055313D01*
X0232821Y0054714D02*
X0217827Y0054714D01*
X0217909Y0054116D02*
X0232821Y0054116D01*
X0232821Y0053517D02*
X0217974Y0053517D01*
X0222414Y0061897D02*
X0211686Y0061897D01*
X0212891Y0062495D02*
X0221209Y0062495D01*
X0220525Y0063094D02*
X0213575Y0063094D01*
X0214038Y0063692D02*
X0220062Y0063692D01*
X0219745Y0064291D02*
X0214355Y0064291D01*
X0214560Y0064889D02*
X0219540Y0064889D01*
X0219428Y0065488D02*
X0214672Y0065488D01*
X0214700Y0066086D02*
X0219400Y0066086D01*
X0219400Y0066685D02*
X0214700Y0066685D01*
X0214700Y0067283D02*
X0219400Y0067283D01*
X0219400Y0067882D02*
X0214700Y0067882D01*
X0214700Y0068480D02*
X0219400Y0068480D01*
X0219400Y0069677D02*
X0214700Y0069677D01*
X0214700Y0069300D02*
X0214700Y0072338D01*
X0214594Y0073007D01*
X0214385Y0073651D01*
X0214078Y0074254D01*
X0213680Y0074801D01*
X0213201Y0075280D01*
X0212654Y0075678D01*
X0212051Y0075985D01*
X0211407Y0076194D01*
X0210738Y0076300D01*
X0210700Y0076300D01*
X0210700Y0069300D01*
X0214700Y0069300D01*
X0214700Y0070276D02*
X0219400Y0070276D01*
X0219400Y0070874D02*
X0214700Y0070874D01*
X0214700Y0071473D02*
X0219400Y0071473D01*
X0219400Y0072071D02*
X0214700Y0072071D01*
X0214648Y0072670D02*
X0219452Y0072670D01*
X0219591Y0073268D02*
X0214509Y0073268D01*
X0214275Y0073867D02*
X0219825Y0073867D01*
X0220176Y0074465D02*
X0213924Y0074465D01*
X0213417Y0075064D02*
X0220683Y0075064D01*
X0221425Y0075662D02*
X0212675Y0075662D01*
X0210986Y0076261D02*
X0223114Y0076261D01*
X0223400Y0076261D02*
X0224000Y0076261D01*
X0224286Y0076261D02*
X0231182Y0076261D01*
X0230433Y0075662D02*
X0225975Y0075662D01*
X0226717Y0075064D02*
X0229834Y0075064D01*
X0229417Y0074465D02*
X0227224Y0074465D01*
X0227575Y0073867D02*
X0229170Y0073867D01*
X0228922Y0073268D02*
X0227809Y0073268D01*
X0227948Y0072670D02*
X0228800Y0072670D01*
X0228800Y0072071D02*
X0228000Y0072071D01*
X0228000Y0071473D02*
X0228800Y0071473D01*
X0228800Y0070874D02*
X0228000Y0070874D01*
X0228000Y0070276D02*
X0228800Y0070276D01*
X0224000Y0070276D02*
X0223400Y0070276D01*
X0223400Y0070874D02*
X0224000Y0070874D01*
X0224000Y0071473D02*
X0223400Y0071473D01*
X0223400Y0072071D02*
X0224000Y0072071D01*
X0224000Y0072670D02*
X0223400Y0072670D01*
X0223400Y0073268D02*
X0224000Y0073268D01*
X0224000Y0073867D02*
X0223400Y0073867D01*
X0223400Y0074465D02*
X0224000Y0074465D01*
X0224000Y0075064D02*
X0223400Y0075064D01*
X0223400Y0075662D02*
X0224000Y0075662D01*
X0232627Y0076859D02*
X0201473Y0076859D01*
X0202918Y0076261D02*
X0209814Y0076261D01*
X0210100Y0076261D02*
X0210700Y0076261D01*
X0210700Y0075662D02*
X0210100Y0075662D01*
X0210100Y0075064D02*
X0210700Y0075064D01*
X0210700Y0074465D02*
X0210100Y0074465D01*
X0210100Y0073867D02*
X0210700Y0073867D01*
X0210700Y0073268D02*
X0210100Y0073268D01*
X0210100Y0072670D02*
X0210700Y0072670D01*
X0210700Y0072071D02*
X0210100Y0072071D01*
X0210100Y0071473D02*
X0210700Y0071473D01*
X0210700Y0070874D02*
X0210100Y0070874D01*
X0210100Y0070276D02*
X0210700Y0070276D01*
X0210700Y0069677D02*
X0210100Y0069677D01*
X0210100Y0069079D02*
X0205300Y0069079D01*
X0205300Y0069677D02*
X0206100Y0069677D01*
X0206100Y0070276D02*
X0205300Y0070276D01*
X0205300Y0070874D02*
X0206100Y0070874D01*
X0206100Y0071473D02*
X0205300Y0071473D01*
X0205300Y0072071D02*
X0206100Y0072071D01*
X0206152Y0072670D02*
X0205300Y0072670D01*
X0205178Y0073268D02*
X0206291Y0073268D01*
X0206525Y0073867D02*
X0204930Y0073867D01*
X0204683Y0074465D02*
X0206876Y0074465D01*
X0207383Y0075064D02*
X0204266Y0075064D01*
X0203667Y0075662D02*
X0208125Y0075662D01*
X0210700Y0069079D02*
X0223400Y0069079D01*
X0223400Y0069677D02*
X0224000Y0069677D01*
X0232821Y0077458D02*
X0026592Y0077458D01*
X0025993Y0078056D02*
X0232821Y0078056D01*
X0232821Y0078655D02*
X0025395Y0078655D01*
X0024796Y0079253D02*
X0232821Y0079253D01*
X0232821Y0079852D02*
X0024198Y0079852D01*
X0023599Y0080450D02*
X0232821Y0080450D01*
X0232821Y0081049D02*
X0023001Y0081049D01*
X0022402Y0081647D02*
X0232821Y0081647D01*
X0232821Y0082246D02*
X0021804Y0082246D01*
X0021205Y0082844D02*
X0232821Y0082844D01*
X0232821Y0083443D02*
X0020607Y0083443D01*
X0020500Y0084041D02*
X0232821Y0084041D01*
X0232821Y0084640D02*
X0020500Y0084640D01*
X0020500Y0085239D02*
X0232821Y0085239D01*
X0232821Y0085837D02*
X0020500Y0085837D01*
X0020500Y0086436D02*
X0232821Y0086436D01*
X0232821Y0087034D02*
X0198549Y0087034D01*
X0200310Y0087633D02*
X0223968Y0087633D01*
X0224485Y0087633D02*
X0225085Y0087633D01*
X0225602Y0087633D02*
X0232821Y0087633D01*
X0232821Y0088231D02*
X0228186Y0088231D01*
X0229450Y0088830D02*
X0232821Y0088830D01*
X0232821Y0089428D02*
X0230367Y0089428D01*
X0231105Y0090027D02*
X0232821Y0090027D01*
X0232821Y0090625D02*
X0231704Y0090625D01*
X0232202Y0091224D02*
X0232821Y0091224D01*
X0232821Y0091822D02*
X0232633Y0091822D01*
X0225085Y0091822D02*
X0224485Y0091822D01*
X0224485Y0091224D02*
X0225085Y0091224D01*
X0225085Y0090625D02*
X0224485Y0090625D01*
X0224485Y0090027D02*
X0225085Y0090027D01*
X0225085Y0089428D02*
X0224485Y0089428D01*
X0224485Y0088830D02*
X0225085Y0088830D01*
X0225085Y0088231D02*
X0224485Y0088231D01*
X0221384Y0088231D02*
X0201346Y0088231D01*
X0202316Y0088830D02*
X0220120Y0088830D01*
X0219203Y0089428D02*
X0202915Y0089428D01*
X0203513Y0090027D02*
X0218465Y0090027D01*
X0217866Y0090625D02*
X0204112Y0090625D01*
X0204463Y0091224D02*
X0217368Y0091224D01*
X0216937Y0091822D02*
X0204808Y0091822D01*
X0205154Y0092421D02*
X0216561Y0092421D01*
X0216269Y0093019D02*
X0205482Y0093019D01*
X0205642Y0093618D02*
X0216010Y0093618D01*
X0215800Y0094216D02*
X0205803Y0094216D01*
X0205963Y0094815D02*
X0215642Y0094815D01*
X0215505Y0095413D02*
X0206124Y0095413D01*
X0206162Y0096012D02*
X0215437Y0096012D01*
X0215385Y0096610D02*
X0206162Y0096610D01*
X0206162Y0097209D02*
X0224485Y0097209D01*
X0224485Y0097807D02*
X0225085Y0097807D01*
X0225085Y0098406D02*
X0224485Y0098406D01*
X0224485Y0099004D02*
X0225085Y0099004D01*
X0225085Y0099603D02*
X0224485Y0099603D01*
X0224485Y0100201D02*
X0225085Y0100201D01*
X0225085Y0100800D02*
X0224485Y0100800D01*
X0224485Y0101398D02*
X0225085Y0101398D01*
X0225085Y0101997D02*
X0224485Y0101997D01*
X0224485Y0102595D02*
X0225085Y0102595D01*
X0225085Y0103194D02*
X0224485Y0103194D01*
X0224485Y0103792D02*
X0225085Y0103792D01*
X0225085Y0104391D02*
X0224485Y0104391D01*
X0224485Y0104989D02*
X0225085Y0104989D01*
X0225085Y0105588D02*
X0224485Y0105588D01*
X0224485Y0106186D02*
X0225085Y0106186D01*
X0226780Y0106186D02*
X0232821Y0106186D01*
X0232821Y0105588D02*
X0228617Y0105588D01*
X0229738Y0104989D02*
X0232821Y0104989D01*
X0232821Y0104391D02*
X0230594Y0104391D01*
X0231286Y0103792D02*
X0232821Y0103792D01*
X0232821Y0103194D02*
X0231869Y0103194D01*
X0232346Y0102595D02*
X0232821Y0102595D01*
X0232821Y0101997D02*
X0232747Y0101997D01*
X0232821Y0106785D02*
X0216481Y0106785D01*
X0216824Y0107383D02*
X0232821Y0107383D01*
X0232821Y0107982D02*
X0217112Y0107982D01*
X0217338Y0108580D02*
X0232821Y0108580D01*
X0232821Y0109179D02*
X0217538Y0109179D01*
X0217675Y0109777D02*
X0232821Y0109777D01*
X0232821Y0110376D02*
X0217783Y0110376D01*
X0217851Y0110974D02*
X0232821Y0110974D01*
X0232821Y0111573D02*
X0208774Y0111573D01*
X0208774Y0110974D02*
X0208174Y0110974D01*
X0208174Y0110376D02*
X0208774Y0110376D01*
X0208774Y0109777D02*
X0208174Y0109777D01*
X0208174Y0109179D02*
X0208774Y0109179D01*
X0208774Y0108580D02*
X0208174Y0108580D01*
X0208174Y0107982D02*
X0208774Y0107982D01*
X0208774Y0107383D02*
X0208174Y0107383D01*
X0208174Y0106785D02*
X0208774Y0106785D01*
X0208774Y0106186D02*
X0208174Y0106186D01*
X0208174Y0105588D02*
X0208774Y0105588D01*
X0208774Y0104989D02*
X0208174Y0104989D01*
X0208174Y0104391D02*
X0208774Y0104391D01*
X0208774Y0103792D02*
X0208174Y0103792D01*
X0208174Y0103194D02*
X0208774Y0103194D01*
X0208774Y0102595D02*
X0208174Y0102595D01*
X0206162Y0102595D02*
X0204452Y0102595D01*
X0204492Y0103194D02*
X0204093Y0103194D01*
X0204797Y0101997D02*
X0216823Y0101997D01*
X0216470Y0101398D02*
X0205143Y0101398D01*
X0205477Y0100800D02*
X0216182Y0100800D01*
X0215946Y0100201D02*
X0205637Y0100201D01*
X0205798Y0099603D02*
X0215737Y0099603D01*
X0215601Y0099004D02*
X0205958Y0099004D01*
X0206119Y0098406D02*
X0215484Y0098406D01*
X0215417Y0097807D02*
X0206162Y0097807D01*
X0210786Y0102595D02*
X0217224Y0102595D01*
X0217701Y0103194D02*
X0212456Y0103194D01*
X0213542Y0103792D02*
X0218284Y0103792D01*
X0218976Y0104391D02*
X0214373Y0104391D01*
X0215048Y0104989D02*
X0219832Y0104989D01*
X0220953Y0105588D02*
X0215615Y0105588D01*
X0216093Y0106186D02*
X0222790Y0106186D01*
X0217874Y0112172D02*
X0232821Y0112172D01*
X0232821Y0112770D02*
X0217814Y0112770D01*
X0217737Y0113369D02*
X0232821Y0113369D01*
X0232821Y0113967D02*
X0217600Y0113967D01*
X0217433Y0114566D02*
X0232821Y0114566D01*
X0232821Y0115164D02*
X0217224Y0115164D01*
X0216955Y0115763D02*
X0232821Y0115763D01*
X0232289Y0116361D02*
X0216653Y0116361D01*
X0216277Y0116960D02*
X0231691Y0116960D01*
X0231092Y0117558D02*
X0215833Y0117558D01*
X0215320Y0118157D02*
X0230494Y0118157D01*
X0229917Y0118755D02*
X0214715Y0118755D01*
X0213965Y0119354D02*
X0229669Y0119354D01*
X0229421Y0119952D02*
X0213023Y0119952D01*
X0211668Y0120551D02*
X0229400Y0120551D01*
X0229400Y0121149D02*
X0187800Y0121149D01*
X0187800Y0120551D02*
X0205280Y0120551D01*
X0204871Y0120408D02*
X0203920Y0119949D01*
X0203026Y0119388D01*
X0202200Y0118730D01*
X0201454Y0117983D01*
X0200796Y0117158D01*
X0200234Y0116264D01*
X0199776Y0115312D01*
X0199427Y0114316D01*
X0199192Y0113286D01*
X0199074Y0112237D01*
X0199074Y0112009D01*
X0208174Y0112009D01*
X0208174Y0121109D01*
X0207946Y0121109D01*
X0206897Y0120991D01*
X0205868Y0120756D01*
X0204871Y0120408D01*
X0203925Y0119952D02*
X0187800Y0119952D01*
X0187800Y0119354D02*
X0202983Y0119354D01*
X0202233Y0118755D02*
X0187800Y0118755D01*
X0187800Y0118157D02*
X0201628Y0118157D01*
X0201115Y0117558D02*
X0187800Y0117558D01*
X0187800Y0116960D02*
X0200671Y0116960D01*
X0200295Y0116361D02*
X0187800Y0116361D01*
X0187800Y0115763D02*
X0199993Y0115763D01*
X0199724Y0115164D02*
X0187800Y0115164D01*
X0187800Y0114566D02*
X0199515Y0114566D01*
X0199348Y0113967D02*
X0187800Y0113967D01*
X0187800Y0113369D02*
X0199211Y0113369D01*
X0199134Y0112770D02*
X0187800Y0112770D01*
X0187800Y0112172D02*
X0199074Y0112172D01*
X0199097Y0110974D02*
X0187800Y0110974D01*
X0187800Y0110376D02*
X0199165Y0110376D01*
X0199273Y0109777D02*
X0188035Y0109777D01*
X0188634Y0109179D02*
X0199410Y0109179D01*
X0199610Y0108580D02*
X0189232Y0108580D01*
X0189831Y0107982D02*
X0199836Y0107982D01*
X0200124Y0107383D02*
X0190429Y0107383D01*
X0191028Y0106785D02*
X0193447Y0106785D01*
X0191649Y0106186D02*
X0191626Y0106186D01*
X0186515Y0101398D02*
X0178440Y0101398D01*
X0178688Y0100800D02*
X0186449Y0100800D01*
X0186289Y0100201D02*
X0178775Y0100201D01*
X0178775Y0100590D02*
X0178094Y0102235D01*
X0177200Y0103128D01*
X0177200Y0112670D01*
X0178454Y0113924D01*
X0179200Y0115725D01*
X0179200Y0123675D01*
X0178454Y0125476D01*
X0177076Y0126854D01*
X0175275Y0127600D01*
X0173325Y0127600D01*
X0171524Y0126854D01*
X0170146Y0125476D01*
X0169400Y0123675D01*
X0169400Y0115725D01*
X0170146Y0113924D01*
X0171400Y0112670D01*
X0171400Y0103128D01*
X0170506Y0102235D01*
X0169825Y0100590D01*
X0169825Y0098810D01*
X0170506Y0097165D01*
X0171765Y0095906D01*
X0173410Y0095225D01*
X0175190Y0095225D01*
X0176835Y0095906D01*
X0178094Y0097165D01*
X0178775Y0098810D01*
X0178775Y0100590D01*
X0178775Y0099603D02*
X0186128Y0099603D01*
X0185968Y0099004D02*
X0178775Y0099004D01*
X0178607Y0098406D02*
X0185807Y0098406D01*
X0185764Y0097807D02*
X0178359Y0097807D01*
X0178112Y0097209D02*
X0185764Y0097209D01*
X0185764Y0096610D02*
X0177539Y0096610D01*
X0176940Y0096012D02*
X0185764Y0096012D01*
X0185802Y0095413D02*
X0175644Y0095413D01*
X0172956Y0095413D02*
X0165644Y0095413D01*
X0166940Y0096012D02*
X0171660Y0096012D01*
X0171061Y0096610D02*
X0167539Y0096610D01*
X0168112Y0097209D02*
X0170488Y0097209D01*
X0170241Y0097807D02*
X0168359Y0097807D01*
X0168607Y0098406D02*
X0169993Y0098406D01*
X0169825Y0099004D02*
X0168775Y0099004D01*
X0168775Y0099603D02*
X0169825Y0099603D01*
X0169825Y0100201D02*
X0168775Y0100201D01*
X0168688Y0100800D02*
X0169912Y0100800D01*
X0170160Y0101398D02*
X0168440Y0101398D01*
X0168192Y0101997D02*
X0170408Y0101997D01*
X0170867Y0102595D02*
X0167733Y0102595D01*
X0167200Y0103194D02*
X0171400Y0103194D01*
X0171400Y0103792D02*
X0167200Y0103792D01*
X0167200Y0104391D02*
X0171400Y0104391D01*
X0171400Y0104989D02*
X0167200Y0104989D01*
X0167200Y0105588D02*
X0171400Y0105588D01*
X0171400Y0106186D02*
X0167200Y0106186D01*
X0167200Y0106785D02*
X0171400Y0106785D01*
X0171400Y0107383D02*
X0167200Y0107383D01*
X0167200Y0107982D02*
X0171400Y0107982D01*
X0171400Y0108580D02*
X0167200Y0108580D01*
X0167200Y0109179D02*
X0171400Y0109179D01*
X0171400Y0109777D02*
X0167200Y0109777D01*
X0167200Y0110376D02*
X0171400Y0110376D01*
X0171400Y0110974D02*
X0167200Y0110974D01*
X0167200Y0111573D02*
X0171400Y0111573D01*
X0171400Y0112172D02*
X0167200Y0112172D01*
X0167300Y0112770D02*
X0171300Y0112770D01*
X0170702Y0113369D02*
X0167898Y0113369D01*
X0168472Y0113967D02*
X0170128Y0113967D01*
X0169880Y0114566D02*
X0168720Y0114566D01*
X0168968Y0115164D02*
X0169632Y0115164D01*
X0169400Y0115763D02*
X0169200Y0115763D01*
X0169200Y0116361D02*
X0169400Y0116361D01*
X0169400Y0116960D02*
X0169200Y0116960D01*
X0169200Y0117558D02*
X0169400Y0117558D01*
X0169400Y0118157D02*
X0169200Y0118157D01*
X0169200Y0118755D02*
X0169400Y0118755D01*
X0169400Y0119354D02*
X0169200Y0119354D01*
X0169200Y0119952D02*
X0169400Y0119952D01*
X0169400Y0120551D02*
X0169200Y0120551D01*
X0169200Y0121149D02*
X0169400Y0121149D01*
X0169400Y0121748D02*
X0169200Y0121748D01*
X0169200Y0122346D02*
X0169400Y0122346D01*
X0169400Y0122945D02*
X0169200Y0122945D01*
X0169200Y0123543D02*
X0169400Y0123543D01*
X0169593Y0124142D02*
X0169007Y0124142D01*
X0168759Y0124740D02*
X0169841Y0124740D01*
X0170089Y0125339D02*
X0168511Y0125339D01*
X0167992Y0125937D02*
X0170608Y0125937D01*
X0171206Y0126536D02*
X0167394Y0126536D01*
X0170884Y0127134D02*
X0172201Y0127134D01*
X0171634Y0127733D02*
X0177417Y0127733D01*
X0176883Y0128331D02*
X0172072Y0128331D01*
X0172320Y0128930D02*
X0176635Y0128930D01*
X0176395Y0129528D02*
X0172400Y0129528D01*
X0172400Y0130127D02*
X0176395Y0130127D01*
X0176395Y0130725D02*
X0172400Y0130725D01*
X0172400Y0131324D02*
X0176395Y0131324D01*
X0176395Y0131922D02*
X0172400Y0131922D01*
X0172400Y0132521D02*
X0176395Y0132521D01*
X0176395Y0133119D02*
X0172400Y0133119D01*
X0172400Y0133718D02*
X0176395Y0133718D01*
X0176395Y0134316D02*
X0172400Y0134316D01*
X0173994Y0134915D02*
X0176395Y0134915D01*
X0176395Y0135513D02*
X0175343Y0135513D01*
X0175942Y0136112D02*
X0176395Y0136112D01*
X0183395Y0136112D02*
X0192400Y0136112D01*
X0192400Y0136710D02*
X0183395Y0136710D01*
X0183395Y0137309D02*
X0192547Y0137309D01*
X0192794Y0137908D02*
X0183395Y0137908D01*
X0183395Y0138506D02*
X0193042Y0138506D01*
X0193623Y0139105D02*
X0183395Y0139105D01*
X0183395Y0139703D02*
X0194222Y0139703D01*
X0195607Y0140302D02*
X0183395Y0140302D01*
X0183395Y0140900D02*
X0228250Y0140900D01*
X0227652Y0141499D02*
X0183395Y0141499D01*
X0183395Y0142097D02*
X0227053Y0142097D01*
X0226455Y0142696D02*
X0183395Y0142696D01*
X0183395Y0143294D02*
X0225856Y0143294D01*
X0225258Y0143893D02*
X0183395Y0143893D01*
X0183395Y0144491D02*
X0224659Y0144491D01*
X0224061Y0145090D02*
X0214391Y0145090D01*
X0215836Y0145688D02*
X0218847Y0145688D01*
X0217884Y0146287D02*
X0216516Y0146287D01*
X0217496Y0139703D02*
X0229400Y0139703D01*
X0228849Y0140302D02*
X0197793Y0140302D01*
X0199178Y0139703D02*
X0212904Y0139703D01*
X0206009Y0145090D02*
X0200274Y0145090D01*
X0201518Y0145688D02*
X0204564Y0145688D01*
X0203839Y0153469D02*
X0201761Y0153469D01*
X0200861Y0154067D02*
X0204456Y0154067D01*
X0205901Y0154666D02*
X0097200Y0154666D01*
X0097200Y0155264D02*
X0239239Y0155264D01*
X0239240Y0154666D02*
X0228781Y0154666D01*
X0229962Y0154067D02*
X0239241Y0154067D01*
X0239241Y0153469D02*
X0230561Y0153469D01*
X0231156Y0152870D02*
X0239242Y0152870D01*
X0239243Y0152272D02*
X0231404Y0152272D01*
X0231900Y0150476D02*
X0239245Y0150476D01*
X0239246Y0149878D02*
X0231900Y0149878D01*
X0231900Y0149279D02*
X0239246Y0149279D01*
X0239247Y0148681D02*
X0231716Y0148681D01*
X0231468Y0148082D02*
X0239248Y0148082D01*
X0239249Y0147484D02*
X0231566Y0147484D01*
X0232165Y0146885D02*
X0239249Y0146885D01*
X0239250Y0146287D02*
X0232763Y0146287D01*
X0233362Y0145688D02*
X0239251Y0145688D01*
X0239251Y0145090D02*
X0233960Y0145090D01*
X0234559Y0144491D02*
X0239252Y0144491D01*
X0239253Y0143893D02*
X0235157Y0143893D01*
X0235756Y0143294D02*
X0239253Y0143294D01*
X0239254Y0142696D02*
X0236069Y0142696D01*
X0236317Y0142097D02*
X0239255Y0142097D01*
X0239256Y0141499D02*
X0236400Y0141499D01*
X0236400Y0140900D02*
X0239256Y0140900D01*
X0239257Y0140302D02*
X0236400Y0140302D01*
X0236400Y0139703D02*
X0239258Y0139703D01*
X0239258Y0139105D02*
X0236400Y0139105D01*
X0236400Y0138506D02*
X0239259Y0138506D01*
X0239260Y0137908D02*
X0236400Y0137908D01*
X0236400Y0137309D02*
X0239261Y0137309D01*
X0239261Y0136710D02*
X0236400Y0136710D01*
X0236400Y0136112D02*
X0239262Y0136112D01*
X0239263Y0135513D02*
X0236400Y0135513D01*
X0236400Y0134915D02*
X0239263Y0134915D01*
X0239264Y0134316D02*
X0236400Y0134316D01*
X0236400Y0133718D02*
X0239265Y0133718D01*
X0239265Y0133119D02*
X0236400Y0133119D01*
X0236400Y0132521D02*
X0239266Y0132521D01*
X0239267Y0131922D02*
X0236400Y0131922D01*
X0236400Y0131324D02*
X0239268Y0131324D01*
X0239268Y0130725D02*
X0236400Y0130725D01*
X0236400Y0130127D02*
X0239269Y0130127D01*
X0239270Y0129528D02*
X0236400Y0129528D01*
X0236400Y0128930D02*
X0239270Y0128930D01*
X0239271Y0128331D02*
X0236400Y0128331D01*
X0236400Y0127733D02*
X0239272Y0127733D01*
X0239273Y0127134D02*
X0236400Y0127134D01*
X0236400Y0126536D02*
X0239273Y0126536D01*
X0239274Y0125937D02*
X0236400Y0125937D01*
X0236400Y0125339D02*
X0239275Y0125339D01*
X0239275Y0124740D02*
X0236400Y0124740D01*
X0236400Y0124142D02*
X0239276Y0124142D01*
X0239277Y0123543D02*
X0236400Y0123543D01*
X0236400Y0122945D02*
X0239277Y0122945D01*
X0239278Y0122346D02*
X0236400Y0122346D01*
X0236802Y0121748D02*
X0239279Y0121748D01*
X0239280Y0121149D02*
X0237401Y0121149D01*
X0237999Y0120551D02*
X0239280Y0120551D01*
X0239281Y0119952D02*
X0238598Y0119952D01*
X0239196Y0119354D02*
X0239282Y0119354D01*
X0229400Y0121748D02*
X0187800Y0121748D01*
X0187800Y0122346D02*
X0229400Y0122346D01*
X0229400Y0122945D02*
X0187800Y0122945D01*
X0187800Y0123543D02*
X0229400Y0123543D01*
X0229400Y0124142D02*
X0187800Y0124142D01*
X0187800Y0124740D02*
X0229400Y0124740D01*
X0229400Y0125339D02*
X0216771Y0125339D01*
X0217370Y0125937D02*
X0229400Y0125937D01*
X0229400Y0126536D02*
X0217968Y0126536D01*
X0218567Y0127134D02*
X0229400Y0127134D01*
X0229400Y0127733D02*
X0218900Y0127733D01*
X0218900Y0128331D02*
X0229400Y0128331D01*
X0229400Y0128930D02*
X0215500Y0128930D01*
X0215500Y0128331D02*
X0214900Y0128331D01*
X0214900Y0127733D02*
X0215500Y0127733D01*
X0215500Y0127134D02*
X0214900Y0127134D01*
X0214900Y0126536D02*
X0215500Y0126536D01*
X0215500Y0125937D02*
X0214900Y0125937D01*
X0214900Y0125339D02*
X0215500Y0125339D01*
X0213629Y0125339D02*
X0187800Y0125339D01*
X0187800Y0125937D02*
X0194630Y0125937D01*
X0194032Y0126536D02*
X0187784Y0126536D01*
X0187536Y0127134D02*
X0193433Y0127134D01*
X0193000Y0127733D02*
X0187288Y0127733D01*
X0186718Y0128331D02*
X0193000Y0128331D01*
X0193000Y0129528D02*
X0185521Y0129528D01*
X0184923Y0130127D02*
X0193000Y0130127D01*
X0193093Y0130725D02*
X0184324Y0130725D01*
X0183726Y0131324D02*
X0193691Y0131324D01*
X0194290Y0131922D02*
X0183395Y0131922D01*
X0183395Y0132521D02*
X0194198Y0132521D01*
X0193599Y0133119D02*
X0183395Y0133119D01*
X0183395Y0133718D02*
X0193032Y0133718D01*
X0192784Y0134316D02*
X0183395Y0134316D01*
X0183395Y0134915D02*
X0192537Y0134915D01*
X0192400Y0135513D02*
X0183395Y0135513D01*
X0186120Y0128930D02*
X0196400Y0128930D01*
X0196400Y0128331D02*
X0197000Y0128331D01*
X0197000Y0127733D02*
X0196400Y0127733D01*
X0196400Y0127134D02*
X0197000Y0127134D01*
X0197000Y0126536D02*
X0196400Y0126536D01*
X0196400Y0125937D02*
X0197000Y0125937D01*
X0198770Y0125937D02*
X0213030Y0125937D01*
X0212432Y0126536D02*
X0199368Y0126536D01*
X0199967Y0127134D02*
X0211833Y0127134D01*
X0211500Y0127733D02*
X0200400Y0127733D01*
X0200400Y0128331D02*
X0211500Y0128331D01*
X0211500Y0129528D02*
X0200400Y0129528D01*
X0200400Y0130127D02*
X0211500Y0130127D01*
X0211693Y0130725D02*
X0200307Y0130725D01*
X0199709Y0131324D02*
X0212291Y0131324D01*
X0212890Y0131922D02*
X0199110Y0131922D01*
X0199202Y0132521D02*
X0212598Y0132521D01*
X0214900Y0128930D02*
X0197000Y0128930D01*
X0208174Y0120551D02*
X0208774Y0120551D01*
X0208774Y0119952D02*
X0208174Y0119952D01*
X0208174Y0119354D02*
X0208774Y0119354D01*
X0208774Y0118755D02*
X0208174Y0118755D01*
X0208174Y0118157D02*
X0208774Y0118157D01*
X0208774Y0117558D02*
X0208174Y0117558D01*
X0208174Y0116960D02*
X0208774Y0116960D01*
X0208774Y0116361D02*
X0208174Y0116361D01*
X0208174Y0115763D02*
X0208774Y0115763D01*
X0208774Y0115164D02*
X0208174Y0115164D01*
X0208174Y0114566D02*
X0208774Y0114566D01*
X0208774Y0113967D02*
X0208174Y0113967D01*
X0208174Y0113369D02*
X0208774Y0113369D01*
X0208774Y0112770D02*
X0208174Y0112770D01*
X0208174Y0112172D02*
X0208774Y0112172D01*
X0208174Y0111573D02*
X0187800Y0111573D01*
X0180800Y0111573D02*
X0177200Y0111573D01*
X0177200Y0110974D02*
X0180800Y0110974D01*
X0180800Y0110376D02*
X0177200Y0110376D01*
X0177200Y0109777D02*
X0180800Y0109777D01*
X0180800Y0109179D02*
X0177200Y0109179D01*
X0177200Y0108580D02*
X0180800Y0108580D01*
X0180800Y0107982D02*
X0177200Y0107982D01*
X0177200Y0107383D02*
X0181000Y0107383D01*
X0181248Y0106785D02*
X0177200Y0106785D01*
X0177200Y0106186D02*
X0181727Y0106186D01*
X0182325Y0105588D02*
X0177200Y0105588D01*
X0177200Y0104989D02*
X0182924Y0104989D01*
X0183522Y0104391D02*
X0177200Y0104391D01*
X0177200Y0103792D02*
X0184121Y0103792D01*
X0184719Y0103194D02*
X0177200Y0103194D01*
X0177733Y0102595D02*
X0185318Y0102595D01*
X0185916Y0101997D02*
X0178192Y0101997D01*
X0185963Y0094815D02*
X0113516Y0094815D01*
X0112917Y0094216D02*
X0186123Y0094216D01*
X0186283Y0093618D02*
X0112319Y0093618D01*
X0111720Y0093019D02*
X0186444Y0093019D01*
X0186772Y0092421D02*
X0111122Y0092421D01*
X0110523Y0091822D02*
X0187118Y0091822D01*
X0187463Y0091224D02*
X0109925Y0091224D01*
X0109326Y0090625D02*
X0187814Y0090625D01*
X0188413Y0090027D02*
X0108728Y0090027D01*
X0108129Y0089428D02*
X0189011Y0089428D01*
X0189610Y0088830D02*
X0107531Y0088830D01*
X0106932Y0088231D02*
X0190580Y0088231D01*
X0191616Y0087633D02*
X0106334Y0087633D01*
X0105442Y0087034D02*
X0193376Y0087034D01*
X0197882Y0076261D02*
X0027789Y0076261D01*
X0027190Y0076859D02*
X0199327Y0076859D01*
X0197133Y0075662D02*
X0028387Y0075662D01*
X0028986Y0075064D02*
X0196534Y0075064D01*
X0196117Y0074465D02*
X0029584Y0074465D01*
X0030183Y0073867D02*
X0195870Y0073867D01*
X0205300Y0068480D02*
X0206100Y0068480D01*
X0206100Y0067882D02*
X0205300Y0067882D01*
X0205300Y0067283D02*
X0206100Y0067283D01*
X0206100Y0066685D02*
X0205300Y0066685D01*
X0205300Y0066086D02*
X0206100Y0066086D01*
X0206128Y0065488D02*
X0205300Y0065488D01*
X0205244Y0064889D02*
X0206240Y0064889D01*
X0206445Y0064291D02*
X0204996Y0064291D01*
X0204748Y0063692D02*
X0206762Y0063692D01*
X0207225Y0063094D02*
X0204423Y0063094D01*
X0203825Y0062495D02*
X0207909Y0062495D01*
X0205511Y0061897D02*
X0203226Y0061897D01*
X0204121Y0061298D02*
X0201853Y0061298D01*
X0202390Y0060101D02*
X0169651Y0060101D01*
X0170249Y0060700D02*
X0203145Y0060700D01*
X0201773Y0059503D02*
X0169052Y0059503D01*
X0168454Y0058904D02*
X0201252Y0058904D01*
X0200800Y0058305D02*
X0167855Y0058305D01*
X0167257Y0057707D02*
X0200424Y0057707D01*
X0200115Y0057108D02*
X0166658Y0057108D01*
X0166060Y0056510D02*
X0199840Y0056510D01*
X0199631Y0055911D02*
X0165461Y0055911D01*
X0164863Y0055313D02*
X0199458Y0055313D01*
X0199321Y0054714D02*
X0164264Y0054714D01*
X0163666Y0054116D02*
X0199239Y0054116D01*
X0199174Y0053517D02*
X0163067Y0053517D01*
X0157956Y0058305D02*
X0047800Y0058305D01*
X0047800Y0057707D02*
X0157357Y0057707D01*
X0156759Y0057108D02*
X0047800Y0057108D01*
X0047800Y0056510D02*
X0156160Y0056510D01*
X0155562Y0055911D02*
X0047800Y0055911D01*
X0047800Y0055313D02*
X0154963Y0055313D01*
X0154365Y0054714D02*
X0047800Y0054714D01*
X0047800Y0054116D02*
X0153766Y0054116D01*
X0153168Y0053517D02*
X0047800Y0053517D01*
X0047800Y0052919D02*
X0152569Y0052919D01*
X0151971Y0052320D02*
X0047800Y0052320D01*
X0047800Y0051722D02*
X0151372Y0051722D01*
X0150774Y0051123D02*
X0047800Y0051123D01*
X0047800Y0050525D02*
X0150175Y0050525D01*
X0149577Y0049926D02*
X0047800Y0049926D01*
X0047800Y0049328D02*
X0148978Y0049328D01*
X0148380Y0048729D02*
X0047800Y0048729D01*
X0047800Y0048131D02*
X0147781Y0048131D01*
X0147183Y0047532D02*
X0047800Y0047532D01*
X0047800Y0046934D02*
X0146584Y0046934D01*
X0145986Y0046335D02*
X0047800Y0046335D01*
X0047800Y0045737D02*
X0145387Y0045737D01*
X0144789Y0045138D02*
X0047800Y0045138D01*
X0047800Y0044540D02*
X0144190Y0044540D01*
X0142846Y0043941D02*
X0135754Y0043941D01*
X0135190Y0044175D02*
X0136835Y0043494D01*
X0138094Y0042235D01*
X0138775Y0040590D01*
X0138775Y0038810D01*
X0138094Y0037165D01*
X0137200Y0036272D01*
X0137200Y0026730D01*
X0138454Y0025476D01*
X0139200Y0023675D01*
X0139200Y0015725D01*
X0138454Y0013924D01*
X0137076Y0012546D01*
X0135275Y0011800D01*
X0133325Y0011800D01*
X0131524Y0012546D01*
X0130146Y0013924D01*
X0129400Y0015725D01*
X0129400Y0023675D01*
X0130146Y0025476D01*
X0131400Y0026730D01*
X0131400Y0036272D01*
X0130506Y0037165D01*
X0129825Y0038810D01*
X0129825Y0040590D01*
X0130506Y0042235D01*
X0131765Y0043494D01*
X0133410Y0044175D01*
X0135190Y0044175D01*
X0136986Y0043343D02*
X0141614Y0043343D01*
X0141016Y0042744D02*
X0137584Y0042744D01*
X0138130Y0042146D02*
X0140470Y0042146D01*
X0140222Y0041547D02*
X0138378Y0041547D01*
X0138626Y0040949D02*
X0139974Y0040949D01*
X0139825Y0040350D02*
X0138775Y0040350D01*
X0138775Y0039752D02*
X0139825Y0039752D01*
X0139825Y0039153D02*
X0138775Y0039153D01*
X0138669Y0038555D02*
X0139931Y0038555D01*
X0140179Y0037956D02*
X0138421Y0037956D01*
X0138173Y0037358D02*
X0140427Y0037358D01*
X0140800Y0036759D02*
X0137687Y0036759D01*
X0137200Y0036161D02*
X0140800Y0036161D01*
X0140800Y0035562D02*
X0137200Y0035562D01*
X0137200Y0034964D02*
X0140800Y0034964D01*
X0140800Y0034365D02*
X0137200Y0034365D01*
X0137200Y0033767D02*
X0140800Y0033767D01*
X0140800Y0033168D02*
X0137200Y0033168D01*
X0137200Y0032570D02*
X0140800Y0032570D01*
X0140800Y0031971D02*
X0137200Y0031971D01*
X0137200Y0031372D02*
X0140800Y0031372D01*
X0140800Y0030774D02*
X0137200Y0030774D01*
X0137200Y0030175D02*
X0140800Y0030175D01*
X0140800Y0029577D02*
X0137200Y0029577D01*
X0137200Y0028978D02*
X0140800Y0028978D01*
X0140800Y0028380D02*
X0137200Y0028380D01*
X0137200Y0027781D02*
X0140800Y0027781D01*
X0140800Y0027183D02*
X0137200Y0027183D01*
X0137345Y0026584D02*
X0140800Y0026584D01*
X0140656Y0025986D02*
X0137944Y0025986D01*
X0138491Y0025387D02*
X0140109Y0025387D01*
X0139862Y0024789D02*
X0138738Y0024789D01*
X0138986Y0024190D02*
X0139614Y0024190D01*
X0139400Y0023592D02*
X0139200Y0023592D01*
X0139200Y0022993D02*
X0139400Y0022993D01*
X0139400Y0022395D02*
X0139200Y0022395D01*
X0139200Y0021796D02*
X0139400Y0021796D01*
X0139400Y0021198D02*
X0139200Y0021198D01*
X0139200Y0020599D02*
X0139400Y0020599D01*
X0139400Y0020001D02*
X0139200Y0020001D01*
X0139200Y0019402D02*
X0139400Y0019402D01*
X0139400Y0018804D02*
X0139200Y0018804D01*
X0139200Y0018205D02*
X0139400Y0018205D01*
X0139400Y0017607D02*
X0139200Y0017607D01*
X0139200Y0017008D02*
X0139400Y0017008D01*
X0139400Y0016410D02*
X0139200Y0016410D01*
X0139200Y0015811D02*
X0139400Y0015811D01*
X0139612Y0015213D02*
X0138988Y0015213D01*
X0138740Y0014614D02*
X0139860Y0014614D01*
X0140108Y0014016D02*
X0138492Y0014016D01*
X0137947Y0013417D02*
X0140653Y0013417D01*
X0141252Y0012819D02*
X0137348Y0012819D01*
X0136289Y0012220D02*
X0142311Y0012220D01*
X0132311Y0012220D02*
X0126289Y0012220D01*
X0127076Y0012546D02*
X0128454Y0013924D01*
X0129200Y0015725D01*
X0129200Y0023675D01*
X0128454Y0025476D01*
X0127200Y0026730D01*
X0127200Y0036272D01*
X0128094Y0037165D01*
X0128775Y0038810D01*
X0128775Y0040590D01*
X0128094Y0042235D01*
X0126835Y0043494D01*
X0125190Y0044175D01*
X0123410Y0044175D01*
X0121765Y0043494D01*
X0120506Y0042235D01*
X0119825Y0040590D01*
X0119825Y0038810D01*
X0120506Y0037165D01*
X0121400Y0036272D01*
X0121400Y0026730D01*
X0120146Y0025476D01*
X0119400Y0023675D01*
X0119400Y0015725D01*
X0120146Y0013924D01*
X0121524Y0012546D01*
X0123325Y0011800D01*
X0125275Y0011800D01*
X0127076Y0012546D01*
X0127348Y0012819D02*
X0131252Y0012819D01*
X0130653Y0013417D02*
X0127947Y0013417D01*
X0128492Y0014016D02*
X0130108Y0014016D01*
X0129860Y0014614D02*
X0128740Y0014614D01*
X0128988Y0015213D02*
X0129612Y0015213D01*
X0129400Y0015811D02*
X0129200Y0015811D01*
X0129200Y0016410D02*
X0129400Y0016410D01*
X0129400Y0017008D02*
X0129200Y0017008D01*
X0129200Y0017607D02*
X0129400Y0017607D01*
X0129400Y0018205D02*
X0129200Y0018205D01*
X0129200Y0018804D02*
X0129400Y0018804D01*
X0129400Y0019402D02*
X0129200Y0019402D01*
X0129200Y0020001D02*
X0129400Y0020001D01*
X0129400Y0020599D02*
X0129200Y0020599D01*
X0129200Y0021198D02*
X0129400Y0021198D01*
X0129400Y0021796D02*
X0129200Y0021796D01*
X0129200Y0022395D02*
X0129400Y0022395D01*
X0129400Y0022993D02*
X0129200Y0022993D01*
X0129200Y0023592D02*
X0129400Y0023592D01*
X0129614Y0024190D02*
X0128986Y0024190D01*
X0128738Y0024789D02*
X0129862Y0024789D01*
X0130109Y0025387D02*
X0128491Y0025387D01*
X0127944Y0025986D02*
X0130656Y0025986D01*
X0131255Y0026584D02*
X0127345Y0026584D01*
X0127200Y0027183D02*
X0131400Y0027183D01*
X0131400Y0027781D02*
X0127200Y0027781D01*
X0127200Y0028380D02*
X0131400Y0028380D01*
X0131400Y0028978D02*
X0127200Y0028978D01*
X0127200Y0029577D02*
X0131400Y0029577D01*
X0131400Y0030175D02*
X0127200Y0030175D01*
X0127200Y0030774D02*
X0131400Y0030774D01*
X0131400Y0031372D02*
X0127200Y0031372D01*
X0127200Y0031971D02*
X0131400Y0031971D01*
X0131400Y0032570D02*
X0127200Y0032570D01*
X0127200Y0033168D02*
X0131400Y0033168D01*
X0131400Y0033767D02*
X0127200Y0033767D01*
X0127200Y0034365D02*
X0131400Y0034365D01*
X0131400Y0034964D02*
X0127200Y0034964D01*
X0127200Y0035562D02*
X0131400Y0035562D01*
X0131400Y0036161D02*
X0127200Y0036161D01*
X0127687Y0036759D02*
X0130913Y0036759D01*
X0130427Y0037358D02*
X0128173Y0037358D01*
X0128421Y0037956D02*
X0130179Y0037956D01*
X0129931Y0038555D02*
X0128669Y0038555D01*
X0128775Y0039153D02*
X0129825Y0039153D01*
X0129825Y0039752D02*
X0128775Y0039752D01*
X0128775Y0040350D02*
X0129825Y0040350D01*
X0129974Y0040949D02*
X0128626Y0040949D01*
X0128378Y0041547D02*
X0130222Y0041547D01*
X0130470Y0042146D02*
X0128130Y0042146D01*
X0127584Y0042744D02*
X0131016Y0042744D01*
X0131614Y0043343D02*
X0126986Y0043343D01*
X0125754Y0043941D02*
X0132846Y0043941D01*
X0122846Y0043941D02*
X0115754Y0043941D01*
X0115190Y0044175D02*
X0113410Y0044175D01*
X0111765Y0043494D01*
X0110506Y0042235D01*
X0109825Y0040590D01*
X0109825Y0038810D01*
X0110506Y0037165D01*
X0111400Y0036272D01*
X0111400Y0026730D01*
X0110146Y0025476D01*
X0109400Y0023675D01*
X0109400Y0015725D01*
X0110146Y0013924D01*
X0111524Y0012546D01*
X0113325Y0011800D01*
X0115275Y0011800D01*
X0117076Y0012546D01*
X0118454Y0013924D01*
X0119200Y0015725D01*
X0119200Y0023675D01*
X0118454Y0025476D01*
X0117200Y0026730D01*
X0117200Y0036272D01*
X0118094Y0037165D01*
X0118775Y0038810D01*
X0118775Y0040590D01*
X0118094Y0042235D01*
X0116835Y0043494D01*
X0115190Y0044175D01*
X0116986Y0043343D02*
X0121614Y0043343D01*
X0121016Y0042744D02*
X0117584Y0042744D01*
X0118130Y0042146D02*
X0120470Y0042146D01*
X0120222Y0041547D02*
X0118378Y0041547D01*
X0118626Y0040949D02*
X0119974Y0040949D01*
X0119825Y0040350D02*
X0118775Y0040350D01*
X0118775Y0039752D02*
X0119825Y0039752D01*
X0119825Y0039153D02*
X0118775Y0039153D01*
X0118669Y0038555D02*
X0119931Y0038555D01*
X0120179Y0037956D02*
X0118421Y0037956D01*
X0118173Y0037358D02*
X0120427Y0037358D01*
X0120913Y0036759D02*
X0117687Y0036759D01*
X0117200Y0036161D02*
X0121400Y0036161D01*
X0121400Y0035562D02*
X0117200Y0035562D01*
X0117200Y0034964D02*
X0121400Y0034964D01*
X0121400Y0034365D02*
X0117200Y0034365D01*
X0117200Y0033767D02*
X0121400Y0033767D01*
X0121400Y0033168D02*
X0117200Y0033168D01*
X0117200Y0032570D02*
X0121400Y0032570D01*
X0121400Y0031971D02*
X0117200Y0031971D01*
X0117200Y0031372D02*
X0121400Y0031372D01*
X0121400Y0030774D02*
X0117200Y0030774D01*
X0117200Y0030175D02*
X0121400Y0030175D01*
X0121400Y0029577D02*
X0117200Y0029577D01*
X0117200Y0028978D02*
X0121400Y0028978D01*
X0121400Y0028380D02*
X0117200Y0028380D01*
X0117200Y0027781D02*
X0121400Y0027781D01*
X0121400Y0027183D02*
X0117200Y0027183D01*
X0117345Y0026584D02*
X0121255Y0026584D01*
X0120656Y0025986D02*
X0117944Y0025986D01*
X0118491Y0025387D02*
X0120109Y0025387D01*
X0119862Y0024789D02*
X0118738Y0024789D01*
X0118986Y0024190D02*
X0119614Y0024190D01*
X0119400Y0023592D02*
X0119200Y0023592D01*
X0119200Y0022993D02*
X0119400Y0022993D01*
X0119400Y0022395D02*
X0119200Y0022395D01*
X0119200Y0021796D02*
X0119400Y0021796D01*
X0119400Y0021198D02*
X0119200Y0021198D01*
X0119200Y0020599D02*
X0119400Y0020599D01*
X0119400Y0020001D02*
X0119200Y0020001D01*
X0119200Y0019402D02*
X0119400Y0019402D01*
X0119400Y0018804D02*
X0119200Y0018804D01*
X0119200Y0018205D02*
X0119400Y0018205D01*
X0119400Y0017607D02*
X0119200Y0017607D01*
X0119200Y0017008D02*
X0119400Y0017008D01*
X0119400Y0016410D02*
X0119200Y0016410D01*
X0119200Y0015811D02*
X0119400Y0015811D01*
X0119612Y0015213D02*
X0118988Y0015213D01*
X0118740Y0014614D02*
X0119860Y0014614D01*
X0120108Y0014016D02*
X0118492Y0014016D01*
X0117947Y0013417D02*
X0120653Y0013417D01*
X0121252Y0012819D02*
X0117348Y0012819D01*
X0116289Y0012220D02*
X0122311Y0012220D01*
X0112311Y0012220D02*
X0106289Y0012220D01*
X0107076Y0012546D02*
X0108454Y0013924D01*
X0109200Y0015725D01*
X0109200Y0023675D01*
X0108454Y0025476D01*
X0107200Y0026730D01*
X0107200Y0036272D01*
X0108094Y0037165D01*
X0108775Y0038810D01*
X0108775Y0040590D01*
X0108094Y0042235D01*
X0106835Y0043494D01*
X0105190Y0044175D01*
X0103410Y0044175D01*
X0101765Y0043494D01*
X0100506Y0042235D01*
X0099825Y0040590D01*
X0099825Y0038810D01*
X0100506Y0037165D01*
X0101400Y0036272D01*
X0101400Y0026730D01*
X0100146Y0025476D01*
X0099400Y0023675D01*
X0099400Y0015725D01*
X0100146Y0013924D01*
X0101524Y0012546D01*
X0103325Y0011800D01*
X0105275Y0011800D01*
X0107076Y0012546D01*
X0107348Y0012819D02*
X0111252Y0012819D01*
X0110653Y0013417D02*
X0107947Y0013417D01*
X0108492Y0014016D02*
X0110108Y0014016D01*
X0109860Y0014614D02*
X0108740Y0014614D01*
X0108988Y0015213D02*
X0109612Y0015213D01*
X0109400Y0015811D02*
X0109200Y0015811D01*
X0109200Y0016410D02*
X0109400Y0016410D01*
X0109400Y0017008D02*
X0109200Y0017008D01*
X0109200Y0017607D02*
X0109400Y0017607D01*
X0109400Y0018205D02*
X0109200Y0018205D01*
X0109200Y0018804D02*
X0109400Y0018804D01*
X0109400Y0019402D02*
X0109200Y0019402D01*
X0109200Y0020001D02*
X0109400Y0020001D01*
X0109400Y0020599D02*
X0109200Y0020599D01*
X0109200Y0021198D02*
X0109400Y0021198D01*
X0109400Y0021796D02*
X0109200Y0021796D01*
X0109200Y0022395D02*
X0109400Y0022395D01*
X0109400Y0022993D02*
X0109200Y0022993D01*
X0109200Y0023592D02*
X0109400Y0023592D01*
X0109614Y0024190D02*
X0108986Y0024190D01*
X0108738Y0024789D02*
X0109862Y0024789D01*
X0110109Y0025387D02*
X0108491Y0025387D01*
X0107944Y0025986D02*
X0110656Y0025986D01*
X0111255Y0026584D02*
X0107345Y0026584D01*
X0107200Y0027183D02*
X0111400Y0027183D01*
X0111400Y0027781D02*
X0107200Y0027781D01*
X0107200Y0028380D02*
X0111400Y0028380D01*
X0111400Y0028978D02*
X0107200Y0028978D01*
X0107200Y0029577D02*
X0111400Y0029577D01*
X0111400Y0030175D02*
X0107200Y0030175D01*
X0107200Y0030774D02*
X0111400Y0030774D01*
X0111400Y0031372D02*
X0107200Y0031372D01*
X0107200Y0031971D02*
X0111400Y0031971D01*
X0111400Y0032570D02*
X0107200Y0032570D01*
X0107200Y0033168D02*
X0111400Y0033168D01*
X0111400Y0033767D02*
X0107200Y0033767D01*
X0107200Y0034365D02*
X0111400Y0034365D01*
X0111400Y0034964D02*
X0107200Y0034964D01*
X0107200Y0035562D02*
X0111400Y0035562D01*
X0111400Y0036161D02*
X0107200Y0036161D01*
X0107687Y0036759D02*
X0110913Y0036759D01*
X0110427Y0037358D02*
X0108173Y0037358D01*
X0108421Y0037956D02*
X0110179Y0037956D01*
X0109931Y0038555D02*
X0108669Y0038555D01*
X0108775Y0039153D02*
X0109825Y0039153D01*
X0109825Y0039752D02*
X0108775Y0039752D01*
X0108775Y0040350D02*
X0109825Y0040350D01*
X0109974Y0040949D02*
X0108626Y0040949D01*
X0108378Y0041547D02*
X0110222Y0041547D01*
X0110470Y0042146D02*
X0108130Y0042146D01*
X0107584Y0042744D02*
X0111016Y0042744D01*
X0111614Y0043343D02*
X0106986Y0043343D01*
X0105754Y0043941D02*
X0112846Y0043941D01*
X0102846Y0043941D02*
X0095754Y0043941D01*
X0095190Y0044175D02*
X0093410Y0044175D01*
X0091765Y0043494D01*
X0090506Y0042235D01*
X0089825Y0040590D01*
X0089825Y0038810D01*
X0090506Y0037165D01*
X0091400Y0036272D01*
X0091400Y0026730D01*
X0090146Y0025476D01*
X0089400Y0023675D01*
X0089400Y0015725D01*
X0090146Y0013924D01*
X0091524Y0012546D01*
X0093325Y0011800D01*
X0095275Y0011800D01*
X0097076Y0012546D01*
X0098454Y0013924D01*
X0099200Y0015725D01*
X0099200Y0023675D01*
X0098454Y0025476D01*
X0097200Y0026730D01*
X0097200Y0036272D01*
X0098094Y0037165D01*
X0098775Y0038810D01*
X0098775Y0040590D01*
X0098094Y0042235D01*
X0096835Y0043494D01*
X0095190Y0044175D01*
X0096986Y0043343D02*
X0101614Y0043343D01*
X0101016Y0042744D02*
X0097584Y0042744D01*
X0098130Y0042146D02*
X0100470Y0042146D01*
X0100222Y0041547D02*
X0098378Y0041547D01*
X0098626Y0040949D02*
X0099974Y0040949D01*
X0099825Y0040350D02*
X0098775Y0040350D01*
X0098775Y0039752D02*
X0099825Y0039752D01*
X0099825Y0039153D02*
X0098775Y0039153D01*
X0098669Y0038555D02*
X0099931Y0038555D01*
X0100179Y0037956D02*
X0098421Y0037956D01*
X0098173Y0037358D02*
X0100427Y0037358D01*
X0100913Y0036759D02*
X0097687Y0036759D01*
X0097200Y0036161D02*
X0101400Y0036161D01*
X0101400Y0035562D02*
X0097200Y0035562D01*
X0097200Y0034964D02*
X0101400Y0034964D01*
X0101400Y0034365D02*
X0097200Y0034365D01*
X0097200Y0033767D02*
X0101400Y0033767D01*
X0101400Y0033168D02*
X0097200Y0033168D01*
X0097200Y0032570D02*
X0101400Y0032570D01*
X0101400Y0031971D02*
X0097200Y0031971D01*
X0097200Y0031372D02*
X0101400Y0031372D01*
X0101400Y0030774D02*
X0097200Y0030774D01*
X0097200Y0030175D02*
X0101400Y0030175D01*
X0101400Y0029577D02*
X0097200Y0029577D01*
X0097200Y0028978D02*
X0101400Y0028978D01*
X0101400Y0028380D02*
X0097200Y0028380D01*
X0097200Y0027781D02*
X0101400Y0027781D01*
X0101400Y0027183D02*
X0097200Y0027183D01*
X0097345Y0026584D02*
X0101255Y0026584D01*
X0100656Y0025986D02*
X0097944Y0025986D01*
X0098491Y0025387D02*
X0100109Y0025387D01*
X0099862Y0024789D02*
X0098738Y0024789D01*
X0098986Y0024190D02*
X0099614Y0024190D01*
X0099400Y0023592D02*
X0099200Y0023592D01*
X0099200Y0022993D02*
X0099400Y0022993D01*
X0099400Y0022395D02*
X0099200Y0022395D01*
X0099200Y0021796D02*
X0099400Y0021796D01*
X0099400Y0021198D02*
X0099200Y0021198D01*
X0099200Y0020599D02*
X0099400Y0020599D01*
X0099400Y0020001D02*
X0099200Y0020001D01*
X0099200Y0019402D02*
X0099400Y0019402D01*
X0099400Y0018804D02*
X0099200Y0018804D01*
X0099200Y0018205D02*
X0099400Y0018205D01*
X0099400Y0017607D02*
X0099200Y0017607D01*
X0099200Y0017008D02*
X0099400Y0017008D01*
X0099400Y0016410D02*
X0099200Y0016410D01*
X0099200Y0015811D02*
X0099400Y0015811D01*
X0099612Y0015213D02*
X0098988Y0015213D01*
X0098740Y0014614D02*
X0099860Y0014614D01*
X0100108Y0014016D02*
X0098492Y0014016D01*
X0097947Y0013417D02*
X0100653Y0013417D01*
X0101252Y0012819D02*
X0097348Y0012819D01*
X0096289Y0012220D02*
X0102311Y0012220D01*
X0092311Y0012220D02*
X0086289Y0012220D01*
X0087076Y0012546D02*
X0085275Y0011800D01*
X0083325Y0011800D01*
X0081524Y0012546D01*
X0080146Y0013924D01*
X0079400Y0015725D01*
X0079400Y0023675D01*
X0080146Y0025476D01*
X0081400Y0026730D01*
X0081400Y0036272D01*
X0080506Y0037165D01*
X0079825Y0038810D01*
X0079825Y0040590D01*
X0080506Y0042235D01*
X0081765Y0043494D01*
X0083410Y0044175D01*
X0085190Y0044175D01*
X0086835Y0043494D01*
X0088094Y0042235D01*
X0088775Y0040590D01*
X0088775Y0038810D01*
X0088094Y0037165D01*
X0087200Y0036272D01*
X0087200Y0026730D01*
X0088454Y0025476D01*
X0089200Y0023675D01*
X0089200Y0015725D01*
X0088454Y0013924D01*
X0087076Y0012546D01*
X0087348Y0012819D02*
X0091252Y0012819D01*
X0090653Y0013417D02*
X0087947Y0013417D01*
X0088492Y0014016D02*
X0090108Y0014016D01*
X0089860Y0014614D02*
X0088740Y0014614D01*
X0088988Y0015213D02*
X0089612Y0015213D01*
X0089400Y0015811D02*
X0089200Y0015811D01*
X0089200Y0016410D02*
X0089400Y0016410D01*
X0089400Y0017008D02*
X0089200Y0017008D01*
X0089200Y0017607D02*
X0089400Y0017607D01*
X0089400Y0018205D02*
X0089200Y0018205D01*
X0089200Y0018804D02*
X0089400Y0018804D01*
X0089400Y0019402D02*
X0089200Y0019402D01*
X0089200Y0020001D02*
X0089400Y0020001D01*
X0089400Y0020599D02*
X0089200Y0020599D01*
X0089200Y0021198D02*
X0089400Y0021198D01*
X0089400Y0021796D02*
X0089200Y0021796D01*
X0089200Y0022395D02*
X0089400Y0022395D01*
X0089400Y0022993D02*
X0089200Y0022993D01*
X0089200Y0023592D02*
X0089400Y0023592D01*
X0089614Y0024190D02*
X0088986Y0024190D01*
X0088738Y0024789D02*
X0089862Y0024789D01*
X0090109Y0025387D02*
X0088491Y0025387D01*
X0087944Y0025986D02*
X0090656Y0025986D01*
X0091255Y0026584D02*
X0087345Y0026584D01*
X0087200Y0027183D02*
X0091400Y0027183D01*
X0091400Y0027781D02*
X0087200Y0027781D01*
X0087200Y0028380D02*
X0091400Y0028380D01*
X0091400Y0028978D02*
X0087200Y0028978D01*
X0087200Y0029577D02*
X0091400Y0029577D01*
X0091400Y0030175D02*
X0087200Y0030175D01*
X0087200Y0030774D02*
X0091400Y0030774D01*
X0091400Y0031372D02*
X0087200Y0031372D01*
X0087200Y0031971D02*
X0091400Y0031971D01*
X0091400Y0032570D02*
X0087200Y0032570D01*
X0087200Y0033168D02*
X0091400Y0033168D01*
X0091400Y0033767D02*
X0087200Y0033767D01*
X0087200Y0034365D02*
X0091400Y0034365D01*
X0091400Y0034964D02*
X0087200Y0034964D01*
X0087200Y0035562D02*
X0091400Y0035562D01*
X0091400Y0036161D02*
X0087200Y0036161D01*
X0087687Y0036759D02*
X0090913Y0036759D01*
X0090427Y0037358D02*
X0088173Y0037358D01*
X0088421Y0037956D02*
X0090179Y0037956D01*
X0089931Y0038555D02*
X0088669Y0038555D01*
X0088775Y0039153D02*
X0089825Y0039153D01*
X0089825Y0039752D02*
X0088775Y0039752D01*
X0088775Y0040350D02*
X0089825Y0040350D01*
X0089974Y0040949D02*
X0088626Y0040949D01*
X0088378Y0041547D02*
X0090222Y0041547D01*
X0090470Y0042146D02*
X0088130Y0042146D01*
X0087584Y0042744D02*
X0091016Y0042744D01*
X0091614Y0043343D02*
X0086986Y0043343D01*
X0085754Y0043941D02*
X0092846Y0043941D01*
X0082846Y0043941D02*
X0075754Y0043941D01*
X0075190Y0044175D02*
X0073410Y0044175D01*
X0071765Y0043494D01*
X0070506Y0042235D01*
X0069825Y0040590D01*
X0069825Y0038810D01*
X0070506Y0037165D01*
X0071400Y0036272D01*
X0071400Y0026730D01*
X0070146Y0025476D01*
X0069400Y0023675D01*
X0069400Y0015725D01*
X0070146Y0013924D01*
X0071524Y0012546D01*
X0073325Y0011800D01*
X0075275Y0011800D01*
X0077076Y0012546D01*
X0078454Y0013924D01*
X0079200Y0015725D01*
X0079200Y0023675D01*
X0078454Y0025476D01*
X0077200Y0026730D01*
X0077200Y0036272D01*
X0078094Y0037165D01*
X0078775Y0038810D01*
X0078775Y0040590D01*
X0078094Y0042235D01*
X0076835Y0043494D01*
X0075190Y0044175D01*
X0076986Y0043343D02*
X0081614Y0043343D01*
X0081016Y0042744D02*
X0077584Y0042744D01*
X0078130Y0042146D02*
X0080470Y0042146D01*
X0080222Y0041547D02*
X0078378Y0041547D01*
X0078626Y0040949D02*
X0079974Y0040949D01*
X0079825Y0040350D02*
X0078775Y0040350D01*
X0078775Y0039752D02*
X0079825Y0039752D01*
X0079825Y0039153D02*
X0078775Y0039153D01*
X0078669Y0038555D02*
X0079931Y0038555D01*
X0080179Y0037956D02*
X0078421Y0037956D01*
X0078173Y0037358D02*
X0080427Y0037358D01*
X0080913Y0036759D02*
X0077687Y0036759D01*
X0077200Y0036161D02*
X0081400Y0036161D01*
X0081400Y0035562D02*
X0077200Y0035562D01*
X0077200Y0034964D02*
X0081400Y0034964D01*
X0081400Y0034365D02*
X0077200Y0034365D01*
X0077200Y0033767D02*
X0081400Y0033767D01*
X0081400Y0033168D02*
X0077200Y0033168D01*
X0077200Y0032570D02*
X0081400Y0032570D01*
X0081400Y0031971D02*
X0077200Y0031971D01*
X0077200Y0031372D02*
X0081400Y0031372D01*
X0081400Y0030774D02*
X0077200Y0030774D01*
X0077200Y0030175D02*
X0081400Y0030175D01*
X0081400Y0029577D02*
X0077200Y0029577D01*
X0077200Y0028978D02*
X0081400Y0028978D01*
X0081400Y0028380D02*
X0077200Y0028380D01*
X0077200Y0027781D02*
X0081400Y0027781D01*
X0081400Y0027183D02*
X0077200Y0027183D01*
X0077345Y0026584D02*
X0081255Y0026584D01*
X0080656Y0025986D02*
X0077944Y0025986D01*
X0078491Y0025387D02*
X0080109Y0025387D01*
X0079862Y0024789D02*
X0078738Y0024789D01*
X0078986Y0024190D02*
X0079614Y0024190D01*
X0079400Y0023592D02*
X0079200Y0023592D01*
X0079200Y0022993D02*
X0079400Y0022993D01*
X0079400Y0022395D02*
X0079200Y0022395D01*
X0079200Y0021796D02*
X0079400Y0021796D01*
X0079400Y0021198D02*
X0079200Y0021198D01*
X0079200Y0020599D02*
X0079400Y0020599D01*
X0079400Y0020001D02*
X0079200Y0020001D01*
X0079200Y0019402D02*
X0079400Y0019402D01*
X0079400Y0018804D02*
X0079200Y0018804D01*
X0079200Y0018205D02*
X0079400Y0018205D01*
X0079400Y0017607D02*
X0079200Y0017607D01*
X0079200Y0017008D02*
X0079400Y0017008D01*
X0079400Y0016410D02*
X0079200Y0016410D01*
X0079200Y0015811D02*
X0079400Y0015811D01*
X0079612Y0015213D02*
X0078988Y0015213D01*
X0078740Y0014614D02*
X0079860Y0014614D01*
X0080108Y0014016D02*
X0078492Y0014016D01*
X0077947Y0013417D02*
X0080653Y0013417D01*
X0081252Y0012819D02*
X0077348Y0012819D01*
X0076289Y0012220D02*
X0082311Y0012220D01*
X0072311Y0012220D02*
X0066289Y0012220D01*
X0067076Y0012546D02*
X0065275Y0011800D01*
X0063325Y0011800D01*
X0061524Y0012546D01*
X0060146Y0013924D01*
X0059400Y0015725D01*
X0059400Y0023675D01*
X0060146Y0025476D01*
X0061400Y0026730D01*
X0061400Y0036272D01*
X0060506Y0037165D01*
X0059825Y0038810D01*
X0059825Y0040590D01*
X0060506Y0042235D01*
X0061765Y0043494D01*
X0063410Y0044175D01*
X0065190Y0044175D01*
X0066835Y0043494D01*
X0068094Y0042235D01*
X0068775Y0040590D01*
X0068775Y0038810D01*
X0068094Y0037165D01*
X0067200Y0036272D01*
X0067200Y0026730D01*
X0068454Y0025476D01*
X0069200Y0023675D01*
X0069200Y0015725D01*
X0068454Y0013924D01*
X0067076Y0012546D01*
X0067348Y0012819D02*
X0071252Y0012819D01*
X0070653Y0013417D02*
X0067947Y0013417D01*
X0068492Y0014016D02*
X0070108Y0014016D01*
X0069860Y0014614D02*
X0068740Y0014614D01*
X0068988Y0015213D02*
X0069612Y0015213D01*
X0069400Y0015811D02*
X0069200Y0015811D01*
X0069200Y0016410D02*
X0069400Y0016410D01*
X0069400Y0017008D02*
X0069200Y0017008D01*
X0069200Y0017607D02*
X0069400Y0017607D01*
X0069400Y0018205D02*
X0069200Y0018205D01*
X0069200Y0018804D02*
X0069400Y0018804D01*
X0069400Y0019402D02*
X0069200Y0019402D01*
X0069200Y0020001D02*
X0069400Y0020001D01*
X0069400Y0020599D02*
X0069200Y0020599D01*
X0069200Y0021198D02*
X0069400Y0021198D01*
X0069400Y0021796D02*
X0069200Y0021796D01*
X0069200Y0022395D02*
X0069400Y0022395D01*
X0069400Y0022993D02*
X0069200Y0022993D01*
X0069200Y0023592D02*
X0069400Y0023592D01*
X0069614Y0024190D02*
X0068986Y0024190D01*
X0068738Y0024789D02*
X0069862Y0024789D01*
X0070109Y0025387D02*
X0068491Y0025387D01*
X0067944Y0025986D02*
X0070656Y0025986D01*
X0071255Y0026584D02*
X0067345Y0026584D01*
X0067200Y0027183D02*
X0071400Y0027183D01*
X0071400Y0027781D02*
X0067200Y0027781D01*
X0067200Y0028380D02*
X0071400Y0028380D01*
X0071400Y0028978D02*
X0067200Y0028978D01*
X0067200Y0029577D02*
X0071400Y0029577D01*
X0071400Y0030175D02*
X0067200Y0030175D01*
X0067200Y0030774D02*
X0071400Y0030774D01*
X0071400Y0031372D02*
X0067200Y0031372D01*
X0067200Y0031971D02*
X0071400Y0031971D01*
X0071400Y0032570D02*
X0067200Y0032570D01*
X0067200Y0033168D02*
X0071400Y0033168D01*
X0071400Y0033767D02*
X0067200Y0033767D01*
X0067200Y0034365D02*
X0071400Y0034365D01*
X0071400Y0034964D02*
X0067200Y0034964D01*
X0067200Y0035562D02*
X0071400Y0035562D01*
X0071400Y0036161D02*
X0067200Y0036161D01*
X0067687Y0036759D02*
X0070913Y0036759D01*
X0070427Y0037358D02*
X0068173Y0037358D01*
X0068421Y0037956D02*
X0070179Y0037956D01*
X0069931Y0038555D02*
X0068669Y0038555D01*
X0068775Y0039153D02*
X0069825Y0039153D01*
X0069825Y0039752D02*
X0068775Y0039752D01*
X0068775Y0040350D02*
X0069825Y0040350D01*
X0069974Y0040949D02*
X0068626Y0040949D01*
X0068378Y0041547D02*
X0070222Y0041547D01*
X0070470Y0042146D02*
X0068130Y0042146D01*
X0067584Y0042744D02*
X0071016Y0042744D01*
X0071614Y0043343D02*
X0066986Y0043343D01*
X0065754Y0043941D02*
X0072846Y0043941D01*
X0062846Y0043941D02*
X0055754Y0043941D01*
X0055190Y0044175D02*
X0053410Y0044175D01*
X0051765Y0043494D01*
X0050506Y0042235D01*
X0049825Y0040590D01*
X0049825Y0038810D01*
X0050506Y0037165D01*
X0051400Y0036272D01*
X0051400Y0026730D01*
X0050146Y0025476D01*
X0049400Y0023675D01*
X0049400Y0015725D01*
X0050146Y0013924D01*
X0051524Y0012546D01*
X0053325Y0011800D01*
X0055275Y0011800D01*
X0057076Y0012546D01*
X0058454Y0013924D01*
X0059200Y0015725D01*
X0059200Y0023675D01*
X0058454Y0025476D01*
X0057200Y0026730D01*
X0057200Y0036272D01*
X0058094Y0037165D01*
X0058775Y0038810D01*
X0058775Y0040590D01*
X0058094Y0042235D01*
X0056835Y0043494D01*
X0055190Y0044175D01*
X0056986Y0043343D02*
X0061614Y0043343D01*
X0061016Y0042744D02*
X0057584Y0042744D01*
X0058130Y0042146D02*
X0060470Y0042146D01*
X0060222Y0041547D02*
X0058378Y0041547D01*
X0058626Y0040949D02*
X0059974Y0040949D01*
X0059825Y0040350D02*
X0058775Y0040350D01*
X0058775Y0039752D02*
X0059825Y0039752D01*
X0059825Y0039153D02*
X0058775Y0039153D01*
X0058669Y0038555D02*
X0059931Y0038555D01*
X0060179Y0037956D02*
X0058421Y0037956D01*
X0058173Y0037358D02*
X0060427Y0037358D01*
X0060913Y0036759D02*
X0057687Y0036759D01*
X0057200Y0036161D02*
X0061400Y0036161D01*
X0061400Y0035562D02*
X0057200Y0035562D01*
X0057200Y0034964D02*
X0061400Y0034964D01*
X0061400Y0034365D02*
X0057200Y0034365D01*
X0057200Y0033767D02*
X0061400Y0033767D01*
X0061400Y0033168D02*
X0057200Y0033168D01*
X0057200Y0032570D02*
X0061400Y0032570D01*
X0061400Y0031971D02*
X0057200Y0031971D01*
X0057200Y0031372D02*
X0061400Y0031372D01*
X0061400Y0030774D02*
X0057200Y0030774D01*
X0057200Y0030175D02*
X0061400Y0030175D01*
X0061400Y0029577D02*
X0057200Y0029577D01*
X0057200Y0028978D02*
X0061400Y0028978D01*
X0061400Y0028380D02*
X0057200Y0028380D01*
X0057200Y0027781D02*
X0061400Y0027781D01*
X0061400Y0027183D02*
X0057200Y0027183D01*
X0057345Y0026584D02*
X0061255Y0026584D01*
X0060656Y0025986D02*
X0057944Y0025986D01*
X0058491Y0025387D02*
X0060109Y0025387D01*
X0059862Y0024789D02*
X0058738Y0024789D01*
X0058986Y0024190D02*
X0059614Y0024190D01*
X0059400Y0023592D02*
X0059200Y0023592D01*
X0059200Y0022993D02*
X0059400Y0022993D01*
X0059400Y0022395D02*
X0059200Y0022395D01*
X0059200Y0021796D02*
X0059400Y0021796D01*
X0059400Y0021198D02*
X0059200Y0021198D01*
X0059200Y0020599D02*
X0059400Y0020599D01*
X0059400Y0020001D02*
X0059200Y0020001D01*
X0059200Y0019402D02*
X0059400Y0019402D01*
X0059400Y0018804D02*
X0059200Y0018804D01*
X0059200Y0018205D02*
X0059400Y0018205D01*
X0059400Y0017607D02*
X0059200Y0017607D01*
X0059200Y0017008D02*
X0059400Y0017008D01*
X0059400Y0016410D02*
X0059200Y0016410D01*
X0059200Y0015811D02*
X0059400Y0015811D01*
X0059612Y0015213D02*
X0058988Y0015213D01*
X0058740Y0014614D02*
X0059860Y0014614D01*
X0060108Y0014016D02*
X0058492Y0014016D01*
X0057947Y0013417D02*
X0060653Y0013417D01*
X0061252Y0012819D02*
X0057348Y0012819D01*
X0056289Y0012220D02*
X0062311Y0012220D01*
X0052311Y0012220D02*
X0046289Y0012220D01*
X0047348Y0012819D02*
X0051252Y0012819D01*
X0050653Y0013417D02*
X0047947Y0013417D01*
X0048492Y0014016D02*
X0050108Y0014016D01*
X0049860Y0014614D02*
X0048740Y0014614D01*
X0048988Y0015213D02*
X0049612Y0015213D01*
X0049400Y0015811D02*
X0049200Y0015811D01*
X0049200Y0016410D02*
X0049400Y0016410D01*
X0049400Y0017008D02*
X0049200Y0017008D01*
X0049200Y0017607D02*
X0049400Y0017607D01*
X0049400Y0018205D02*
X0049200Y0018205D01*
X0049200Y0018804D02*
X0049400Y0018804D01*
X0049400Y0019402D02*
X0049200Y0019402D01*
X0049200Y0020001D02*
X0049400Y0020001D01*
X0049400Y0020599D02*
X0049200Y0020599D01*
X0049200Y0021198D02*
X0049400Y0021198D01*
X0049400Y0021796D02*
X0049200Y0021796D01*
X0049200Y0022395D02*
X0049400Y0022395D01*
X0049400Y0022993D02*
X0049200Y0022993D01*
X0049200Y0023592D02*
X0049400Y0023592D01*
X0049614Y0024190D02*
X0048986Y0024190D01*
X0048738Y0024789D02*
X0049862Y0024789D01*
X0050109Y0025387D02*
X0048491Y0025387D01*
X0047944Y0025986D02*
X0050656Y0025986D01*
X0051255Y0026584D02*
X0047345Y0026584D01*
X0047200Y0027183D02*
X0051400Y0027183D01*
X0051400Y0027781D02*
X0047200Y0027781D01*
X0047200Y0028380D02*
X0051400Y0028380D01*
X0051400Y0028978D02*
X0047200Y0028978D01*
X0047200Y0029577D02*
X0051400Y0029577D01*
X0051400Y0030175D02*
X0047200Y0030175D01*
X0047200Y0030774D02*
X0051400Y0030774D01*
X0051400Y0031372D02*
X0047200Y0031372D01*
X0047200Y0031971D02*
X0051400Y0031971D01*
X0051400Y0032570D02*
X0047200Y0032570D01*
X0047200Y0033168D02*
X0051400Y0033168D01*
X0051400Y0033767D02*
X0047200Y0033767D01*
X0047200Y0034365D02*
X0051400Y0034365D01*
X0051400Y0034964D02*
X0047200Y0034964D01*
X0047200Y0035562D02*
X0051400Y0035562D01*
X0051400Y0036161D02*
X0047200Y0036161D01*
X0047687Y0036759D02*
X0050913Y0036759D01*
X0050427Y0037358D02*
X0048173Y0037358D01*
X0048421Y0037956D02*
X0050179Y0037956D01*
X0049931Y0038555D02*
X0048669Y0038555D01*
X0048775Y0039153D02*
X0049825Y0039153D01*
X0049825Y0039752D02*
X0048775Y0039752D01*
X0048775Y0040350D02*
X0049825Y0040350D01*
X0049974Y0040949D02*
X0048626Y0040949D01*
X0048378Y0041547D02*
X0050222Y0041547D01*
X0050470Y0042146D02*
X0048130Y0042146D01*
X0047800Y0042744D02*
X0051016Y0042744D01*
X0051614Y0043343D02*
X0047800Y0043343D01*
X0047800Y0043941D02*
X0052846Y0043941D01*
X0041400Y0036161D02*
X0038597Y0036161D01*
X0038775Y0036759D02*
X0040913Y0036759D01*
X0040427Y0037358D02*
X0038775Y0037358D01*
X0038775Y0037956D02*
X0040179Y0037956D01*
X0039931Y0038555D02*
X0038775Y0038555D01*
X0038775Y0039153D02*
X0039825Y0039153D01*
X0039825Y0039752D02*
X0038775Y0039752D01*
X0038775Y0040350D02*
X0039825Y0040350D01*
X0039974Y0040949D02*
X0038775Y0040949D01*
X0038775Y0041547D02*
X0040222Y0041547D01*
X0040470Y0042146D02*
X0038775Y0042146D01*
X0038775Y0042744D02*
X0040800Y0042744D01*
X0040800Y0043343D02*
X0038494Y0043343D01*
X0037895Y0043941D02*
X0040800Y0043941D01*
X0040800Y0044540D02*
X0017461Y0044540D01*
X0016863Y0045138D02*
X0040800Y0045138D01*
X0040800Y0045737D02*
X0016264Y0045737D01*
X0015666Y0046335D02*
X0040800Y0046335D01*
X0040800Y0046934D02*
X0015067Y0046934D01*
X0014469Y0047532D02*
X0040800Y0047532D01*
X0040800Y0048131D02*
X0013870Y0048131D01*
X0013272Y0048729D02*
X0040800Y0048729D01*
X0040800Y0049328D02*
X0013150Y0049328D01*
X0013150Y0049926D02*
X0040800Y0049926D01*
X0040800Y0050525D02*
X0013150Y0050525D01*
X0013150Y0051123D02*
X0040800Y0051123D01*
X0040800Y0051722D02*
X0013150Y0051722D01*
X0013150Y0052320D02*
X0040800Y0052320D01*
X0040800Y0052919D02*
X0013150Y0052919D01*
X0013150Y0053517D02*
X0040800Y0053517D01*
X0040800Y0054116D02*
X0013150Y0054116D01*
X0013150Y0054714D02*
X0040800Y0054714D01*
X0040800Y0055313D02*
X0013150Y0055313D01*
X0013150Y0055911D02*
X0040800Y0055911D01*
X0040800Y0056510D02*
X0013150Y0056510D01*
X0013150Y0057108D02*
X0040800Y0057108D01*
X0040800Y0057707D02*
X0013150Y0057707D01*
X0013150Y0058305D02*
X0040800Y0058305D01*
X0040800Y0058904D02*
X0013150Y0058904D01*
X0013150Y0059503D02*
X0040800Y0059503D01*
X0040800Y0060101D02*
X0013150Y0060101D01*
X0013150Y0060700D02*
X0040800Y0060700D01*
X0040800Y0061298D02*
X0013150Y0061298D01*
X0013150Y0061897D02*
X0040800Y0061897D01*
X0040800Y0062495D02*
X0013150Y0062495D01*
X0013150Y0063094D02*
X0040800Y0063094D01*
X0040800Y0063692D02*
X0013150Y0063692D01*
X0013150Y0064291D02*
X0040800Y0064291D01*
X0040800Y0064889D02*
X0013150Y0064889D01*
X0013150Y0065488D02*
X0040800Y0065488D01*
X0040800Y0066086D02*
X0013150Y0066086D01*
X0013150Y0066685D02*
X0027534Y0066685D01*
X0026867Y0067283D02*
X0013150Y0067283D01*
X0013150Y0067882D02*
X0026269Y0067882D01*
X0025670Y0068480D02*
X0013150Y0068480D01*
X0013150Y0069079D02*
X0025072Y0069079D01*
X0024473Y0069677D02*
X0013150Y0069677D01*
X0013150Y0070276D02*
X0023875Y0070276D01*
X0023276Y0070874D02*
X0013150Y0070874D01*
X0013150Y0071473D02*
X0022677Y0071473D01*
X0022079Y0072071D02*
X0013150Y0072071D01*
X0013150Y0072670D02*
X0021480Y0072670D01*
X0020882Y0073268D02*
X0013150Y0073268D01*
X0013150Y0073867D02*
X0020283Y0073867D01*
X0019685Y0074465D02*
X0013150Y0074465D01*
X0013150Y0075064D02*
X0019086Y0075064D01*
X0018488Y0075662D02*
X0013150Y0075662D01*
X0013150Y0076261D02*
X0017889Y0076261D01*
X0017291Y0076859D02*
X0013150Y0076859D01*
X0013150Y0077458D02*
X0016692Y0077458D01*
X0016094Y0078056D02*
X0013150Y0078056D01*
X0013150Y0078655D02*
X0015495Y0078655D01*
X0014897Y0079253D02*
X0013150Y0079253D01*
X0013150Y0079852D02*
X0014298Y0079852D01*
X0013895Y0080450D02*
X0013150Y0080450D01*
X0013150Y0081049D02*
X0013647Y0081049D01*
X0013500Y0081647D02*
X0013150Y0081647D01*
X0013150Y0082246D02*
X0013500Y0082246D01*
X0013500Y0082844D02*
X0013150Y0082844D01*
X0013150Y0083443D02*
X0013500Y0083443D01*
X0013500Y0084041D02*
X0013150Y0084041D01*
X0013150Y0084640D02*
X0013500Y0084640D01*
X0013500Y0085239D02*
X0013150Y0085239D01*
X0013150Y0085837D02*
X0013500Y0085837D01*
X0013500Y0086436D02*
X0013150Y0086436D01*
X0013150Y0087034D02*
X0013500Y0087034D01*
X0013500Y0087633D02*
X0013150Y0087633D01*
X0013150Y0088231D02*
X0013500Y0088231D01*
X0013500Y0088830D02*
X0013150Y0088830D01*
X0013150Y0089428D02*
X0013500Y0089428D01*
X0013500Y0090027D02*
X0013150Y0090027D01*
X0013150Y0090625D02*
X0013500Y0090625D01*
X0013500Y0091224D02*
X0013150Y0091224D01*
X0013150Y0091822D02*
X0013500Y0091822D01*
X0013500Y0092421D02*
X0013150Y0092421D01*
X0013150Y0093019D02*
X0013500Y0093019D01*
X0013500Y0093618D02*
X0013150Y0093618D01*
X0013150Y0094216D02*
X0013500Y0094216D01*
X0013500Y0094815D02*
X0013150Y0094815D01*
X0013150Y0095413D02*
X0013500Y0095413D01*
X0013500Y0096012D02*
X0013150Y0096012D01*
X0013150Y0096610D02*
X0013500Y0096610D01*
X0013500Y0097209D02*
X0013150Y0097209D01*
X0013150Y0097807D02*
X0013500Y0097807D01*
X0013500Y0098406D02*
X0013150Y0098406D01*
X0013150Y0099004D02*
X0013500Y0099004D01*
X0013500Y0099603D02*
X0013150Y0099603D01*
X0013150Y0100201D02*
X0013500Y0100201D01*
X0013500Y0100800D02*
X0013150Y0100800D01*
X0013150Y0101398D02*
X0013500Y0101398D01*
X0013500Y0101997D02*
X0013150Y0101997D01*
X0013150Y0102595D02*
X0013500Y0102595D01*
X0013500Y0103194D02*
X0013150Y0103194D01*
X0013150Y0103792D02*
X0013500Y0103792D01*
X0013500Y0104391D02*
X0013150Y0104391D01*
X0013150Y0104989D02*
X0013500Y0104989D01*
X0013500Y0105588D02*
X0013150Y0105588D01*
X0013150Y0106186D02*
X0013500Y0106186D01*
X0013500Y0106785D02*
X0013150Y0106785D01*
X0013150Y0107383D02*
X0013500Y0107383D01*
X0013500Y0107982D02*
X0013150Y0107982D01*
X0013150Y0108580D02*
X0013500Y0108580D01*
X0013500Y0109179D02*
X0013150Y0109179D01*
X0013150Y0109777D02*
X0013500Y0109777D01*
X0013500Y0110376D02*
X0013150Y0110376D01*
X0013150Y0110974D02*
X0013500Y0110974D01*
X0013500Y0111573D02*
X0013150Y0111573D01*
X0013150Y0112172D02*
X0013500Y0112172D01*
X0013500Y0112770D02*
X0013150Y0112770D01*
X0013150Y0113369D02*
X0013500Y0113369D01*
X0013500Y0113967D02*
X0013150Y0113967D01*
X0013150Y0114566D02*
X0013500Y0114566D01*
X0013500Y0115164D02*
X0013150Y0115164D01*
X0013150Y0115763D02*
X0013500Y0115763D01*
X0013500Y0116361D02*
X0013150Y0116361D01*
X0013150Y0116960D02*
X0013500Y0116960D01*
X0013500Y0117558D02*
X0013150Y0117558D01*
X0013150Y0118157D02*
X0013500Y0118157D01*
X0013500Y0118755D02*
X0013150Y0118755D01*
X0013150Y0119354D02*
X0013500Y0119354D01*
X0013500Y0119952D02*
X0013150Y0119952D01*
X0013150Y0120551D02*
X0013500Y0120551D01*
X0013500Y0121149D02*
X0013150Y0121149D01*
X0013150Y0121748D02*
X0013500Y0121748D01*
X0013500Y0122346D02*
X0013150Y0122346D01*
X0013150Y0122945D02*
X0013500Y0122945D01*
X0013500Y0123543D02*
X0013150Y0123543D01*
X0013150Y0124142D02*
X0013500Y0124142D01*
X0013500Y0124740D02*
X0013150Y0124740D01*
X0013150Y0125339D02*
X0013500Y0125339D01*
X0013500Y0125937D02*
X0013150Y0125937D01*
X0013150Y0126536D02*
X0013500Y0126536D01*
X0013500Y0127134D02*
X0013150Y0127134D01*
X0013150Y0127733D02*
X0013500Y0127733D01*
X0013500Y0128331D02*
X0013150Y0128331D01*
X0013150Y0128930D02*
X0013500Y0128930D01*
X0013328Y0129528D02*
X0013150Y0129528D01*
X0020500Y0128930D02*
X0021738Y0128930D01*
X0022336Y0128331D02*
X0020500Y0128331D01*
X0020500Y0127733D02*
X0031400Y0127733D01*
X0031400Y0127134D02*
X0020500Y0127134D01*
X0020500Y0126536D02*
X0031206Y0126536D01*
X0030608Y0125937D02*
X0020500Y0125937D01*
X0020500Y0125339D02*
X0030089Y0125339D01*
X0029841Y0124740D02*
X0020500Y0124740D01*
X0020500Y0124142D02*
X0029593Y0124142D01*
X0029400Y0123543D02*
X0020500Y0123543D01*
X0020500Y0122945D02*
X0029400Y0122945D01*
X0029400Y0122346D02*
X0020500Y0122346D01*
X0020500Y0121748D02*
X0029400Y0121748D01*
X0029400Y0121149D02*
X0020500Y0121149D01*
X0020500Y0120551D02*
X0029400Y0120551D01*
X0029400Y0119952D02*
X0020500Y0119952D01*
X0020500Y0119354D02*
X0029400Y0119354D01*
X0029400Y0118755D02*
X0020500Y0118755D01*
X0020500Y0118157D02*
X0029400Y0118157D01*
X0029400Y0117558D02*
X0020500Y0117558D01*
X0020500Y0116960D02*
X0029400Y0116960D01*
X0029400Y0116361D02*
X0020500Y0116361D01*
X0020500Y0115763D02*
X0029400Y0115763D01*
X0029632Y0115164D02*
X0020500Y0115164D01*
X0020500Y0114566D02*
X0029880Y0114566D01*
X0030128Y0113967D02*
X0020500Y0113967D01*
X0020500Y0113369D02*
X0030702Y0113369D01*
X0031300Y0112770D02*
X0020500Y0112770D01*
X0020500Y0112172D02*
X0031400Y0112172D01*
X0031400Y0111573D02*
X0020500Y0111573D01*
X0020500Y0110974D02*
X0031400Y0110974D01*
X0031400Y0110376D02*
X0020500Y0110376D01*
X0020500Y0109777D02*
X0031400Y0109777D01*
X0031400Y0109179D02*
X0020500Y0109179D01*
X0020500Y0108580D02*
X0031400Y0108580D01*
X0031400Y0107982D02*
X0020500Y0107982D01*
X0020500Y0107383D02*
X0031400Y0107383D01*
X0031400Y0106785D02*
X0020500Y0106785D01*
X0020500Y0106186D02*
X0031400Y0106186D01*
X0031400Y0105588D02*
X0020500Y0105588D01*
X0020500Y0104989D02*
X0031400Y0104989D01*
X0031400Y0104391D02*
X0020500Y0104391D01*
X0020500Y0103792D02*
X0031400Y0103792D01*
X0031400Y0103194D02*
X0020500Y0103194D01*
X0020500Y0102595D02*
X0030867Y0102595D01*
X0030408Y0101997D02*
X0020500Y0101997D01*
X0020500Y0101398D02*
X0030160Y0101398D01*
X0029912Y0100800D02*
X0020500Y0100800D01*
X0020500Y0100201D02*
X0029825Y0100201D01*
X0029825Y0099603D02*
X0020500Y0099603D01*
X0020500Y0099004D02*
X0029825Y0099004D01*
X0029993Y0098406D02*
X0020500Y0098406D01*
X0020500Y0097807D02*
X0030241Y0097807D01*
X0030488Y0097209D02*
X0020500Y0097209D01*
X0020500Y0096610D02*
X0031061Y0096610D01*
X0031660Y0096012D02*
X0020500Y0096012D01*
X0020500Y0095413D02*
X0032956Y0095413D01*
X0035644Y0095413D02*
X0042956Y0095413D01*
X0041660Y0096012D02*
X0036940Y0096012D01*
X0037539Y0096610D02*
X0041061Y0096610D01*
X0040488Y0097209D02*
X0038112Y0097209D01*
X0038359Y0097807D02*
X0040241Y0097807D01*
X0039993Y0098406D02*
X0038607Y0098406D01*
X0038775Y0099004D02*
X0039825Y0099004D01*
X0039825Y0099603D02*
X0038775Y0099603D01*
X0038775Y0100201D02*
X0039825Y0100201D01*
X0039912Y0100800D02*
X0038688Y0100800D01*
X0038440Y0101398D02*
X0040160Y0101398D01*
X0040408Y0101997D02*
X0038192Y0101997D01*
X0037733Y0102595D02*
X0040867Y0102595D01*
X0041400Y0103194D02*
X0037200Y0103194D01*
X0037200Y0103792D02*
X0041400Y0103792D01*
X0041400Y0104391D02*
X0037200Y0104391D01*
X0037200Y0104989D02*
X0041400Y0104989D01*
X0041400Y0105588D02*
X0037200Y0105588D01*
X0037200Y0106186D02*
X0041400Y0106186D01*
X0041400Y0106785D02*
X0037200Y0106785D01*
X0037200Y0107383D02*
X0041400Y0107383D01*
X0041400Y0107982D02*
X0037200Y0107982D01*
X0037200Y0108580D02*
X0041400Y0108580D01*
X0041400Y0109179D02*
X0037200Y0109179D01*
X0037200Y0109777D02*
X0041400Y0109777D01*
X0041400Y0110376D02*
X0037200Y0110376D01*
X0037200Y0110974D02*
X0041400Y0110974D01*
X0041400Y0111573D02*
X0037200Y0111573D01*
X0037200Y0112172D02*
X0041400Y0112172D01*
X0041300Y0112770D02*
X0037300Y0112770D01*
X0037898Y0113369D02*
X0040702Y0113369D01*
X0040128Y0113967D02*
X0038472Y0113967D01*
X0038720Y0114566D02*
X0039880Y0114566D01*
X0039632Y0115164D02*
X0038968Y0115164D01*
X0039200Y0115763D02*
X0039400Y0115763D01*
X0039400Y0116361D02*
X0039200Y0116361D01*
X0039200Y0116960D02*
X0039400Y0116960D01*
X0039400Y0117558D02*
X0039200Y0117558D01*
X0039200Y0118157D02*
X0039400Y0118157D01*
X0039400Y0118755D02*
X0039200Y0118755D01*
X0039200Y0119354D02*
X0039400Y0119354D01*
X0039400Y0119952D02*
X0039200Y0119952D01*
X0039200Y0120551D02*
X0039400Y0120551D01*
X0039400Y0121149D02*
X0039200Y0121149D01*
X0039200Y0121748D02*
X0039400Y0121748D01*
X0039400Y0122346D02*
X0039200Y0122346D01*
X0039200Y0122945D02*
X0039400Y0122945D01*
X0039400Y0123543D02*
X0039200Y0123543D01*
X0039007Y0124142D02*
X0039593Y0124142D01*
X0039841Y0124740D02*
X0038759Y0124740D01*
X0038511Y0125339D02*
X0040089Y0125339D01*
X0040608Y0125937D02*
X0037992Y0125937D01*
X0037737Y0126536D02*
X0041206Y0126536D01*
X0042201Y0127134D02*
X0038336Y0127134D01*
X0038934Y0127733D02*
X0048232Y0127733D01*
X0048830Y0128331D02*
X0039533Y0128331D01*
X0040131Y0128930D02*
X0049429Y0128930D01*
X0050027Y0129528D02*
X0040730Y0129528D01*
X0041328Y0130127D02*
X0050626Y0130127D01*
X0051224Y0130725D02*
X0041927Y0130725D01*
X0042525Y0131324D02*
X0051823Y0131324D01*
X0052421Y0131922D02*
X0043124Y0131922D01*
X0043722Y0132521D02*
X0053532Y0132521D01*
X0054000Y0135513D02*
X0054600Y0135513D01*
X0054600Y0136112D02*
X0054000Y0136112D01*
X0054000Y0136710D02*
X0054600Y0136710D01*
X0054600Y0137309D02*
X0054000Y0137309D01*
X0054000Y0137908D02*
X0054600Y0137908D01*
X0054600Y0138506D02*
X0054000Y0138506D01*
X0054000Y0139105D02*
X0054600Y0139105D01*
X0051807Y0136112D02*
X0047313Y0136112D01*
X0046715Y0135513D02*
X0052405Y0135513D01*
X0051208Y0136710D02*
X0047912Y0136710D01*
X0048510Y0137309D02*
X0050610Y0137309D01*
X0050011Y0137908D02*
X0049109Y0137908D01*
X0049707Y0138506D02*
X0050000Y0138506D01*
X0046116Y0134915D02*
X0056400Y0134915D01*
X0056400Y0135513D02*
X0056195Y0135513D01*
X0056400Y0134316D02*
X0045518Y0134316D01*
X0044919Y0133718D02*
X0056400Y0133718D01*
X0056400Y0133119D02*
X0044321Y0133119D01*
X0039709Y0136710D02*
X0020500Y0136710D01*
X0020500Y0136112D02*
X0039111Y0136112D01*
X0038512Y0135513D02*
X0025619Y0135513D01*
X0026218Y0134915D02*
X0037914Y0134915D01*
X0037315Y0134316D02*
X0026816Y0134316D01*
X0027415Y0133718D02*
X0036717Y0133718D01*
X0036118Y0133119D02*
X0027700Y0133119D01*
X0027700Y0132521D02*
X0035520Y0132521D01*
X0034921Y0131922D02*
X0024300Y0131922D01*
X0024300Y0131324D02*
X0023700Y0131324D01*
X0023700Y0130725D02*
X0024300Y0130725D01*
X0024300Y0130127D02*
X0023700Y0130127D01*
X0023700Y0129528D02*
X0024300Y0129528D01*
X0024300Y0128930D02*
X0023700Y0128930D01*
X0023700Y0128331D02*
X0024300Y0128331D01*
X0025664Y0128331D02*
X0031630Y0128331D01*
X0031929Y0128930D02*
X0026262Y0128930D01*
X0026861Y0129528D02*
X0032527Y0129528D01*
X0033126Y0130127D02*
X0027459Y0130127D01*
X0027700Y0130725D02*
X0033724Y0130725D01*
X0034323Y0131324D02*
X0027700Y0131324D01*
X0024300Y0132521D02*
X0023700Y0132521D01*
X0023700Y0133119D02*
X0024300Y0133119D01*
X0024300Y0133718D02*
X0023700Y0133718D01*
X0023700Y0134316D02*
X0024300Y0134316D01*
X0024300Y0134915D02*
X0023700Y0134915D01*
X0023700Y0135513D02*
X0024300Y0135513D01*
X0022381Y0135513D02*
X0020500Y0135513D01*
X0020500Y0134915D02*
X0021782Y0134915D01*
X0021184Y0134316D02*
X0020653Y0134316D01*
X0020500Y0137309D02*
X0040308Y0137309D01*
X0040906Y0137908D02*
X0020500Y0137908D01*
X0020556Y0138506D02*
X0041505Y0138506D01*
X0042103Y0139105D02*
X0021154Y0139105D01*
X0021753Y0139703D02*
X0042702Y0139703D01*
X0043300Y0140302D02*
X0022351Y0140302D01*
X0022950Y0140900D02*
X0043899Y0140900D01*
X0044497Y0141499D02*
X0023548Y0141499D01*
X0024147Y0142097D02*
X0045096Y0142097D01*
X0045694Y0142696D02*
X0024745Y0142696D01*
X0025344Y0143294D02*
X0046293Y0143294D01*
X0046891Y0143893D02*
X0025942Y0143893D01*
X0026541Y0144491D02*
X0047490Y0144491D01*
X0048088Y0145090D02*
X0027139Y0145090D01*
X0027738Y0145688D02*
X0048687Y0145688D01*
X0049285Y0146287D02*
X0034619Y0146287D01*
X0035218Y0146885D02*
X0049884Y0146885D01*
X0049587Y0147484D02*
X0035816Y0147484D01*
X0036415Y0148082D02*
X0049400Y0148082D01*
X0049400Y0148681D02*
X0036500Y0148681D01*
X0036500Y0149279D02*
X0049400Y0149279D01*
X0049400Y0149878D02*
X0033100Y0149878D01*
X0033100Y0150476D02*
X0032500Y0150476D01*
X0032500Y0151075D02*
X0033100Y0151075D01*
X0033100Y0151673D02*
X0032500Y0151673D01*
X0032500Y0152272D02*
X0033100Y0152272D01*
X0033100Y0152870D02*
X0032500Y0152870D01*
X0030900Y0153469D02*
X0050800Y0153469D01*
X0050800Y0154067D02*
X0030900Y0154067D01*
X0030900Y0154666D02*
X0050800Y0154666D01*
X0050541Y0152870D02*
X0034862Y0152870D01*
X0035461Y0152272D02*
X0049942Y0152272D01*
X0049400Y0151673D02*
X0036059Y0151673D01*
X0036500Y0151075D02*
X0049400Y0151075D01*
X0049400Y0150476D02*
X0036500Y0150476D01*
X0033100Y0149279D02*
X0032500Y0149279D01*
X0032500Y0148681D02*
X0033100Y0148681D01*
X0033100Y0148082D02*
X0032500Y0148082D01*
X0032500Y0147484D02*
X0033100Y0147484D01*
X0033100Y0146885D02*
X0032500Y0146885D01*
X0032500Y0146287D02*
X0033100Y0146287D01*
X0030981Y0146287D02*
X0028468Y0146287D01*
X0029535Y0146885D02*
X0030382Y0146885D01*
X0019566Y0154067D02*
X0018432Y0154067D01*
X0018087Y0153469D02*
X0018968Y0153469D01*
X0018369Y0152870D02*
X0017503Y0152870D01*
X0017771Y0152272D02*
X0016905Y0152272D01*
X0017172Y0151673D02*
X0016306Y0151673D01*
X0016574Y0151075D02*
X0015372Y0151075D01*
X0015975Y0150476D02*
X0014335Y0150476D01*
X0015377Y0149878D02*
X0012674Y0149878D01*
X0018778Y0154666D02*
X0020000Y0154666D01*
X0020000Y0155264D02*
X0019123Y0155264D01*
X0019437Y0155863D02*
X0020000Y0155863D01*
X0020000Y0156461D02*
X0019598Y0156461D01*
X0019758Y0157060D02*
X0020000Y0157060D01*
X0020000Y0157658D02*
X0019918Y0157658D01*
X0020672Y0129528D02*
X0021139Y0129528D01*
X0046399Y0127134D02*
X0047633Y0127134D01*
X0049252Y0120551D02*
X0049400Y0120551D01*
X0049400Y0119952D02*
X0049200Y0119952D01*
X0049200Y0119354D02*
X0049400Y0119354D01*
X0049400Y0118755D02*
X0049200Y0118755D01*
X0049200Y0118157D02*
X0049400Y0118157D01*
X0049400Y0117558D02*
X0049200Y0117558D01*
X0049200Y0116960D02*
X0049400Y0116960D01*
X0049400Y0116361D02*
X0049200Y0116361D01*
X0049200Y0115763D02*
X0049400Y0115763D01*
X0049632Y0115164D02*
X0048968Y0115164D01*
X0048720Y0114566D02*
X0049880Y0114566D01*
X0050128Y0113967D02*
X0048472Y0113967D01*
X0047898Y0113369D02*
X0050702Y0113369D01*
X0051300Y0112770D02*
X0047300Y0112770D01*
X0047200Y0112172D02*
X0051400Y0112172D01*
X0051400Y0111573D02*
X0047200Y0111573D01*
X0047200Y0110974D02*
X0051400Y0110974D01*
X0051400Y0110376D02*
X0047200Y0110376D01*
X0047200Y0109777D02*
X0051400Y0109777D01*
X0051400Y0109179D02*
X0047200Y0109179D01*
X0047200Y0108580D02*
X0051400Y0108580D01*
X0051400Y0107982D02*
X0047200Y0107982D01*
X0047200Y0107383D02*
X0051400Y0107383D01*
X0051400Y0106785D02*
X0047200Y0106785D01*
X0047200Y0106186D02*
X0051400Y0106186D01*
X0051400Y0105588D02*
X0047200Y0105588D01*
X0047200Y0104989D02*
X0051400Y0104989D01*
X0051400Y0104391D02*
X0047200Y0104391D01*
X0047200Y0103792D02*
X0051400Y0103792D01*
X0051400Y0103194D02*
X0047200Y0103194D01*
X0047733Y0102595D02*
X0050867Y0102595D01*
X0050408Y0101997D02*
X0048192Y0101997D01*
X0048440Y0101398D02*
X0050160Y0101398D01*
X0049912Y0100800D02*
X0048688Y0100800D01*
X0048775Y0100201D02*
X0049825Y0100201D01*
X0049825Y0099603D02*
X0048775Y0099603D01*
X0048775Y0099004D02*
X0049825Y0099004D01*
X0049993Y0098406D02*
X0048607Y0098406D01*
X0048359Y0097807D02*
X0050241Y0097807D01*
X0050488Y0097209D02*
X0048112Y0097209D01*
X0047539Y0096610D02*
X0051061Y0096610D01*
X0051660Y0096012D02*
X0046940Y0096012D01*
X0045644Y0095413D02*
X0052956Y0095413D01*
X0055644Y0095413D02*
X0056400Y0095413D01*
X0056400Y0094815D02*
X0020500Y0094815D01*
X0020500Y0094216D02*
X0056400Y0094216D01*
X0056400Y0093618D02*
X0020500Y0093618D01*
X0020500Y0093019D02*
X0056400Y0093019D01*
X0056400Y0092421D02*
X0020500Y0092421D01*
X0020500Y0091822D02*
X0056400Y0091822D01*
X0056400Y0091224D02*
X0020500Y0091224D01*
X0020500Y0090625D02*
X0056400Y0090625D01*
X0056400Y0090027D02*
X0020500Y0090027D01*
X0020500Y0089428D02*
X0056400Y0089428D01*
X0056522Y0088830D02*
X0020500Y0088830D01*
X0020500Y0088231D02*
X0056770Y0088231D01*
X0057266Y0087633D02*
X0020500Y0087633D01*
X0020500Y0087034D02*
X0058158Y0087034D01*
X0046276Y0072670D02*
X0172320Y0072670D01*
X0171722Y0072071D02*
X0046878Y0072071D01*
X0047354Y0071473D02*
X0171123Y0071473D01*
X0170524Y0070874D02*
X0047602Y0070874D01*
X0047800Y0070276D02*
X0169926Y0070276D01*
X0169327Y0069677D02*
X0047800Y0069677D01*
X0047800Y0069079D02*
X0168729Y0069079D01*
X0168130Y0068480D02*
X0047800Y0068480D01*
X0047800Y0067882D02*
X0167532Y0067882D01*
X0166933Y0067283D02*
X0047800Y0067283D01*
X0047800Y0066685D02*
X0166335Y0066685D01*
X0165736Y0066086D02*
X0047800Y0066086D01*
X0047800Y0065488D02*
X0165138Y0065488D01*
X0164539Y0064889D02*
X0047800Y0064889D01*
X0047800Y0064291D02*
X0163941Y0064291D01*
X0163342Y0063692D02*
X0047800Y0063692D01*
X0047800Y0063094D02*
X0162744Y0063094D01*
X0162145Y0062495D02*
X0047800Y0062495D01*
X0047800Y0061897D02*
X0161547Y0061897D01*
X0160948Y0061298D02*
X0047800Y0061298D01*
X0047800Y0060700D02*
X0160350Y0060700D01*
X0159751Y0060101D02*
X0047800Y0060101D01*
X0047800Y0059503D02*
X0159153Y0059503D01*
X0158554Y0058904D02*
X0047800Y0058904D01*
X0030781Y0073268D02*
X0173486Y0073268D01*
X0175636Y0066086D02*
X0195500Y0066086D01*
X0195500Y0065488D02*
X0175037Y0065488D01*
X0174439Y0064889D02*
X0195556Y0064889D01*
X0195804Y0064291D02*
X0173840Y0064291D01*
X0173242Y0063692D02*
X0196052Y0063692D01*
X0196377Y0063094D02*
X0172643Y0063094D01*
X0172045Y0062495D02*
X0196975Y0062495D01*
X0197574Y0061897D02*
X0171446Y0061897D01*
X0170848Y0061298D02*
X0198947Y0061298D01*
X0206262Y0037956D02*
X0215485Y0037956D01*
X0215532Y0037358D02*
X0206262Y0037358D01*
X0206236Y0036759D02*
X0215599Y0036759D01*
X0215732Y0036161D02*
X0206076Y0036161D01*
X0205915Y0035562D02*
X0215884Y0035562D01*
X0216094Y0034964D02*
X0205755Y0034964D01*
X0205594Y0034365D02*
X0216347Y0034365D01*
X0216635Y0033767D02*
X0205280Y0033767D01*
X0204935Y0033168D02*
X0217008Y0033168D01*
X0217432Y0032570D02*
X0204589Y0032570D01*
X0204244Y0031971D02*
X0217920Y0031971D01*
X0218519Y0031372D02*
X0203659Y0031372D01*
X0203061Y0030774D02*
X0219246Y0030774D01*
X0220147Y0030175D02*
X0202462Y0030175D01*
X0201526Y0029577D02*
X0221353Y0029577D01*
X0228417Y0029577D02*
X0232821Y0029577D01*
X0232821Y0030175D02*
X0229623Y0030175D01*
X0230524Y0030774D02*
X0232821Y0030774D01*
X0232821Y0031372D02*
X0231251Y0031372D01*
X0231850Y0031971D02*
X0232821Y0031971D01*
X0232821Y0032570D02*
X0232338Y0032570D01*
X0232762Y0033168D02*
X0232821Y0033168D01*
X0232821Y0027781D02*
X0199563Y0027781D01*
X0170656Y0025986D02*
X0167093Y0025986D01*
X0167663Y0025387D02*
X0170109Y0025387D01*
X0169862Y0024789D02*
X0168062Y0024789D01*
X0168337Y0024190D02*
X0169614Y0024190D01*
X0169400Y0023592D02*
X0168512Y0023592D01*
X0168600Y0022993D02*
X0169400Y0022993D01*
X0169400Y0022395D02*
X0168600Y0022395D01*
X0168600Y0021796D02*
X0169400Y0021796D01*
X0169400Y0021198D02*
X0168600Y0021198D01*
X0168600Y0020599D02*
X0169400Y0020599D01*
X0169400Y0020001D02*
X0168600Y0020001D01*
X0164000Y0019402D02*
X0159200Y0019402D01*
X0159200Y0018804D02*
X0160000Y0018804D01*
X0160000Y0018205D02*
X0159200Y0018205D01*
X0159200Y0017607D02*
X0160000Y0017607D01*
X0160000Y0017008D02*
X0159200Y0017008D01*
X0159200Y0016410D02*
X0160000Y0016410D01*
X0160087Y0015811D02*
X0159200Y0015811D01*
X0158988Y0015213D02*
X0160262Y0015213D01*
X0160537Y0014614D02*
X0158740Y0014614D01*
X0159200Y0020001D02*
X0160000Y0020001D01*
X0160000Y0020599D02*
X0159200Y0020599D01*
X0159200Y0021198D02*
X0160000Y0021198D01*
X0160000Y0021796D02*
X0159200Y0021796D01*
X0159200Y0022395D02*
X0160000Y0022395D01*
X0160000Y0022993D02*
X0159200Y0022993D01*
X0159200Y0023592D02*
X0160088Y0023592D01*
X0160263Y0024190D02*
X0158986Y0024190D01*
X0158738Y0024789D02*
X0160538Y0024789D01*
X0160937Y0025387D02*
X0158491Y0025387D01*
X0157944Y0025986D02*
X0161507Y0025986D01*
X0162452Y0026584D02*
X0157345Y0026584D01*
X0218782Y0006235D02*
X0005494Y0006235D01*
X0005495Y0005637D02*
X0219128Y0005637D01*
X0224485Y0092421D02*
X0225085Y0092421D01*
X0225085Y0093019D02*
X0224485Y0093019D01*
X0224485Y0093618D02*
X0225085Y0093618D01*
X0225085Y0094216D02*
X0224485Y0094216D01*
X0224485Y0094815D02*
X0225085Y0094815D01*
X0225085Y0095413D02*
X0224485Y0095413D01*
X0224485Y0096012D02*
X0225085Y0096012D01*
X0225085Y0096610D02*
X0224485Y0096610D01*
X0201333Y0105588D02*
X0201314Y0105588D01*
X0200855Y0106186D02*
X0200277Y0106186D01*
X0200467Y0106785D02*
X0198479Y0106785D01*
X0180800Y0112172D02*
X0177200Y0112172D01*
X0177300Y0112770D02*
X0180800Y0112770D01*
X0180800Y0113369D02*
X0177898Y0113369D01*
X0178472Y0113967D02*
X0180800Y0113967D01*
X0180800Y0114566D02*
X0178720Y0114566D01*
X0178968Y0115164D02*
X0180800Y0115164D01*
X0180800Y0115763D02*
X0179200Y0115763D01*
X0179200Y0116361D02*
X0180800Y0116361D01*
X0180800Y0116960D02*
X0179200Y0116960D01*
X0179200Y0117558D02*
X0180800Y0117558D01*
X0180800Y0118157D02*
X0179200Y0118157D01*
X0179200Y0118755D02*
X0180800Y0118755D01*
X0180800Y0119354D02*
X0179200Y0119354D01*
X0179200Y0119952D02*
X0180800Y0119952D01*
X0180800Y0120551D02*
X0179200Y0120551D01*
X0179200Y0121149D02*
X0180800Y0121149D01*
X0180800Y0121748D02*
X0179200Y0121748D01*
X0179200Y0122346D02*
X0180800Y0122346D01*
X0180800Y0122945D02*
X0179200Y0122945D01*
X0179200Y0123543D02*
X0180800Y0123543D01*
X0180800Y0124142D02*
X0179007Y0124142D01*
X0178759Y0124740D02*
X0180410Y0124740D01*
X0179811Y0125339D02*
X0178511Y0125339D01*
X0177992Y0125937D02*
X0179213Y0125937D01*
X0178614Y0126536D02*
X0177394Y0126536D01*
X0178016Y0127134D02*
X0176399Y0127134D01*
X0166600Y0133119D02*
X0154884Y0133119D01*
X0155132Y0133718D02*
X0166600Y0133718D01*
X0166600Y0134316D02*
X0155300Y0134316D01*
X0156652Y0134915D02*
X0165006Y0134915D01*
X0163657Y0135513D02*
X0158097Y0135513D01*
X0158742Y0136112D02*
X0163058Y0136112D01*
X0162460Y0136710D02*
X0159340Y0136710D01*
X0159713Y0137309D02*
X0162145Y0137309D01*
X0161897Y0137908D02*
X0159961Y0137908D01*
X0160209Y0138506D02*
X0161649Y0138506D01*
X0161600Y0139105D02*
X0160300Y0139105D01*
X0160300Y0139703D02*
X0161600Y0139703D01*
X0161600Y0140302D02*
X0160300Y0140302D01*
X0160207Y0140900D02*
X0161735Y0140900D01*
X0161983Y0141499D02*
X0159959Y0141499D01*
X0159711Y0142097D02*
X0162231Y0142097D01*
X0162666Y0142696D02*
X0159334Y0142696D01*
X0158736Y0143294D02*
X0163264Y0143294D01*
X0164059Y0143893D02*
X0158082Y0143893D01*
X0156637Y0144491D02*
X0165504Y0144491D01*
X0164585Y0145090D02*
X0157074Y0145090D01*
X0158318Y0145688D02*
X0163482Y0145688D01*
X0173496Y0144491D02*
X0176395Y0144491D01*
X0176395Y0143893D02*
X0174941Y0143893D01*
X0175736Y0143294D02*
X0176395Y0143294D01*
X0176395Y0142696D02*
X0176334Y0142696D01*
X0176395Y0145090D02*
X0174415Y0145090D01*
X0175518Y0145688D02*
X0176395Y0145688D01*
X0183395Y0145688D02*
X0189682Y0145688D01*
X0189084Y0146287D02*
X0183395Y0146287D01*
X0183395Y0146885D02*
X0188485Y0146885D01*
X0188214Y0147484D02*
X0183395Y0147484D01*
X0183395Y0148082D02*
X0187966Y0148082D01*
X0187718Y0148681D02*
X0183395Y0148681D01*
X0183399Y0149279D02*
X0187700Y0149279D01*
X0187700Y0149878D02*
X0183395Y0149878D01*
X0183360Y0150476D02*
X0187700Y0150476D01*
X0187866Y0151075D02*
X0183107Y0151075D01*
X0182855Y0151673D02*
X0188114Y0151673D01*
X0188362Y0152272D02*
X0182256Y0152272D01*
X0181350Y0152870D02*
X0188841Y0152870D01*
X0189439Y0153469D02*
X0175561Y0153469D01*
X0174519Y0154067D02*
X0190339Y0154067D01*
X0190949Y0155715D02*
X0191593Y0155506D01*
X0192262Y0155400D01*
X0195300Y0155400D01*
X0195300Y0159400D01*
X0195900Y0159400D01*
X0195900Y0160000D01*
X0195300Y0160000D01*
X0195300Y0164000D01*
X0192262Y0164000D01*
X0191593Y0163894D01*
X0190949Y0163685D01*
X0190346Y0163378D01*
X0189799Y0162980D01*
X0189320Y0162501D01*
X0188922Y0161954D01*
X0188615Y0161351D01*
X0188406Y0160707D01*
X0188300Y0160038D01*
X0188300Y0160000D01*
X0195300Y0160000D01*
X0195300Y0159400D01*
X0188300Y0159400D01*
X0188300Y0159362D01*
X0188406Y0158693D01*
X0188615Y0158049D01*
X0188922Y0157446D01*
X0189320Y0156899D01*
X0189799Y0156420D01*
X0190346Y0156022D01*
X0190949Y0155715D01*
X0190659Y0155863D02*
X0174637Y0155863D01*
X0174754Y0155922D02*
X0175301Y0156320D01*
X0175780Y0156799D01*
X0176178Y0157346D01*
X0176485Y0157949D01*
X0176694Y0158593D01*
X0176800Y0159262D01*
X0176800Y0159300D01*
X0169800Y0159300D01*
X0169800Y0159900D01*
X0169200Y0159900D01*
X0169200Y0163900D01*
X0166162Y0163900D01*
X0165493Y0163794D01*
X0164849Y0163585D01*
X0164246Y0163278D01*
X0163699Y0162880D01*
X0163220Y0162401D01*
X0162822Y0161854D01*
X0162515Y0161251D01*
X0162306Y0160607D01*
X0162200Y0159938D01*
X0162200Y0159900D01*
X0169200Y0159900D01*
X0169200Y0159300D01*
X0169800Y0159300D01*
X0169800Y0155300D01*
X0172838Y0155300D01*
X0173507Y0155406D01*
X0174151Y0155615D01*
X0174754Y0155922D01*
X0175442Y0156461D02*
X0189758Y0156461D01*
X0189203Y0157060D02*
X0175970Y0157060D01*
X0176337Y0157658D02*
X0188814Y0157658D01*
X0188548Y0158257D02*
X0176585Y0158257D01*
X0176736Y0158855D02*
X0188380Y0158855D01*
X0188302Y0160052D02*
X0176782Y0160052D01*
X0176800Y0159938D02*
X0176694Y0160607D01*
X0176485Y0161251D01*
X0176178Y0161854D01*
X0175780Y0162401D01*
X0175301Y0162880D01*
X0174754Y0163278D01*
X0174151Y0163585D01*
X0173507Y0163794D01*
X0172838Y0163900D01*
X0169800Y0163900D01*
X0169800Y0159900D01*
X0176800Y0159900D01*
X0176800Y0159938D01*
X0176680Y0160651D02*
X0188397Y0160651D01*
X0188582Y0161249D02*
X0176485Y0161249D01*
X0176181Y0161848D02*
X0188868Y0161848D01*
X0189280Y0162446D02*
X0175735Y0162446D01*
X0175074Y0163045D02*
X0189888Y0163045D01*
X0190868Y0163643D02*
X0173970Y0163643D01*
X0169800Y0163643D02*
X0169200Y0163643D01*
X0169200Y0163045D02*
X0169800Y0163045D01*
X0169800Y0162446D02*
X0169200Y0162446D01*
X0169200Y0161848D02*
X0169800Y0161848D01*
X0169800Y0161249D02*
X0169200Y0161249D01*
X0169200Y0160651D02*
X0169800Y0160651D01*
X0169800Y0160052D02*
X0169200Y0160052D01*
X0169200Y0159454D02*
X0152700Y0159454D01*
X0152700Y0159400D02*
X0152700Y0160000D01*
X0152100Y0160000D01*
X0152100Y0164000D01*
X0149062Y0164000D01*
X0148393Y0163894D01*
X0147749Y0163685D01*
X0147146Y0163378D01*
X0146599Y0162980D01*
X0146120Y0162501D01*
X0145722Y0161954D01*
X0145415Y0161351D01*
X0145206Y0160707D01*
X0145100Y0160038D01*
X0145100Y0160000D01*
X0152100Y0160000D01*
X0152100Y0159400D01*
X0152700Y0159400D01*
X0159700Y0159400D01*
X0159700Y0159362D01*
X0159594Y0158693D01*
X0159385Y0158049D01*
X0159078Y0157446D01*
X0158680Y0156899D01*
X0158201Y0156420D01*
X0157654Y0156022D01*
X0157051Y0155715D01*
X0156407Y0155506D01*
X0155738Y0155400D01*
X0152700Y0155400D01*
X0152700Y0159400D01*
X0152700Y0158855D02*
X0152100Y0158855D01*
X0152100Y0159400D02*
X0152100Y0155400D01*
X0149062Y0155400D01*
X0148393Y0155506D01*
X0147749Y0155715D01*
X0147146Y0156022D01*
X0146599Y0156420D01*
X0146120Y0156899D01*
X0145722Y0157446D01*
X0145415Y0158049D01*
X0145206Y0158693D01*
X0145100Y0159362D01*
X0145100Y0159400D01*
X0152100Y0159400D01*
X0152100Y0159454D02*
X0134600Y0159454D01*
X0134600Y0159400D02*
X0134600Y0160000D01*
X0134000Y0160000D01*
X0134000Y0164000D01*
X0130962Y0164000D01*
X0130293Y0163894D01*
X0129649Y0163685D01*
X0129046Y0163378D01*
X0128499Y0162980D01*
X0128020Y0162501D01*
X0127622Y0161954D01*
X0127315Y0161351D01*
X0127106Y0160707D01*
X0127000Y0160038D01*
X0127000Y0160000D01*
X0134000Y0160000D01*
X0134000Y0159400D01*
X0134600Y0159400D01*
X0141600Y0159400D01*
X0141600Y0159362D01*
X0141494Y0158693D01*
X0141285Y0158049D01*
X0140978Y0157446D01*
X0140580Y0156899D01*
X0140101Y0156420D01*
X0139554Y0156022D01*
X0138951Y0155715D01*
X0138307Y0155506D01*
X0137638Y0155400D01*
X0134600Y0155400D01*
X0134600Y0159400D01*
X0134600Y0158855D02*
X0134000Y0158855D01*
X0134000Y0159400D02*
X0134000Y0155400D01*
X0130962Y0155400D01*
X0130293Y0155506D01*
X0129649Y0155715D01*
X0129046Y0156022D01*
X0128499Y0156420D01*
X0128020Y0156899D01*
X0127622Y0157446D01*
X0127315Y0158049D01*
X0127106Y0158693D01*
X0127000Y0159362D01*
X0127000Y0159400D01*
X0134000Y0159400D01*
X0134000Y0159454D02*
X0114600Y0159454D01*
X0114600Y0159400D02*
X0114600Y0160000D01*
X0114000Y0160000D01*
X0114000Y0164000D01*
X0110962Y0164000D01*
X0110293Y0163894D01*
X0109649Y0163685D01*
X0109046Y0163378D01*
X0108499Y0162980D01*
X0108020Y0162501D01*
X0107622Y0161954D01*
X0107315Y0161351D01*
X0107106Y0160707D01*
X0107000Y0160038D01*
X0107000Y0160000D01*
X0114000Y0160000D01*
X0114000Y0159400D01*
X0114600Y0159400D01*
X0121600Y0159400D01*
X0121600Y0159362D01*
X0121494Y0158693D01*
X0121285Y0158049D01*
X0120978Y0157446D01*
X0120580Y0156899D01*
X0120101Y0156420D01*
X0119554Y0156022D01*
X0118951Y0155715D01*
X0118307Y0155506D01*
X0117638Y0155400D01*
X0114600Y0155400D01*
X0114600Y0159400D01*
X0114600Y0158855D02*
X0114000Y0158855D01*
X0114000Y0159400D02*
X0114000Y0155400D01*
X0110962Y0155400D01*
X0110293Y0155506D01*
X0109649Y0155715D01*
X0109046Y0156022D01*
X0108499Y0156420D01*
X0108020Y0156899D01*
X0107622Y0157446D01*
X0107315Y0158049D01*
X0107106Y0158693D01*
X0107000Y0159362D01*
X0107000Y0159400D01*
X0114000Y0159400D01*
X0114000Y0159454D02*
X0097200Y0159454D01*
X0097200Y0160052D02*
X0107002Y0160052D01*
X0107097Y0160651D02*
X0097200Y0160651D01*
X0097200Y0161249D02*
X0107282Y0161249D01*
X0107568Y0161848D02*
X0097200Y0161848D01*
X0097200Y0162446D02*
X0107980Y0162446D01*
X0108588Y0163045D02*
X0097200Y0163045D01*
X0097200Y0163643D02*
X0109568Y0163643D01*
X0114000Y0163643D02*
X0114600Y0163643D01*
X0114600Y0164000D02*
X0114600Y0160000D01*
X0121600Y0160000D01*
X0121600Y0160038D01*
X0121494Y0160707D01*
X0121285Y0161351D01*
X0120978Y0161954D01*
X0120580Y0162501D01*
X0120101Y0162980D01*
X0119554Y0163378D01*
X0118951Y0163685D01*
X0118307Y0163894D01*
X0117638Y0164000D01*
X0114600Y0164000D01*
X0114600Y0163045D02*
X0114000Y0163045D01*
X0114000Y0162446D02*
X0114600Y0162446D01*
X0114600Y0161848D02*
X0114000Y0161848D01*
X0114000Y0161249D02*
X0114600Y0161249D01*
X0114600Y0160651D02*
X0114000Y0160651D01*
X0114000Y0160052D02*
X0114600Y0160052D01*
X0114600Y0158257D02*
X0114000Y0158257D01*
X0114000Y0157658D02*
X0114600Y0157658D01*
X0114600Y0157060D02*
X0114000Y0157060D01*
X0114000Y0156461D02*
X0114600Y0156461D01*
X0114600Y0155863D02*
X0114000Y0155863D01*
X0109359Y0155863D02*
X0097200Y0155863D01*
X0097200Y0156461D02*
X0108458Y0156461D01*
X0107903Y0157060D02*
X0097200Y0157060D01*
X0097200Y0157658D02*
X0107514Y0157658D01*
X0107248Y0158257D02*
X0097200Y0158257D01*
X0097200Y0158855D02*
X0107080Y0158855D01*
X0109039Y0154067D02*
X0097200Y0154067D01*
X0097200Y0153469D02*
X0108139Y0153469D01*
X0107541Y0152870D02*
X0097200Y0152870D01*
X0097200Y0152272D02*
X0107062Y0152272D01*
X0106814Y0151673D02*
X0097200Y0151673D01*
X0097200Y0151075D02*
X0106566Y0151075D01*
X0106400Y0150476D02*
X0097200Y0150476D01*
X0097200Y0149878D02*
X0106400Y0149878D01*
X0106400Y0149279D02*
X0097200Y0149279D01*
X0097200Y0148681D02*
X0106418Y0148681D01*
X0106666Y0148082D02*
X0097200Y0148082D01*
X0097200Y0147484D02*
X0106914Y0147484D01*
X0107185Y0146885D02*
X0097200Y0146885D01*
X0097200Y0146287D02*
X0107784Y0146287D01*
X0108382Y0145688D02*
X0097200Y0145688D01*
X0097200Y0145090D02*
X0109626Y0145090D01*
X0110063Y0144491D02*
X0097200Y0144491D01*
X0097200Y0143893D02*
X0108618Y0143893D01*
X0107964Y0143294D02*
X0097200Y0143294D01*
X0097200Y0142696D02*
X0107366Y0142696D01*
X0102596Y0142097D02*
X0097200Y0142097D01*
X0097148Y0141499D02*
X0101997Y0141499D01*
X0101399Y0140900D02*
X0096900Y0140900D01*
X0096503Y0140302D02*
X0100800Y0140302D01*
X0100202Y0139703D02*
X0095904Y0139703D01*
X0095306Y0139105D02*
X0099603Y0139105D01*
X0099005Y0138506D02*
X0094707Y0138506D01*
X0094109Y0137908D02*
X0098406Y0137908D01*
X0097808Y0137309D02*
X0093510Y0137309D01*
X0092912Y0136710D02*
X0097209Y0136710D01*
X0096611Y0136112D02*
X0092313Y0136112D01*
X0091715Y0135513D02*
X0096012Y0135513D01*
X0095414Y0134915D02*
X0091116Y0134915D01*
X0090518Y0134316D02*
X0094815Y0134316D01*
X0094217Y0133718D02*
X0089919Y0133718D01*
X0089321Y0133119D02*
X0093618Y0133119D01*
X0093020Y0132521D02*
X0088722Y0132521D01*
X0087672Y0131922D02*
X0092421Y0131922D01*
X0091823Y0131324D02*
X0076777Y0131324D01*
X0076179Y0131922D02*
X0078428Y0131922D01*
X0077378Y0132521D02*
X0075068Y0132521D01*
X0076181Y0133718D02*
X0072200Y0133718D01*
X0072200Y0134316D02*
X0075582Y0134316D01*
X0076779Y0133119D02*
X0072200Y0133119D01*
X0077376Y0130725D02*
X0091224Y0130725D01*
X0090626Y0130127D02*
X0077974Y0130127D01*
X0078573Y0129528D02*
X0090027Y0129528D01*
X0089429Y0128930D02*
X0079171Y0128930D01*
X0079770Y0128331D02*
X0088830Y0128331D01*
X0088232Y0127733D02*
X0080368Y0127733D01*
X0080967Y0127134D02*
X0082201Y0127134D01*
X0086399Y0127134D02*
X0087633Y0127134D01*
X0117394Y0126536D02*
X0121206Y0126536D01*
X0120608Y0125937D02*
X0117992Y0125937D01*
X0118511Y0125339D02*
X0120089Y0125339D01*
X0119841Y0124740D02*
X0118759Y0124740D01*
X0119007Y0124142D02*
X0119593Y0124142D01*
X0119400Y0123543D02*
X0119200Y0123543D01*
X0119200Y0122945D02*
X0119400Y0122945D01*
X0119400Y0122346D02*
X0119200Y0122346D01*
X0119200Y0121748D02*
X0119400Y0121748D01*
X0119400Y0121149D02*
X0119200Y0121149D01*
X0119200Y0120551D02*
X0119400Y0120551D01*
X0119400Y0119952D02*
X0119200Y0119952D01*
X0119200Y0119354D02*
X0119400Y0119354D01*
X0119400Y0118755D02*
X0119200Y0118755D01*
X0119200Y0118157D02*
X0119400Y0118157D01*
X0119400Y0117558D02*
X0119200Y0117558D01*
X0119200Y0116960D02*
X0119400Y0116960D01*
X0119400Y0116361D02*
X0119200Y0116361D01*
X0119200Y0115763D02*
X0119400Y0115763D01*
X0119632Y0115164D02*
X0118968Y0115164D01*
X0118720Y0114566D02*
X0119880Y0114566D01*
X0120128Y0113967D02*
X0118472Y0113967D01*
X0117898Y0113369D02*
X0120702Y0113369D01*
X0121300Y0112770D02*
X0117300Y0112770D01*
X0117200Y0112172D02*
X0121400Y0112172D01*
X0121400Y0111573D02*
X0117200Y0111573D01*
X0117200Y0110974D02*
X0121400Y0110974D01*
X0121400Y0110376D02*
X0117200Y0110376D01*
X0117200Y0109777D02*
X0121400Y0109777D01*
X0121400Y0109179D02*
X0117200Y0109179D01*
X0117200Y0108580D02*
X0121400Y0108580D01*
X0121400Y0107982D02*
X0117200Y0107982D01*
X0117200Y0107383D02*
X0121400Y0107383D01*
X0121400Y0106785D02*
X0117200Y0106785D01*
X0117200Y0106186D02*
X0121400Y0106186D01*
X0121400Y0105588D02*
X0117200Y0105588D01*
X0117200Y0104989D02*
X0121400Y0104989D01*
X0121400Y0104391D02*
X0117200Y0104391D01*
X0117200Y0103792D02*
X0121400Y0103792D01*
X0121400Y0103194D02*
X0117200Y0103194D01*
X0117733Y0102595D02*
X0120867Y0102595D01*
X0120408Y0101997D02*
X0118192Y0101997D01*
X0118440Y0101398D02*
X0120160Y0101398D01*
X0119912Y0100800D02*
X0118688Y0100800D01*
X0118775Y0100201D02*
X0119825Y0100201D01*
X0119825Y0099603D02*
X0118775Y0099603D01*
X0118775Y0099004D02*
X0119825Y0099004D01*
X0119993Y0098406D02*
X0118607Y0098406D01*
X0118359Y0097807D02*
X0120241Y0097807D01*
X0120488Y0097209D02*
X0118112Y0097209D01*
X0117539Y0096610D02*
X0121061Y0096610D01*
X0121660Y0096012D02*
X0116940Y0096012D01*
X0115644Y0095413D02*
X0122956Y0095413D01*
X0125644Y0095413D02*
X0132956Y0095413D01*
X0131660Y0096012D02*
X0126940Y0096012D01*
X0127539Y0096610D02*
X0131061Y0096610D01*
X0130488Y0097209D02*
X0128112Y0097209D01*
X0128359Y0097807D02*
X0130241Y0097807D01*
X0129993Y0098406D02*
X0128607Y0098406D01*
X0128775Y0099004D02*
X0129825Y0099004D01*
X0129825Y0099603D02*
X0128775Y0099603D01*
X0128775Y0100201D02*
X0129825Y0100201D01*
X0129912Y0100800D02*
X0128688Y0100800D01*
X0128440Y0101398D02*
X0130160Y0101398D01*
X0130408Y0101997D02*
X0128192Y0101997D01*
X0127733Y0102595D02*
X0130867Y0102595D01*
X0131400Y0103194D02*
X0127200Y0103194D01*
X0127200Y0103792D02*
X0131400Y0103792D01*
X0131400Y0104391D02*
X0127200Y0104391D01*
X0127200Y0104989D02*
X0131400Y0104989D01*
X0131400Y0105588D02*
X0127200Y0105588D01*
X0127200Y0106186D02*
X0131400Y0106186D01*
X0131400Y0106785D02*
X0127200Y0106785D01*
X0127200Y0107383D02*
X0131400Y0107383D01*
X0131400Y0107982D02*
X0127200Y0107982D01*
X0127200Y0108580D02*
X0131400Y0108580D01*
X0131400Y0109179D02*
X0127200Y0109179D01*
X0127200Y0109777D02*
X0131400Y0109777D01*
X0131400Y0110376D02*
X0127200Y0110376D01*
X0127200Y0110974D02*
X0131400Y0110974D01*
X0131400Y0111573D02*
X0127200Y0111573D01*
X0127200Y0112172D02*
X0131400Y0112172D01*
X0131300Y0112770D02*
X0127300Y0112770D01*
X0127898Y0113369D02*
X0130702Y0113369D01*
X0130128Y0113967D02*
X0128472Y0113967D01*
X0128720Y0114566D02*
X0129880Y0114566D01*
X0129632Y0115164D02*
X0128968Y0115164D01*
X0129200Y0115763D02*
X0129400Y0115763D01*
X0129400Y0116361D02*
X0129200Y0116361D01*
X0129200Y0116960D02*
X0129400Y0116960D01*
X0129400Y0117558D02*
X0129200Y0117558D01*
X0129200Y0118157D02*
X0129400Y0118157D01*
X0129400Y0118755D02*
X0129200Y0118755D01*
X0129200Y0119354D02*
X0129400Y0119354D01*
X0129400Y0119952D02*
X0129200Y0119952D01*
X0129252Y0120551D02*
X0129400Y0120551D01*
X0137394Y0126536D02*
X0142357Y0126536D01*
X0141456Y0125937D02*
X0137992Y0125937D01*
X0138511Y0125339D02*
X0140902Y0125339D01*
X0140514Y0124740D02*
X0138759Y0124740D01*
X0139007Y0124142D02*
X0140247Y0124142D01*
X0140080Y0123543D02*
X0139200Y0123543D01*
X0139200Y0122945D02*
X0140000Y0122945D01*
X0140000Y0122346D02*
X0139200Y0122346D01*
X0139200Y0121748D02*
X0140000Y0121748D01*
X0140000Y0121149D02*
X0139200Y0121149D01*
X0139200Y0120551D02*
X0140000Y0120551D01*
X0139200Y0119952D02*
X0144000Y0119952D01*
X0144000Y0119354D02*
X0144600Y0119354D01*
X0144600Y0119952D02*
X0149400Y0119952D01*
X0149400Y0119354D02*
X0148600Y0119354D01*
X0148600Y0118755D02*
X0149400Y0118755D01*
X0149400Y0118157D02*
X0148600Y0118157D01*
X0148600Y0117558D02*
X0149400Y0117558D01*
X0149400Y0116960D02*
X0148600Y0116960D01*
X0148600Y0116361D02*
X0149400Y0116361D01*
X0149400Y0115763D02*
X0148505Y0115763D01*
X0148322Y0115164D02*
X0149632Y0115164D01*
X0149880Y0114566D02*
X0148038Y0114566D01*
X0147629Y0113967D02*
X0150128Y0113967D01*
X0150702Y0113369D02*
X0147030Y0113369D01*
X0146059Y0112770D02*
X0151300Y0112770D01*
X0151400Y0112172D02*
X0137200Y0112172D01*
X0137200Y0111573D02*
X0151400Y0111573D01*
X0151400Y0110974D02*
X0137200Y0110974D01*
X0137200Y0110376D02*
X0151400Y0110376D01*
X0151400Y0109777D02*
X0137200Y0109777D01*
X0137200Y0109179D02*
X0151400Y0109179D01*
X0151400Y0108580D02*
X0137200Y0108580D01*
X0137200Y0107982D02*
X0151400Y0107982D01*
X0151400Y0107383D02*
X0137200Y0107383D01*
X0137200Y0106785D02*
X0151400Y0106785D01*
X0151400Y0106186D02*
X0137200Y0106186D01*
X0137200Y0105588D02*
X0151400Y0105588D01*
X0151400Y0104989D02*
X0137200Y0104989D01*
X0137200Y0104391D02*
X0151400Y0104391D01*
X0151400Y0103792D02*
X0137200Y0103792D01*
X0137200Y0103194D02*
X0142610Y0103194D01*
X0142465Y0103134D02*
X0141830Y0102710D01*
X0141290Y0102170D01*
X0140866Y0101535D01*
X0140574Y0100830D01*
X0140425Y0100082D01*
X0140425Y0100000D01*
X0144000Y0100000D01*
X0144000Y0103575D01*
X0143918Y0103575D01*
X0143170Y0103426D01*
X0142465Y0103134D01*
X0141716Y0102595D02*
X0137733Y0102595D01*
X0138192Y0101997D02*
X0141175Y0101997D01*
X0140809Y0101398D02*
X0138440Y0101398D01*
X0138688Y0100800D02*
X0140568Y0100800D01*
X0140449Y0100201D02*
X0138775Y0100201D01*
X0138775Y0099603D02*
X0144000Y0099603D01*
X0144000Y0099400D02*
X0144000Y0100000D01*
X0144600Y0100000D01*
X0148175Y0100000D01*
X0148175Y0100082D01*
X0148026Y0100830D01*
X0147734Y0101535D01*
X0147310Y0102170D01*
X0146770Y0102710D01*
X0146135Y0103134D01*
X0145430Y0103426D01*
X0144682Y0103575D01*
X0144600Y0103575D01*
X0144600Y0100000D01*
X0144600Y0099400D01*
X0148175Y0099400D01*
X0148175Y0099318D01*
X0148026Y0098570D01*
X0147734Y0097865D01*
X0147310Y0097230D01*
X0146770Y0096690D01*
X0146135Y0096266D01*
X0145430Y0095974D01*
X0144682Y0095825D01*
X0144600Y0095825D01*
X0144600Y0099400D01*
X0144000Y0099400D01*
X0144000Y0095825D01*
X0143918Y0095825D01*
X0143170Y0095974D01*
X0142465Y0096266D01*
X0141830Y0096690D01*
X0141290Y0097230D01*
X0140866Y0097865D01*
X0140574Y0098570D01*
X0140425Y0099318D01*
X0140425Y0099400D01*
X0144000Y0099400D01*
X0144000Y0099004D02*
X0144600Y0099004D01*
X0144600Y0098406D02*
X0144000Y0098406D01*
X0144000Y0097807D02*
X0144600Y0097807D01*
X0144600Y0097209D02*
X0144000Y0097209D01*
X0144000Y0096610D02*
X0144600Y0096610D01*
X0144600Y0096012D02*
X0144000Y0096012D01*
X0143079Y0096012D02*
X0136940Y0096012D01*
X0137539Y0096610D02*
X0141950Y0096610D01*
X0141311Y0097209D02*
X0138112Y0097209D01*
X0138359Y0097807D02*
X0140905Y0097807D01*
X0140642Y0098406D02*
X0138607Y0098406D01*
X0138775Y0099004D02*
X0140488Y0099004D01*
X0144000Y0100201D02*
X0144600Y0100201D01*
X0144600Y0099603D02*
X0149825Y0099603D01*
X0149825Y0100201D02*
X0148151Y0100201D01*
X0148032Y0100800D02*
X0149912Y0100800D01*
X0150160Y0101398D02*
X0147791Y0101398D01*
X0147425Y0101997D02*
X0150408Y0101997D01*
X0150867Y0102595D02*
X0146884Y0102595D01*
X0145990Y0103194D02*
X0151400Y0103194D01*
X0157200Y0103194D02*
X0161400Y0103194D01*
X0161400Y0103792D02*
X0157200Y0103792D01*
X0157200Y0104391D02*
X0161400Y0104391D01*
X0161400Y0104989D02*
X0157200Y0104989D01*
X0157200Y0105588D02*
X0161400Y0105588D01*
X0161400Y0106186D02*
X0157200Y0106186D01*
X0157200Y0106785D02*
X0161400Y0106785D01*
X0161400Y0107383D02*
X0157200Y0107383D01*
X0157200Y0107982D02*
X0161400Y0107982D01*
X0161400Y0108580D02*
X0157200Y0108580D01*
X0157200Y0109179D02*
X0161400Y0109179D01*
X0161400Y0109777D02*
X0157200Y0109777D01*
X0157200Y0110376D02*
X0161400Y0110376D01*
X0161400Y0110974D02*
X0157200Y0110974D01*
X0157200Y0111573D02*
X0161400Y0111573D01*
X0161400Y0112172D02*
X0157200Y0112172D01*
X0157300Y0112770D02*
X0161300Y0112770D01*
X0160702Y0113369D02*
X0157898Y0113369D01*
X0158472Y0113967D02*
X0160128Y0113967D01*
X0159880Y0114566D02*
X0158720Y0114566D01*
X0158968Y0115164D02*
X0159632Y0115164D01*
X0159400Y0115763D02*
X0159200Y0115763D01*
X0159200Y0116361D02*
X0159400Y0116361D01*
X0159400Y0116960D02*
X0159200Y0116960D01*
X0159200Y0117558D02*
X0159400Y0117558D01*
X0159400Y0118157D02*
X0159200Y0118157D01*
X0159200Y0118755D02*
X0159400Y0118755D01*
X0159400Y0119354D02*
X0159200Y0119354D01*
X0159200Y0119952D02*
X0159400Y0119952D01*
X0159400Y0120551D02*
X0159200Y0120551D01*
X0159200Y0121149D02*
X0159400Y0121149D01*
X0159400Y0121748D02*
X0159200Y0121748D01*
X0159200Y0122346D02*
X0159400Y0122346D01*
X0159400Y0122945D02*
X0159200Y0122945D01*
X0159200Y0123543D02*
X0159400Y0123543D01*
X0159593Y0124142D02*
X0159007Y0124142D01*
X0158759Y0124740D02*
X0159841Y0124740D01*
X0160089Y0125339D02*
X0158511Y0125339D01*
X0157992Y0125937D02*
X0160608Y0125937D01*
X0161206Y0126536D02*
X0157394Y0126536D01*
X0151206Y0126536D02*
X0146243Y0126536D01*
X0147144Y0125937D02*
X0150608Y0125937D01*
X0150089Y0125339D02*
X0147698Y0125339D01*
X0148086Y0124740D02*
X0149841Y0124740D01*
X0149593Y0124142D02*
X0148353Y0124142D01*
X0148520Y0123543D02*
X0149400Y0123543D01*
X0149400Y0122945D02*
X0148600Y0122945D01*
X0148600Y0122346D02*
X0149400Y0122346D01*
X0149400Y0121748D02*
X0148600Y0121748D01*
X0148600Y0121149D02*
X0149400Y0121149D01*
X0149400Y0120551D02*
X0148600Y0120551D01*
X0144600Y0118755D02*
X0144000Y0118755D01*
X0144000Y0118157D02*
X0144600Y0118157D01*
X0144600Y0117558D02*
X0144000Y0117558D01*
X0144000Y0116960D02*
X0144600Y0116960D01*
X0144600Y0116361D02*
X0144000Y0116361D01*
X0144000Y0115763D02*
X0144600Y0115763D01*
X0144600Y0115164D02*
X0144000Y0115164D01*
X0144000Y0114566D02*
X0144600Y0114566D01*
X0144600Y0113967D02*
X0144000Y0113967D01*
X0144000Y0113369D02*
X0144600Y0113369D01*
X0144600Y0112770D02*
X0144000Y0112770D01*
X0142541Y0112770D02*
X0137300Y0112770D01*
X0137898Y0113369D02*
X0141570Y0113369D01*
X0140970Y0113967D02*
X0138472Y0113967D01*
X0138720Y0114566D02*
X0140562Y0114566D01*
X0140278Y0115164D02*
X0138968Y0115164D01*
X0139200Y0115763D02*
X0140095Y0115763D01*
X0140000Y0116361D02*
X0139200Y0116361D01*
X0139200Y0116960D02*
X0140000Y0116960D01*
X0140000Y0117558D02*
X0139200Y0117558D01*
X0139200Y0118157D02*
X0140000Y0118157D01*
X0140000Y0118755D02*
X0139200Y0118755D01*
X0139200Y0119354D02*
X0140000Y0119354D01*
X0144000Y0103194D02*
X0144600Y0103194D01*
X0144600Y0102595D02*
X0144000Y0102595D01*
X0144000Y0101997D02*
X0144600Y0101997D01*
X0144600Y0101398D02*
X0144000Y0101398D01*
X0144000Y0100800D02*
X0144600Y0100800D01*
X0148112Y0099004D02*
X0149825Y0099004D01*
X0149993Y0098406D02*
X0147958Y0098406D01*
X0147695Y0097807D02*
X0150241Y0097807D01*
X0150488Y0097209D02*
X0147289Y0097209D01*
X0146650Y0096610D02*
X0151061Y0096610D01*
X0151660Y0096012D02*
X0145521Y0096012D01*
X0152956Y0095413D02*
X0135644Y0095413D01*
X0155644Y0095413D02*
X0162956Y0095413D01*
X0161660Y0096012D02*
X0156940Y0096012D01*
X0157539Y0096610D02*
X0161061Y0096610D01*
X0160488Y0097209D02*
X0158112Y0097209D01*
X0158359Y0097807D02*
X0160241Y0097807D01*
X0159993Y0098406D02*
X0158607Y0098406D01*
X0158775Y0099004D02*
X0159825Y0099004D01*
X0159825Y0099603D02*
X0158775Y0099603D01*
X0158775Y0100201D02*
X0159825Y0100201D01*
X0159912Y0100800D02*
X0158688Y0100800D01*
X0158440Y0101398D02*
X0160160Y0101398D01*
X0160408Y0101997D02*
X0158192Y0101997D01*
X0157733Y0102595D02*
X0160867Y0102595D01*
X0144839Y0137908D02*
X0141861Y0137908D01*
X0142109Y0138506D02*
X0144591Y0138506D01*
X0144500Y0139105D02*
X0142200Y0139105D01*
X0142200Y0139703D02*
X0144500Y0139703D01*
X0144500Y0140302D02*
X0142200Y0140302D01*
X0142107Y0140900D02*
X0144593Y0140900D01*
X0144841Y0141499D02*
X0141859Y0141499D01*
X0141611Y0142097D02*
X0145089Y0142097D01*
X0145466Y0142696D02*
X0141234Y0142696D01*
X0140636Y0143294D02*
X0146064Y0143294D01*
X0146718Y0143893D02*
X0139982Y0143893D01*
X0138537Y0144491D02*
X0148163Y0144491D01*
X0147726Y0145090D02*
X0138974Y0145090D01*
X0140218Y0145688D02*
X0146482Y0145688D01*
X0146239Y0153469D02*
X0140461Y0153469D01*
X0139561Y0154067D02*
X0147139Y0154067D01*
X0147459Y0155863D02*
X0139241Y0155863D01*
X0140142Y0156461D02*
X0146558Y0156461D01*
X0146003Y0157060D02*
X0140697Y0157060D01*
X0141086Y0157658D02*
X0145614Y0157658D01*
X0145348Y0158257D02*
X0141352Y0158257D01*
X0141520Y0158855D02*
X0145180Y0158855D01*
X0145102Y0160052D02*
X0141598Y0160052D01*
X0141600Y0160038D02*
X0141494Y0160707D01*
X0141285Y0161351D01*
X0140978Y0161954D01*
X0140580Y0162501D01*
X0140101Y0162980D01*
X0139554Y0163378D01*
X0138951Y0163685D01*
X0138307Y0163894D01*
X0137638Y0164000D01*
X0134600Y0164000D01*
X0134600Y0160000D01*
X0141600Y0160000D01*
X0141600Y0160038D01*
X0141503Y0160651D02*
X0145197Y0160651D01*
X0145382Y0161249D02*
X0141318Y0161249D01*
X0141032Y0161848D02*
X0145668Y0161848D01*
X0146080Y0162446D02*
X0140620Y0162446D01*
X0140012Y0163045D02*
X0146688Y0163045D01*
X0147668Y0163643D02*
X0139032Y0163643D01*
X0134600Y0163643D02*
X0134000Y0163643D01*
X0134000Y0163045D02*
X0134600Y0163045D01*
X0134600Y0162446D02*
X0134000Y0162446D01*
X0134000Y0161848D02*
X0134600Y0161848D01*
X0134600Y0161249D02*
X0134000Y0161249D01*
X0134000Y0160651D02*
X0134600Y0160651D01*
X0134600Y0160052D02*
X0134000Y0160052D01*
X0134000Y0158257D02*
X0134600Y0158257D01*
X0134600Y0157658D02*
X0134000Y0157658D01*
X0134000Y0157060D02*
X0134600Y0157060D01*
X0134600Y0156461D02*
X0134000Y0156461D01*
X0134000Y0155863D02*
X0134600Y0155863D01*
X0129359Y0155863D02*
X0119241Y0155863D01*
X0120142Y0156461D02*
X0128458Y0156461D01*
X0127903Y0157060D02*
X0120697Y0157060D01*
X0121086Y0157658D02*
X0127514Y0157658D01*
X0127248Y0158257D02*
X0121352Y0158257D01*
X0121520Y0158855D02*
X0127080Y0158855D01*
X0127002Y0160052D02*
X0121598Y0160052D01*
X0121503Y0160651D02*
X0127097Y0160651D01*
X0127282Y0161249D02*
X0121318Y0161249D01*
X0121032Y0161848D02*
X0127568Y0161848D01*
X0127980Y0162446D02*
X0120620Y0162446D01*
X0120012Y0163045D02*
X0128588Y0163045D01*
X0129568Y0163643D02*
X0119032Y0163643D01*
X0119561Y0154067D02*
X0129039Y0154067D01*
X0128139Y0153469D02*
X0120461Y0153469D01*
X0120218Y0145688D02*
X0128382Y0145688D01*
X0129626Y0145090D02*
X0118974Y0145090D01*
X0118537Y0144491D02*
X0130063Y0144491D01*
X0128618Y0143893D02*
X0119982Y0143893D01*
X0120636Y0143294D02*
X0127964Y0143294D01*
X0127366Y0142696D02*
X0121234Y0142696D01*
X0121611Y0142097D02*
X0126989Y0142097D01*
X0126741Y0141499D02*
X0121859Y0141499D01*
X0122107Y0140900D02*
X0126493Y0140900D01*
X0126400Y0140302D02*
X0122200Y0140302D01*
X0122200Y0139703D02*
X0126400Y0139703D01*
X0126400Y0139105D02*
X0122200Y0139105D01*
X0122109Y0138506D02*
X0126491Y0138506D01*
X0126739Y0137908D02*
X0121861Y0137908D01*
X0152100Y0155863D02*
X0152700Y0155863D01*
X0152700Y0156461D02*
X0152100Y0156461D01*
X0152100Y0157060D02*
X0152700Y0157060D01*
X0152700Y0157658D02*
X0152100Y0157658D01*
X0152100Y0158257D02*
X0152700Y0158257D01*
X0152700Y0160000D02*
X0159700Y0160000D01*
X0159700Y0160038D01*
X0159594Y0160707D01*
X0159385Y0161351D01*
X0159078Y0161954D01*
X0158680Y0162501D01*
X0158201Y0162980D01*
X0157654Y0163378D01*
X0157051Y0163685D01*
X0156407Y0163894D01*
X0155738Y0164000D01*
X0152700Y0164000D01*
X0152700Y0160000D01*
X0152700Y0160052D02*
X0152100Y0160052D01*
X0152100Y0160651D02*
X0152700Y0160651D01*
X0152700Y0161249D02*
X0152100Y0161249D01*
X0152100Y0161848D02*
X0152700Y0161848D01*
X0152700Y0162446D02*
X0152100Y0162446D01*
X0152100Y0163045D02*
X0152700Y0163045D01*
X0152700Y0163643D02*
X0152100Y0163643D01*
X0157132Y0163643D02*
X0165030Y0163643D01*
X0163926Y0163045D02*
X0158112Y0163045D01*
X0158720Y0162446D02*
X0163265Y0162446D01*
X0162819Y0161848D02*
X0159132Y0161848D01*
X0159418Y0161249D02*
X0162515Y0161249D01*
X0162320Y0160651D02*
X0159603Y0160651D01*
X0159698Y0160052D02*
X0162218Y0160052D01*
X0162200Y0159300D02*
X0162200Y0159262D01*
X0162306Y0158593D01*
X0162515Y0157949D01*
X0162822Y0157346D01*
X0163220Y0156799D01*
X0163699Y0156320D01*
X0164246Y0155922D01*
X0164849Y0155615D01*
X0165493Y0155406D01*
X0166162Y0155300D01*
X0169200Y0155300D01*
X0169200Y0159300D01*
X0162200Y0159300D01*
X0162264Y0158855D02*
X0159620Y0158855D01*
X0159452Y0158257D02*
X0162415Y0158257D01*
X0162663Y0157658D02*
X0159186Y0157658D01*
X0158797Y0157060D02*
X0163030Y0157060D01*
X0163558Y0156461D02*
X0158242Y0156461D01*
X0157341Y0155863D02*
X0164363Y0155863D01*
X0164481Y0154067D02*
X0157661Y0154067D01*
X0158561Y0153469D02*
X0163439Y0153469D01*
X0169200Y0155863D02*
X0169800Y0155863D01*
X0169800Y0156461D02*
X0169200Y0156461D01*
X0169200Y0157060D02*
X0169800Y0157060D01*
X0169800Y0157658D02*
X0169200Y0157658D01*
X0169200Y0158257D02*
X0169800Y0158257D01*
X0169800Y0158855D02*
X0169200Y0158855D01*
X0169800Y0159454D02*
X0195300Y0159454D01*
X0195300Y0160052D02*
X0195900Y0160052D01*
X0195900Y0160000D02*
X0195900Y0164000D01*
X0198938Y0164000D01*
X0199607Y0163894D01*
X0200251Y0163685D01*
X0200854Y0163378D01*
X0201401Y0162980D01*
X0201880Y0162501D01*
X0202278Y0161954D01*
X0202585Y0161351D01*
X0202794Y0160707D01*
X0202900Y0160038D01*
X0202900Y0160000D01*
X0195900Y0160000D01*
X0195900Y0159454D02*
X0202917Y0159454D01*
X0202900Y0159400D02*
X0195900Y0159400D01*
X0195900Y0155400D01*
X0198938Y0155400D01*
X0199607Y0155506D01*
X0200251Y0155715D01*
X0200854Y0156022D01*
X0201401Y0156420D01*
X0201880Y0156899D01*
X0202278Y0157446D01*
X0202585Y0158049D01*
X0202794Y0158693D01*
X0202900Y0159362D01*
X0202900Y0159400D01*
X0202900Y0159562D02*
X0203006Y0158893D01*
X0203215Y0158249D01*
X0203522Y0157646D01*
X0203920Y0157099D01*
X0204399Y0156620D01*
X0204946Y0156222D01*
X0205549Y0155915D01*
X0206193Y0155706D01*
X0206862Y0155600D01*
X0209900Y0155600D01*
X0209900Y0159600D01*
X0210500Y0159600D01*
X0210500Y0160200D01*
X0209900Y0160200D01*
X0209900Y0164200D01*
X0206862Y0164200D01*
X0206193Y0164094D01*
X0205549Y0163885D01*
X0204946Y0163578D01*
X0204399Y0163180D01*
X0203920Y0162701D01*
X0203522Y0162154D01*
X0203215Y0161551D01*
X0203006Y0160907D01*
X0202900Y0160238D01*
X0202900Y0160200D01*
X0209900Y0160200D01*
X0209900Y0159600D01*
X0202900Y0159600D01*
X0202900Y0159562D01*
X0202898Y0160052D02*
X0209900Y0160052D01*
X0209900Y0159454D02*
X0210500Y0159454D01*
X0210500Y0159600D02*
X0210500Y0155600D01*
X0213538Y0155600D01*
X0214207Y0155706D01*
X0214851Y0155915D01*
X0215454Y0156222D01*
X0216001Y0156620D01*
X0216480Y0157099D01*
X0216878Y0157646D01*
X0217151Y0158183D01*
X0217322Y0157846D01*
X0217720Y0157299D01*
X0218199Y0156820D01*
X0218746Y0156422D01*
X0219349Y0156115D01*
X0219993Y0155906D01*
X0220662Y0155800D01*
X0223700Y0155800D01*
X0223700Y0159800D01*
X0224300Y0159800D01*
X0224300Y0160400D01*
X0223700Y0160400D01*
X0223700Y0164400D01*
X0220662Y0164400D01*
X0219993Y0164294D01*
X0219349Y0164085D01*
X0218746Y0163778D01*
X0218199Y0163380D01*
X0217720Y0162901D01*
X0217322Y0162354D01*
X0217049Y0161817D01*
X0216878Y0162154D01*
X0216480Y0162701D01*
X0216001Y0163180D01*
X0215454Y0163578D01*
X0214851Y0163885D01*
X0214207Y0164094D01*
X0213538Y0164200D01*
X0210500Y0164200D01*
X0210500Y0160200D01*
X0217500Y0160200D01*
X0217500Y0160238D01*
X0217474Y0160400D01*
X0223700Y0160400D01*
X0223700Y0159800D01*
X0216700Y0159800D01*
X0216700Y0159762D01*
X0216726Y0159600D01*
X0210500Y0159600D01*
X0210500Y0160052D02*
X0223700Y0160052D01*
X0223700Y0159454D02*
X0224300Y0159454D01*
X0224300Y0159800D02*
X0224300Y0155800D01*
X0227338Y0155800D01*
X0228007Y0155906D01*
X0228651Y0156115D01*
X0229254Y0156422D01*
X0229801Y0156820D01*
X0230280Y0157299D01*
X0230678Y0157846D01*
X0230985Y0158449D01*
X0231194Y0159093D01*
X0231300Y0159762D01*
X0231300Y0159800D01*
X0224300Y0159800D01*
X0224300Y0160052D02*
X0239234Y0160052D01*
X0239234Y0159454D02*
X0231251Y0159454D01*
X0231117Y0158855D02*
X0239235Y0158855D01*
X0239236Y0158257D02*
X0230887Y0158257D01*
X0230541Y0157658D02*
X0239237Y0157658D01*
X0239237Y0157060D02*
X0230041Y0157060D01*
X0229307Y0156461D02*
X0239238Y0156461D01*
X0239239Y0155863D02*
X0227735Y0155863D01*
X0224300Y0155863D02*
X0223700Y0155863D01*
X0223700Y0156461D02*
X0224300Y0156461D01*
X0224300Y0157060D02*
X0223700Y0157060D01*
X0223700Y0157658D02*
X0224300Y0157658D01*
X0224300Y0158257D02*
X0223700Y0158257D01*
X0223700Y0158855D02*
X0224300Y0158855D01*
X0224300Y0160400D02*
X0231300Y0160400D01*
X0231300Y0160438D01*
X0231194Y0161107D01*
X0230985Y0161751D01*
X0230678Y0162354D01*
X0230280Y0162901D01*
X0229801Y0163380D01*
X0229254Y0163778D01*
X0228651Y0164085D01*
X0228007Y0164294D01*
X0227338Y0164400D01*
X0224300Y0164400D01*
X0224300Y0160400D01*
X0224300Y0160651D02*
X0223700Y0160651D01*
X0223700Y0161249D02*
X0224300Y0161249D01*
X0224300Y0161848D02*
X0223700Y0161848D01*
X0223700Y0162446D02*
X0224300Y0162446D01*
X0224300Y0163045D02*
X0223700Y0163045D01*
X0223700Y0163643D02*
X0224300Y0163643D01*
X0224300Y0164242D02*
X0223700Y0164242D01*
X0219833Y0164242D02*
X0097200Y0164242D01*
X0097200Y0164841D02*
X0239228Y0164841D01*
X0239227Y0165439D02*
X0097133Y0165439D01*
X0096885Y0166038D02*
X0239227Y0166038D01*
X0239229Y0164242D02*
X0228167Y0164242D01*
X0229438Y0163643D02*
X0239229Y0163643D01*
X0239230Y0163045D02*
X0230136Y0163045D01*
X0230610Y0162446D02*
X0239231Y0162446D01*
X0239232Y0161848D02*
X0230935Y0161848D01*
X0231148Y0161249D02*
X0239232Y0161249D01*
X0239233Y0160651D02*
X0231266Y0160651D01*
X0220265Y0155863D02*
X0214690Y0155863D01*
X0214499Y0154666D02*
X0219219Y0154666D01*
X0218038Y0154067D02*
X0215944Y0154067D01*
X0216561Y0153469D02*
X0217439Y0153469D01*
X0218693Y0156461D02*
X0215783Y0156461D01*
X0216441Y0157060D02*
X0217959Y0157060D01*
X0217459Y0157658D02*
X0216884Y0157658D01*
X0210500Y0157658D02*
X0209900Y0157658D01*
X0209900Y0157060D02*
X0210500Y0157060D01*
X0210500Y0156461D02*
X0209900Y0156461D01*
X0209900Y0155863D02*
X0210500Y0155863D01*
X0210500Y0158257D02*
X0209900Y0158257D01*
X0209900Y0158855D02*
X0210500Y0158855D01*
X0210500Y0160651D02*
X0209900Y0160651D01*
X0209900Y0161249D02*
X0210500Y0161249D01*
X0210500Y0161848D02*
X0209900Y0161848D01*
X0209900Y0162446D02*
X0210500Y0162446D01*
X0210500Y0163045D02*
X0209900Y0163045D01*
X0209900Y0163643D02*
X0210500Y0163643D01*
X0215325Y0163643D02*
X0218562Y0163643D01*
X0217864Y0163045D02*
X0216136Y0163045D01*
X0216665Y0162446D02*
X0217390Y0162446D01*
X0217065Y0161848D02*
X0217033Y0161848D01*
X0205075Y0163643D02*
X0200332Y0163643D01*
X0201312Y0163045D02*
X0204264Y0163045D01*
X0203735Y0162446D02*
X0201920Y0162446D01*
X0202332Y0161848D02*
X0203367Y0161848D01*
X0203117Y0161249D02*
X0202618Y0161249D01*
X0202803Y0160651D02*
X0202965Y0160651D01*
X0203018Y0158855D02*
X0202820Y0158855D01*
X0202652Y0158257D02*
X0203213Y0158257D01*
X0203516Y0157658D02*
X0202386Y0157658D01*
X0201997Y0157060D02*
X0203959Y0157060D01*
X0204617Y0156461D02*
X0201442Y0156461D01*
X0200541Y0155863D02*
X0205710Y0155863D01*
X0195900Y0155863D02*
X0195300Y0155863D01*
X0195300Y0156461D02*
X0195900Y0156461D01*
X0195900Y0157060D02*
X0195300Y0157060D01*
X0195300Y0157658D02*
X0195900Y0157658D01*
X0195900Y0158257D02*
X0195300Y0158257D01*
X0195300Y0158855D02*
X0195900Y0158855D01*
X0195900Y0160651D02*
X0195300Y0160651D01*
X0195300Y0161249D02*
X0195900Y0161249D01*
X0195900Y0161848D02*
X0195300Y0161848D01*
X0195300Y0162446D02*
X0195900Y0162446D01*
X0195900Y0163045D02*
X0195300Y0163045D01*
X0195300Y0163643D02*
X0195900Y0163643D01*
X0190926Y0145090D02*
X0183395Y0145090D01*
X0217510Y0131922D02*
X0229400Y0131922D01*
X0229400Y0131324D02*
X0218109Y0131324D01*
X0218707Y0130725D02*
X0229400Y0130725D01*
X0229400Y0130127D02*
X0218900Y0130127D01*
X0218900Y0129528D02*
X0229400Y0129528D01*
X0041400Y0035562D02*
X0037999Y0035562D01*
X0037200Y0034964D02*
X0041400Y0034964D01*
X0041400Y0034365D02*
X0037200Y0034365D01*
X0037200Y0033767D02*
X0041400Y0033767D01*
X0041400Y0033168D02*
X0037200Y0033168D01*
X0037200Y0032570D02*
X0041400Y0032570D01*
X0041400Y0031971D02*
X0037200Y0031971D01*
X0037200Y0031372D02*
X0041400Y0031372D01*
X0041400Y0030774D02*
X0037200Y0030774D01*
X0037200Y0030175D02*
X0041400Y0030175D01*
X0041400Y0029577D02*
X0037200Y0029577D01*
X0037200Y0028978D02*
X0041400Y0028978D01*
X0041400Y0028380D02*
X0037200Y0028380D01*
X0037200Y0027781D02*
X0041400Y0027781D01*
X0041400Y0027183D02*
X0037200Y0027183D01*
X0037345Y0026584D02*
X0041255Y0026584D01*
X0040656Y0025986D02*
X0037944Y0025986D01*
X0038491Y0025387D02*
X0040109Y0025387D01*
X0039862Y0024789D02*
X0038738Y0024789D01*
X0038986Y0024190D02*
X0039614Y0024190D01*
X0039400Y0023592D02*
X0039200Y0023592D01*
X0039200Y0022993D02*
X0039400Y0022993D01*
X0039400Y0022395D02*
X0039200Y0022395D01*
X0039200Y0021796D02*
X0039400Y0021796D01*
X0039400Y0021198D02*
X0039200Y0021198D01*
X0039200Y0020599D02*
X0039400Y0020599D01*
X0039400Y0020001D02*
X0039200Y0020001D01*
X0039200Y0019402D02*
X0039400Y0019402D01*
X0039400Y0018804D02*
X0039200Y0018804D01*
X0039200Y0018205D02*
X0039400Y0018205D01*
X0039400Y0017607D02*
X0039200Y0017607D01*
X0039200Y0017008D02*
X0039400Y0017008D01*
X0039400Y0016410D02*
X0039200Y0016410D01*
X0039200Y0015811D02*
X0039400Y0015811D01*
X0039612Y0015213D02*
X0038988Y0015213D01*
X0038740Y0014614D02*
X0039860Y0014614D01*
X0040108Y0014016D02*
X0038492Y0014016D01*
X0037947Y0013417D02*
X0040653Y0013417D01*
X0041252Y0012819D02*
X0037348Y0012819D01*
X0036289Y0012220D02*
X0042311Y0012220D01*
X0029825Y0042744D02*
X0019257Y0042744D01*
X0018658Y0043343D02*
X0030106Y0043343D01*
X0030705Y0043941D02*
X0018060Y0043941D01*
M02*
